SplineFontDB: 3.2
FontName: NameItRounded-Bold
FullName: NameIt Rounded Bold
FamilyName: NameIt Rounded
Weight: Bold
Copyright: Copyright (c) 2022 by 5@xes. All rights reserved.
UComments: "Font designed for optimal FDM 3D Printing.+AAoACgAA-Specification:+AAoA   -  Must be print easily with a 0.4 nozzle using Cura 5.0+AAoA   - Easy printing means:+AAoA           -  Printing a single outer contour,+AAoA           -  No interior infill+AAoA           -  Continuous motion that minimizes letter wraping when printing the first layer"
Version: 1.00 2022
ItalicAngle: 0
UnderlinePosition: -100
UnderlineWidth: 50
Ascent: 835
Descent: 165
InvalidEm: 0
sfntRevision: 0x00010000
LayerCount: 2
Layer: 0 1 "Arri+AOgA-re" 1
Layer: 1 1 "Avant" 0
XUID: [1021 378 143806488 18701]
StyleMap: 0x0020
FSType: 4
OS2Version: 3
OS2_WeightWidthSlopeOnly: 0
OS2_UseTypoMetrics: 0
CreationTime: 1656082097
ModificationTime: 1656267234
PfmFamily: 81
TTFWeight: 700
TTFWidth: 5
LineGap: 0
VLineGap: 0
Panose: 0 0 0 0 0 0 0 0 0 0
OS2TypoAscent: 835
OS2TypoAOffset: 0
OS2TypoDescent: -165
OS2TypoDOffset: 0
OS2TypoLinegap: 235
OS2WinAscent: 960
OS2WinAOffset: 0
OS2WinDescent: 240
OS2WinDOffset: 0
HheadAscent: 952
HheadAOffset: 0
HheadDescent: -283
HheadDOffset: 0
OS2SubXSize: 700
OS2SubYSize: 650
OS2SubXOff: 0
OS2SubYOff: 140
OS2SupXSize: 700
OS2SupYSize: 650
OS2SupXOff: 0
OS2SupYOff: 477
OS2StrikeYSize: 50
OS2StrikeYPos: 250
OS2CapHeight: 800
OS2XHeight: 400
OS2Vendor: '    '
OS2CodePages: 20000111.40000000
OS2UnicodeRanges: 800000af.5000204a.00000000.00000000
Lookup: 258 0 0 "'kern' Cr+AOkA-nage horizontal dans Latin lookup 0" { "sous-table 'kern' Cr+AOkA-nage horizontal dans Latin lookup 0"  } ['kern' ('DFLT' <'dflt' > 'latn' <'dflt' > ) ]
MarkAttachClasses: 1
DEI: 91125
TtTable: prep
PUSHW_1
 0
CALL
SVTCA[y-axis]
PUSHW_3
 1
 1
 2
CALL
SVTCA[x-axis]
PUSHW_3
 2
 3
 2
CALL
SVTCA[x-axis]
PUSHW_8
 2
 38
 34
 26
 19
 12
 0
 8
CALL
PUSHW_8
 3
 69
 57
 44
 32
 19
 0
 8
CALL
PUSHW_8
 4
 41
 34
 26
 19
 12
 0

StartChar: Eth
Encoding: 208 208 3
Width: 599
Flags: W
LayerCount: 2
Fore
SplineSet
87 304 m 2,0,-1
 87 65 l 2,1,2
 87 40 87 40 91 28 c 0,3,4
 100 0 100 0 152 0 c 2,5,-1
 304 0 l 2,6,7
 373 0 373 0 424 30 c 0,8,9
 529 91 529 91 529 231 c 2,10,-1
 529 474 l 2,11,12
 529 577 529 577 469 640 c 0,13,14
 406 706 406 706 304 706 c 2,15,-1
 152 706 l 2,16,17
 125 706 125 706 106 687 c 128,-1,18
 87 668 87 668 87 641 c 2,19,-1
 86 427 l 1,20,-1
 62 427 l 2,21,22
 36 427 36 427 18 409 c 256,23,24
 0 391 0 391 0 365.5 c 128,-1,25
 0 340 0 340 18 322 c 256,26,27
 36 304 36 304 62 304 c 2,28,-1
 87 304 l 2,0,-1
233 574 m 1,29,-1
 296 574 l 2,30,31
 331 574 331 574 349 558 c 0,32,33
 384 528 384 528 384 469 c 2,34,-1
 384 237 l 2,35,36
 384 213 384 213 379 194 c 0,37,38
 362 132 362 132 296 132 c 2,39,-1
 233 132 l 1,40,-1
 233 303 l 2,41,-1
 263 304 l 2,42,43
 290 305 290 305 307 322 c 256,44,45
 325 340 325 340 325 365.5 c 128,-1,46
 325 391 325 391 307 409 c 256,47,48
 289 427 289 427 263 427 c 2,49,-1
 233 427 l 1,50,-1
 233 574 l 1,29,-1
EndSplineSet
Validated: 9
EndChar

StartChar: eth
Encoding: 240 240 4
Width: 599
Flags: W
LayerCount: 2
Fore
SplineSet
87 304 m 2,0,-1
 87 65 l 2,1,2
 87 51 87 51 92.5 39.5 c 0,3,4
 111 0 111 0 152 0 c 2,5,-1
 304 0 l 2,6,7
 373 0 373 0 424 30 c 0,8,9
 529 91 529 91 529 231 c 2,10,-1
 529 474 l 2,11,12
 529 577 529 577 469 640 c 0,13,14
 406 706 406 706 304 706 c 2,15,-1
 152 706 l 2,16,17
 125 706 125 706 106 687 c 128,-1,18
 87.1267605634 668.126760563 87.1267605634 668.126760563 87 641 c 2,19,-1
 86 427 l 1,20,-1
 62 427 l 2,21,22
 36 427 36 427 18 409 c 256,23,24
 0 391 0 391 0 365.5 c 128,-1,25
 0 340 0 340 18 322 c 256,26,27
 36 304 36 304 62 304 c 2,28,-1
 87 304 l 2,0,-1
72.4864864865 427 m 1025,29,-1
234 574 m 5,30,-1
 296 574 l 2,31,32
 331 574 331 574 349 558.5 c 0,33,34
 384 528.361111111 384 528.361111111 384 469 c 2,35,-1
 384 237 l 2,36,37
 384 213 384 213 379 194 c 0,38,39
 362 132 362 132 296 132 c 2,40,-1
 233 132 l 1,41,-1
 233 303 l 2,42,-1
 263 304 l 2,43,44
 290 305 290 305 307 322 c 256,45,46
 325 340 325 340 325 365.5 c 128,-1,47
 325 391 325 391 307 409 c 256,48,49
 289 427 289 427 263 427 c 2,50,-1
 232 427 l 1,51,-1
 234 574 l 5,30,-1
EndSplineSet
Validated: 9
EndChar

StartChar: Lslash
Encoding: 258 321 5
Width: 529
Flags: W
LayerCount: 2
Fore
SplineSet
83 234 m 1,0,1
 75 226 75 226 57.5 226 c 128,-1,2
 40 226 40 226 27 234 c 0,3,4
 0 251 0 251 0 282 c 0,5,6
 0 296 0 296 8 309.5 c 128,-1,7
 16 323 16 323 29 330 c 2,8,-1
 82 358 l 1,9,10
 93 365 93 365 93 377 c 2,11,-1
 93 641 l 2,12,13
 93 668 93 668 112 687 c 256,14,15
 131 706 131 706 158 706 c 2,16,-1
 173 706 l 2,17,18
 202 706 202 706 219 687 c 0,19,20
 238 668 238 668 238 641 c 2,21,-1
 238 454 l 2,22,23
 238 450 238 450 242 448 c 256,24,25
 246 446 246 446 249 448 c 2,26,-1
 296 473 l 2,27,28
 309 480 309 480 323 480 c 128,-1,29
 337 480 337 480 349 473 c 128,-1,30
 361 466 361 466 378 424 c 1,31,32
 378 409 378 409 370 395.5 c 128,-1,33
 362 382 362 382 349 376 c 2,34,-1
 250 322 l 1,35,36
 245 321 245 321 241.5 315 c 128,-1,37
 238 309 238 309 238 304 c 2,38,-1
 238 140 l 2,39,40
 238 130 238 130 248 130 c 2,41,-1
 404 130 l 2,42,43
 445 130 445 130 464 90 c 0,44,45
 469 79 469 79 469 65 c 256,46,47
 469 40 469 40 450 19 c 0,48,49
 431 0 431 0 404 0 c 2,50,-1
 158 0 l 2,51,52
 131 0 131 0 112 19 c 256,53,54
 93 38 93 38 93 65 c 2,55,-1
 93 229 l 2,56,57
 93 232 93 232 90.5 234 c 128,-1,58
 88 236 88 236 85 234 c 1,59,-1
 83 234 l 1,0,1
EndSplineSet
Validated: 1
EndChar

StartChar: lslash
Encoding: 259 322 6
Width: 529
Flags: W
LayerCount: 2
Fore
SplineSet
238 140 m 2,0,1
 238 130 238 130 248 130 c 2,2,-1
 404 130 l 2,3,4
 444.608695652 130 444.608695652 130 463.5 90.5 c 0,5,6
 469 79 469 79 469 65 c 256,7,8
 469 40.375 469 40.375 450 19 c 0,9,10
 431 0 431 0 404 0 c 2,11,-1
 158 0 l 2,12,13
 131 0 131 0 112 19 c 256,14,15
 93 38 93 38 93 65 c 2,16,-1
 93 229 l 2,17,18
 93 232 93 232 90.5 234 c 128,-1,19
 88 236 88 236 85 234 c 1,20,-1
 83 234 l 1,21,-1
 82 233 l 1,22,23
 53 218 53 218 27 234 c 0,24,25
 0 249.75 0 249.75 0 282 c 0,26,27
 0 296 0 296 8 309.5 c 128,-1,28
 16 323 16 323 29 330 c 2,29,-1
 82 358 l 2,30,31
 93 364.6 93 364.6 93 377 c 2,32,-1
 93 641 l 2,33,34
 93 668 93 668 112 687 c 256,35,36
 131 706 131 706 158 706 c 2,37,-1
 173 706 l 2,38,39
 202 706 202 706 219 687 c 0,40,41
 238 668 238 668 238 641 c 2,42,-1
 238 454 l 2,43,44
 238 450 238 450 242 448 c 256,45,46
 246 446 246 446 249 448 c 2,47,-1
 296 473 l 2,48,49
 322.917525773 488.381443299 322.917525773 488.381443299 351 472 c 0,50,51
 361.636363636 464.909090909 361.636363636 464.909090909 378 424 c 1,52,53
 378 409 378 409 370 395.5 c 128,-1,54
 362 382 362 382 349 376 c 2,55,-1
 250 322 l 1,56,57
 245 321 245 321 241.5 315 c 128,-1,58
 238 309 238 309 238 304 c 2,59,-1
 238 140 l 2,0,1
EndSplineSet
Validated: 33
EndChar

StartChar: Thorn
Encoding: 222 222 13
Width: 514
Flags: W
LayerCount: 2
Fore
SplineSet
358 536 m 0,0,1
 444 473.454545455 444 473.454545455 444 365 c 0,2,3
 444 257.545454545 444 257.545454545 358 195 c 0,4,5
 331.470588235 175.705882353 331.470588235 175.705882353 280 161 c 0,6,7
 251 155 251 155 220 155 c 2,8,-1
 155 155 l 2,9,10
 151 155 151 155 148 152 c 256,11,12
 145 149 145 149 145 145 c 2,13,-1
 145 73 l 2,14,15
 145 42 145 42 124 21 c 256,16,17
 103 0 103 0 72.5 0 c 128,-1,18
 42 0 42 0 21 21 c 256,19,20
 0 42 0 42 0 73 c 2,21,-1
 0 633 l 2,22,23
 0 662 0 662 21 685 c 0,24,25
 42 706 42 706 72.5 706 c 128,-1,26
 103 706 103 706 124 685 c 0,27,28
 145 662 145 662 145 633 c 2,29,-1
 145 586 l 2,30,31
 145 582 145 582 148 579 c 256,32,33
 151 576 151 576 155 576 c 2,34,-1
 220 576 l 2,35,36
 303 576 303 576 358 536 c 0,0,1
213 284 m 2,37,38
 273.285714286 284 273.285714286 284 293 330 c 0,39,40
 299 346 299 346 299 365.5 c 0,41,42
 299 405.692307692 299 405.692307692 275 426 c 0,43,44
 263 437 263 437 247 441 c 0,45,46
 232 447 232 447 213 447 c 2,47,-1
 155 447 l 2,48,49
 151 447 151 447 148 444 c 256,50,51
 145 441 145 441 145 437 c 2,52,-1
 145 294 l 2,53,54
 145 290 145 290 148 287 c 256,55,56
 151 284 151 284 155 284 c 2,57,-1
 213 284 l 2,37,38
EndSplineSet
Validated: 1
EndChar

StartChar: thorn
Encoding: 254 254 14
Width: 514
Flags: W
LayerCount: 2
Fore
SplineSet
358 536 m 0,0,1
 444 473.454545455 444 473.454545455 444 365.5 c 0,2,3
 444 257.545454545 444 257.545454545 358 195 c 0,4,5
 331.470588235 175.705882353 331.470588235 175.705882353 280 161 c 0,6,7
 251 155 251 155 220 155 c 2,8,-1
 155 155 l 2,9,10
 151 155 151 155 148 152 c 256,11,12
 145 149 145 149 145 145 c 2,13,-1
 145 73 l 2,14,15
 145 42 145 42 124 21 c 256,16,17
 103 0 103 0 72.5 0 c 128,-1,18
 42 0 42 0 21 21 c 256,19,20
 0 42 0 42 0 73 c 2,21,-1
 0 633 l 2,22,23
 0 662 0 662 21 685 c 0,24,25
 42 706 42 706 72.5 706 c 128,-1,26
 103 706 103 706 124 685 c 0,27,28
 145 662 145 662 145 633 c 2,29,-1
 145 586 l 2,30,31
 145 582 145 582 148 579 c 256,32,33
 151 576 151 576 155 576 c 2,34,-1
 220 576 l 2,35,36
 303 576 303 576 358 536 c 0,0,1
213 284 m 2,37,38
 273.285714286 284 273.285714286 284 293 330 c 0,39,40
 299 346 299 346 299 365.5 c 0,41,42
 299 405.692307692 299 405.692307692 275 426 c 0,43,44
 263 437 263 437 247 441 c 0,45,46
 232 447 232 447 213 447 c 2,47,-1
 155 447 l 2,48,49
 151 447 151 447 148 444 c 256,50,51
 145 441 145 441 145 437 c 2,52,-1
 145 294 l 2,53,54
 145 290 145 290 148 287 c 256,55,56
 151 284 151 284 155 284 c 2,57,-1
 213 284 l 2,37,38
EndSplineSet
Validated: 1
EndChar

StartChar: onehalf
Encoding: 189 189 22
Width: 800
Flags: W
LayerCount: 2
Fore
SplineSet
623 434 m 1
 614 446 614 446 592 446 c 0
 557 446 557 446 535 417 c 0
 520 398 520 398 495 395 c 0
 470 392 470 392 453 405.5 c 0
 436 418 436 418 435 434 c 0
 432 472 432 472 469 503 c 0
 497 528 497 528 530.5 536 c 0
 564 544 564 544 582 544 c 0
 660 544 660 544 702 501 c 0
 744 458 744 458 744 394 c 0
 744 358 744 358 731 330 c 256
 713 291 713 291 705 278.5 c 0
 697 266 697 266 690.5 257.5 c 0
 684 249 684 249 675.5 237 c 0
 667 225 667 225 644 195 c 0
 621 165 621 165 607 144 c 0
 593 123 593 123 586.5 114.5 c 0
 580 106 580 106 582 102 c 0
 584 98 584 98 589 98 c 2
 702 98 l 2
 732 98 732 98 746 70 c 0
 750 62 750 62 750 47 c 0
 750 32 750 32 736 18 c 0
 723 4 723 4 703 4 c 2
 468 4 l 2
 438 4 438 4 424 32 c 256
 409 60 409 60 429 83 c 2
 561 248 l 2
 573 263 573 263 592 290 c 0
 638 352 638 352 638 394 c 0
 638 421 638 421 624 434 c 1
 624 434 l 1
 623 434 l 1
61 740 m 2
 50 740 l 2
 30 740 30 740 16 754 c 256
 2 768 2 768 1 789 c 256
 1 810 1 810 16 824 c 256
 30 838 30 838 50 838 c 2
 129 838 l 2
 160 838 160 838 174 808 c 0
 178 799 178 799 178 789 c 2
 178 357 l 2
 178 338 178 338 163 322 c 0
 149 308 149 308 129 308 c 2
 117 308 l 2
 97 308 97 308 82 322 c 0
 68 337 68 337 69 357 c 2
 69 733 l 2
 69 736 69 736 67 738 c 256
 64 740 64 740 61 740 c 2
EndSplineSet
Refer: 45 47 N 0.999939 0 0 1 126 76 2
Validated: 37
EndChar

StartChar: onequarter
Encoding: 188 188 23
Width: 700
Flags: W
LayerCount: 2
Fore
SplineSet
61 740 m 2
 50 740 l 2
 30 740 30 740 16 754 c 256
 2 768 2 768 1 789 c 256
 1 810 1 810 16 824 c 256
 30 838 30 838 50 838 c 2
 129 838 l 2
 160 838 160 838 174 808 c 0
 178 799 178 799 178 789 c 2
 178 357 l 2
 178 338 178 338 163 322 c 0
 149 308 149 308 129 308 c 2
 117 308 l 2
 97 308 97 308 82 322 c 0
 68.9333333333 336 68.9333333333 336 68.9333333333 354.355555556 c 0
 68.9333333333 355.666666667 68.9333333333 355.666666667 69 357 c 2
 69 733 l 2
 69 736 69 736 67 738 c 256
 64 740 64 740 61 740 c 2
644 97 m 2
 640 97 l 2
 637 97 637 97 635 95 c 256
 633 93 633 93 633 90 c 2
 633 54 l 2
 633 30 633 30 618 16 c 0
 601 -0.0555555555556 601 -0.0555555555556 582.216049383 -0.0555555555556 c 0
 581.111111111 -0.0555555555556 581.111111111 -0.0555555555556 580 0 c 256
 561 1 561 1 543 16 c 0
 527 29 527 29 527 54 c 2
 527 90 l 2
 527 97 527 97 520 97 c 2
 440 97 l 1
 358 96 l 2
 329 96 329 96 317 119 c 0
 309.652173913 132.565217391 309.652173913 132.565217391 309.652173913 145.810964083 c 0
 309.652173913 156 309.652173913 156 314 166 c 2
 472 501 l 2
 479 514 479 514 491 522 c 0
 503 530 503 530 518 530 c 0
 548 530 548 530 561 506 c 0
 568.84 492 568.84 492 568.84 478.6272 c 0
 568.84 468.12 568.84 468.12 564 458 c 2
 442 202 l 2
 441 198 441 198 443 195 c 0
 445 192 445 192 450 192 c 2
 520 192 l 2
 523 192 523 192 525 194 c 256
 527 196 527 196 527 199 c 2
 527 244 l 2
 527 268 527 268 543 282 c 0
 559 296 559 296 580 297 c 256
 581.294117647 297.058823529 581.294117647 297.058823529 582.567474048 297.058823529 c 0
 602.941176471 297.058823529 602.941176471 297.058823529 618 282 c 0
 633 267 633 267 633 244 c 2
 633 199 l 2
 633 198 633 198 634 196 c 0
 635 194 l 0
 640 192 l 2
 644 192 l 2
 663 192 663 192 676 178 c 0
 690 164 690 164 690 144 c 0
 690 125 690 125 677 111 c 0
 664 97 664 97 644 97 c 2
EndSplineSet
Refer: 45 47 N 0.999939 0 0 1 126 76 2
Validated: 1
EndChar

StartChar: onesuperior
Encoding: 185 185 24
Width: 269
VWidth: 838
Flags: W
LayerCount: 2
Fore
SplineSet
51.25390625 765.25390625 m 132,-1,1
 51.25390625 793.791992188 51.25390625 793.791992188 71.357421875 813.896484375 c 132,-1,2
 91.4619140625 834 91.4619140625 834 120 834 c 6,3,-1
 198.75 834 l 6,4,5
 227.241210938 834 227.241210938 834 246.131835938 815.109375 c 4,6,7
 255.177734375 806.063476562 255.177734375 806.063476562 261.336914062 793.185546875 c 132,-1,8
 267.49609375 780.307617188 267.49609375 780.307617188 267.49609375 765.25390625 c 6,9,-1
 267.49609375 333.25390625 l 6,10,11
 267.49609375 307.17578125 267.49609375 307.17578125 248.208984375 285.478515625 c 4,12,13
 247.811523438 285.030273438 247.811523438 285.030273438 247.385742188 284.60546875 c 4,14,15
 227.288085938 264.5078125 227.288085938 264.5078125 198.75 264.5078125 c 6,16,-1
 186.75 264.5078125 l 6,17,18
 158.211914062 264.5078125 158.211914062 264.5078125 138.107421875 284.611328125 c 4,19,20
 137.727539062 284.9921875 137.727539062 284.9921875 137.368164062 285.391601562 c 4,21,22
 118.75390625 306.07421875 118.75390625 306.07421875 118.75390625 333.25390625 c 6,23,-1
 118.75390625 696.517578125 l 5,24,25
 91.021484375 696.948242188 91.021484375 696.948242188 71.1376953125 716.83203125 c 132,-1,0
 51.25390625 736.715820312 51.25390625 736.715820312 51.25390625 765.25390625 c 132,-1,1
EndSplineSet
Validated: 1
EndChar

StartChar: threequarters
Encoding: 190 190 25
Width: 830
Flags: W
LayerCount: 2
Fore
SplineSet
190 730 m 1
 190 734 l 1
 188 735 l 1
 44 735 l 2
 24 735 24 735 10 749.5 c 0
 -4 764 -4 764 -4 784 c 256
 -4 812 -4 812 17 825 c 0
 31 833 31 833 44 833 c 2
 269 833 l 2
 285 833 285 833 299 825 c 0
 325 810 325 810 328 775 c 0
 329 759 329 759 320 745 c 2
 239 613 l 2
 235 606 235 606 241 603.5 c 0
 247 601 247 601 251 599 c 0
 255 597 255 597 259 595 c 256
 263 593 263 593 267 590.5 c 0
 271 588 271 588 275.5 585 c 0
 280 582 280 582 288.5 576.5 c 0
 297 571 297 571 315 550 c 0
 354 506 354 506 341 422 c 0
 334 375 334 375 293.5 336.5 c 0
 253 298 253 298 181 293 c 256
 143 290 143 290 97 308 c 0
 86 312 86 312 59 329 c 0
 51 334 51 334 46 339.5 c 0
 41 345 41 345 32.5 353.5 c 0
 24 362 24 362 19 372.5 c 0
 14 383 14 383 10 391.5 c 0
 6 400 6 400 7.5 413.5 c 0
 9 427 9 427 15 436 c 0
 21 445 21 445 33 453 c 0
 45 461 45 461 56.5 461 c 0
 68 461 68 461 73 459 c 0
 82 456 82 456 107 431 c 0
 108 429 108 429 109.5 424.5 c 0
 111 420 111 420 118 413 c 2
 124 408 l 1
 153 379 153 379 198 393 c 0
 221 400 221 400 233 423 c 0
 250 456 250 456 230 482 c 0
 221 495 221 495 209 503 c 0
 196 513 196 513 180 518 c 1
 179 519 l 1
 177 519 l 1
 176 519 l 1
 175 519 l 1
 165 524 l 1
 145 531 l 1
 135 536 l 2
 116 545 116 545 107 566 c 0
 100 585 100 585 113 607 c 1
 190 730 l 1
763 89 m 2
 760 89 l 2
 759 88 759 88 754.75 86.75 c 256
 752.5 86.1363636364 752.5 86.1363636364 752.5 81.5 c 2
 752.5 45.5 l 2
 751.949152542 22.9152542373 751.949152542 22.9152542373 737.5 8 c 0
 722 -8 722 -8 700 -7.75 c 256
 678 -8 678 -8 662.5 8 c 0
 646.75 25.2741935484 646.75 25.2741935484 646.75 45.5 c 2
 646.75 81.5 l 2
 647 89 647 89 639.25 89 c 2
 559 89 l 1
 478 88.25 l 2
 449 88 449 88 436.75 110.75 c 0
 422.928495233 135.126108407 422.928495233 135.126108407 433.75 158 c 2
 592 492.5 l 2
 598 504 598 504 610.75 513.5 c 0
 622 522 622 522 637.375 521.75 c 0
 668 522 668 522 680.5 497.75 c 0
 694.036923077 471.92957265 694.036923077 471.92957265 683.5 449.75 c 2
 562 194 l 2
 559 188 559 188 562.75 186.5 c 0
 569 184 569 184 569.5 183.5 c 2
 639.25 183.5 l 2
 642 186 642 186 644.5 185.75 c 256
 646.75 185.975 646.75 185.975 646.75 191 c 2
 646.75 236 l 2
 647.025316456 258.025316456 647.025316456 258.025316456 662.5 273.5 c 0
 679 290 679 290 700 289.25 c 256
 727 288 727 288 737.5 273.5 c 0
 752.5 249.189655172 752.5 249.189655172 752.5 236 c 2
 752.5 191 l 2
 752 190 752 190 753.25 188.375 c 0
 754 186 754 186 754.75 185.75 c 0
 760 184 760 184 760 183.5 c 2
 763 183.5 l 2
 783 184 783 184 796 170 c 0
 809 155 809 155 809.5 135.875 c 0
 810 118 810 118 796.375 102.875 c 0
 784 89 784 89 763 89 c 2
EndSplineSet
Refer: 45 47 N 0.999939 0 0 1 246 60 2
Validated: 33
EndChar

StartChar: threesuperior
Encoding: 179 179 26
Width: 460
VWidth: 836
Flags: W
LayerCount: 2
Fore
SplineSet
178.052734375 561.3203125 m 0,0,1
 178.052734375 580.109375 178.052734375 580.109375 189.27734375 598.090820312 c 2,2,-1
 250.713867188 696.5078125 l 1,3,-1
 138 696.5078125 l 2,4,5
 109.461914062 696.5078125 109.461914062 696.5078125 89.357421875 716.611328125 c 128,-1,6
 69.25390625 736.715820312 69.25390625 736.715820312 69.25390625 765.55078125 c 0,7,8
 69.25390625 804.03515625 69.25390625 804.03515625 100.71484375 822.911132812 c 0,9,10
 119.196289062 834 119.196289062 834 138 834 c 2,11,-1
 362.25 834 l 2,12,13
 384.260742188 834 384.260742188 834 402.841796875 822.952148438 c 0,14,15
 441.0859375 800.211914062 441.0859375 800.211914062 441.4921875 757.151367188 c 0,16,17
 441.717773438 754.278320312 441.717773438 754.278320312 441.717773438 751.456054688 c 0,18,19
 441.717773438 731.9296875 441.717773438 731.9296875 430.918945312 714.83203125 c 0,20,21
 394.094726562 655.1640625 394.094726562 655.1640625 357.379882812 595.669921875 c 1,22,23
 360.150390625 594.2421875 360.150390625 594.2421875 363.16796875 592.431640625 c 128,-1,24
 366.185546875 590.62109375 366.185546875 590.62109375 370.517578125 588.2578125 c 128,-1,25
 374.850585938 585.89453125 374.850585938 585.89453125 386.749023438 577.961914062 c 128,-1,26
 398.647460938 570.029296875 398.647460938 570.029296875 407.602539062 561.07421875 c 128,-1,27
 416.557617188 552.120117188 416.557617188 552.120117188 423.3046875 544.5625 c 0,28,29
 458.186523438 505.494140625 458.186523438 505.494140625 458.186523438 442.076171875 c 0,30,31
 458.186523438 422.205078125 458.186523438 422.205078125 454.76171875 399.943359375 c 0,32,33
 446.512695312 346.323242188 446.512695312 346.323242188 400.821289062 303.107421875 c 128,-1,34
 354.93359375 259.701171875 354.93359375 259.701171875 275.935546875 254.05859375 c 0,35,36
 268.53515625 253.530273438 268.53515625 253.530273438 261.259765625 253.530273438 c 0,37,38
 219.974609375 253.530273438 219.974609375 253.530273438 182.73828125 270.555664062 c 0,39,40
 159.013671875 279.654296875 159.013671875 279.654296875 141.3125 293.73828125 c 0,41,42
 131.557617188 300.080078125 131.557617188 300.080078125 125.708984375 306.344726562 c 128,-1,43
 119.860351562 312.609375 119.860351562 312.609375 110.260742188 322.208984375 c 128,-1,44
 100.661132812 331.80859375 100.661132812 331.80859375 95.267578125 343.674804688 c 128,-1,45
 89.8740234375 355.541015625 89.8740234375 355.541015625 85.36328125 364.970703125 c 128,-1,46
 80.853515625 374.401367188 80.853515625 374.401367188 80.853515625 387.685546875 c 0,47,48
 80.853515625 427.698242188 80.853515625 427.698242188 115.604492188 450.6796875 c 0,49,50
 132.723632812 462 132.723632812 462 148.727539062 462 c 128,-1,51
 164.731445312 462 164.731445312 462 173.247070312 458.958984375 c 0,52,53
 205.810546875 447.329101562 205.810546875 447.329101562 217.41796875 422.663085938 c 0,54,55
 219.884765625 419.350585938 219.884765625 419.350585938 221.059570312 415.827148438 c 128,-1,56
 222.233398438 412.3046875 222.233398438 412.3046875 226.017578125 408.521484375 c 2,57,-1
 231.375 403.163085938 l 2,58,59
 245.369140625 390.252929688 245.369140625 390.252929688 264.712890625 390.252929688 c 0,60,61
 274.641601562 390.252929688 274.641601562 390.252929688 285.21484375 393.424804688 c 128,-1,62
 295.787109375 396.596679688 295.787109375 396.596679688 300.639648438 401.44921875 c 128,-1,63
 305.4921875 406.301757812 305.4921875 406.301757812 306.861328125 409.381835938 c 128,-1,64
 308.229492188 412.461914062 308.229492188 412.461914062 308.51953125 413.016601562 c 0,65,66
 313.434570312 422.4375 313.434570312 422.4375 313.434570312 432.181640625 c 0,67,68
 313.434570312 446.990234375 313.434570312 446.990234375 300.901367188 459.522460938 c 0,69,70
 296.572265625 463.852539062 296.572265625 463.852539062 293.65234375 465.741210938 c 128,-1,71
 290.733398438 467.629882812 290.733398438 467.629882812 290.106445312 468.109375 c 0,72,73
 280.016601562 475.825195312 280.016601562 475.825195312 267.438476562 480.024414062 c 0,74,75
 263.81640625 480.618164062 263.81640625 480.618164062 251.05078125 486.525390625 c 1,76,77
 230.803710938 494.024414062 230.803710938 494.024414062 230.09765625 494.349609375 c 2,78,-1
 220.282226562 498.880859375 l 2,79,80
 191.114257812 512.4921875 191.114257812 512.4921875 182.17578125 540.194335938 c 0,81,82
 178.052734375 550.537109375 178.052734375 550.537109375 178.052734375 561.3203125 c 0,0,1
EndSplineSet
Validated: 1
EndChar

StartChar: twosuperior
Encoding: 178 178 27
Width: 439
Flags: W
LayerCount: 2
Fore
SplineSet
249.333007812 698.5078125 m 4,0,1
 224.147460938 698.5078125 224.147460938 698.5078125 208.12109375 677.370117188 c 4,2,3
 184.986328125 646.858398438 184.986328125 646.858398438 143.446289062 646.858398438 c 4,4,5
 112.095703125 646.858398438 112.095703125 646.858398438 90.0009765625 668.953125 c 4,6,7
 73.8564453125 685.09765625 73.8564453125 685.09765625 72.4296875 705.069335938 c 4,8,9
 72.181640625 708.541992188 72.181640625 708.541992188 72.181640625 711.954101562 c 4,10,11
 72.181640625 756.216796875 72.181640625 756.216796875 113.583984375 790.030273438 c 4,12,13
 145.606445312 818.171875 145.606445312 818.171875 182.091796875 827.0859375 c 132,-1,14
 218.577148438 836 218.577148438 836 239 836 c 4,15,16
 325.764648438 836 325.764648438 836 373.379882812 786.822265625 c 132,-1,17
 420.99609375 737.645507812 420.99609375 737.645507812 420.99609375 666.00390625 c 4,18,19
 420.99609375 625.204101562 420.99609375 625.204101562 406.456054688 593.216796875 c 4,20,21
 387.7890625 552.150390625 387.7890625 552.150390625 378.888671875 539.486328125 c 132,-1,22
 369.98828125 526.822265625 369.98828125 526.822265625 363.64453125 518.23828125 c 132,-1,23
 357.299804688 509.655273438 357.299804688 509.655273438 349.017578125 497.608398438 c 132,-1,24
 340.736328125 485.561523438 340.736328125 485.561523438 317.798828125 455.252929688 c 132,-1,25
 294.862304688 424.943359375 294.862304688 424.943359375 285.181640625 410.826171875 c 132,-1,26
 275.500976562 396.708007812 275.500976562 396.708007812 271.17578125 390.5 c 5,27,-1
 359 390.5 l 6,28,29
 387.291015625 390.5 387.291015625 390.5 406.138671875 371.65234375 c 4,30,31
 414.692382812 363.098632812 414.692382812 363.098632812 420.844726562 350.794921875 c 132,-1,32
 426.99609375 338.4921875 426.99609375 338.4921875 426.99609375 316.978515625 c 132,-1,33
 426.99609375 295.465820312 426.99609375 295.465820312 407.267578125 275.736328125 c 132,-1,34
 387.538085938 256.0078125 387.538085938 256.0078125 359.75 256.0078125 c 6,35,-1
 125 256.0078125 l 6,36,37
 96.5361328125 256.0078125 96.5361328125 256.0078125 77.8115234375 274.732421875 c 4,38,39
 69.4794921875 283.064453125 69.4794921875 283.064453125 62.58984375 296.844726562 c 132,-1,40
 55.69921875 310.625 55.69921875 310.625 55.69921875 326.0859375 c 4,41,42
 55.69921875 348.255859375 55.69921875 348.255859375 71.2138671875 367.350585938 c 6,43,-1
 202.259765625 532.845703125 l 6,44,45
 213.731445312 547.4453125 213.731445312 547.4453125 233.415039062 574.018554688 c 4,46,47
 275.25390625 630.500976562 275.25390625 630.500976562 275.25390625 666.00390625 c 4,48,49
 275.25390625 684.1015625 275.25390625 684.1015625 267.724609375 690.794921875 c 4,50,51
 265.767578125 692.534179688 265.767578125 692.534179688 264.978515625 693.553710938 c 4,52,53
 261.145507812 698.5078125 261.145507812 698.5078125 249.333007812 698.5078125 c 4,0,1
EndSplineSet
Validated: 1
EndChar

StartChar: brokenbar
Encoding: 166 166 28
Width: 188
Flags: W
LayerCount: 2
Fore
SplineSet
-3 775.5 m 6,0,1
 -3 815.5 -3 815.5 33 830 c 4,2,3
 44 834.5 44 834.5 56 834.5 c 260,4,5
 78 834.5 78 834.5 110.5 798.5 c 4,6,7
 115 793.5 115 793.5 115 775.5 c 6,8,-1
 115 436.5 l 6,9,10
 115 411.5 115 411.5 97.896484375 394.500976562 c 4,11,12
 81 377.5 81 377.5 56 377.5 c 260,13,14
 31 377.5 31 377.5 14 394.5 c 132,-1,15
 -3 411.5 -3 411.5 -3 436.5 c 6,16,-1
 -3 775.5 l 6,0,1
0 261 m 2,17,18
 0 301 0 301 36 315.5 c 0,19,20
 47 320 47 320 59 320 c 256,21,22
 81 320 81 320 113.5 284 c 0,23,24
 118 279 118 279 118 261 c 2,25,-1
 118 -78 l 2,26,27
 118 -103 118 -103 100.89684334 -119.999148638 c 0,28,29
 84 -137 84 -137 59 -137 c 256,30,31
 34 -137 34 -137 17 -120 c 128,-1,32
 0 -103 0 -103 0 -78 c 2,33,-1
 0 261 l 2,17,18
EndSplineSet
Validated: 1
EndChar

StartChar: minus
Encoding: 264 8722 29
Width: 650
Flags: W
LayerCount: 2
Fore
SplineSet
0 364 m 260,0,1
 0 390 0 390 18 408 c 4,2,3
 37 427 37 427 62 427 c 6,4,-1
 404 427 l 5,5,-1
 536 427 l 6,6,7
 562 427 562 427 581 408 c 4,8,9
 599 390 599 390 599 364 c 260,10,11
 599 338 599 338 581 320 c 4,12,13
 561 302 561 302 536 302 c 6,14,-1
 404 302 l 5,15,-1
 62 302 l 6,16,17
 38 302 38 302 18 320 c 4,18,19
 0 338 0 338 0 364 c 260,0,1
EndSplineSet
Validated: 1
EndChar

StartChar: multiply
Encoding: 215 215 30
Width: 511
Flags: W
LayerCount: 2
Fore
SplineSet
220 224 m 2,0,-1
 102 106 l 2,1,2
 84 88 84 88 60 88 c 0,3,4
 35 88 35 88 17.5 105.5 c 128,-1,5
 0 123 0 123 0 148 c 256,6,7
 0 173 0 173 17 190 c 2,8,-1
 134 308 l 2,9,-1
 17 427 l 1,10,11
 0 446 0 446 0 470 c 0,12,13
 0 495 0 495 17 512 c 128,-1,14
 34 529 34 529 60 529 c 0,15,16
 83 529 83 529 102 512 c 1,17,-1
 220 394 l 2,18,-1
 339 512 l 2,19,20
 356 529 356 529 381 529 c 0,21,22
 408 529 408 529 424 511 c 128,-1,23
 440.055555556 493.055555556 440.055555556 493.055555556 440.055555556 470.651234568 c 0,24,25
 440.055555556 469.333333333 440.055555556 469.333333333 440 468 c 0,26,27
 439 443 439 443 423 427 c 2,28,-1
 306 308 l 2,29,-1
 423 191 l 1,30,31
 441 171 441 171 441 149 c 0,32,33
 441 125 441 125 428 112 c 0,34,35
 407 88 407 88 381 88 c 0,36,37
 357 88 357 88 339 106 c 2,38,-1
 220 224 l 2,0,-1
EndSplineSet
Validated: 1
EndChar

StartChar: exclam
Encoding: 33 33 31
Width: 250
Flags: W
LayerCount: 2
Fore
SplineSet
154 221 m 1,0,1
 151 195 151 195 133 179 c 256,2,3
 115 163 115 163 90 163 c 256,4,5
 51 163 51 163 33.5 198 c 0,6,7
 27.8108108108 209.378378378 27.8108108108 209.378378378 27 221 c 2,8,-1
 0 608 l 2,9,10
 -2.80554423155 648.212800652 -2.80554423155 648.212800652 23.5972278842 677.106400326 c 128,-1,11
 50 706 50 706 90 706 c 256,12,13
 130 706 130 706 156.354375766 677.159362369 c 0,14,15
 183 648 183 648 180 608 c 2,16,-1
 154 221 l 1,0,1
90 163 m 256,17,18
 124.727272727 163 124.727272727 163 152 138 c 256,19,20
 177 115.083333333 177 115.083333333 177 76.5 c 128,-1,21
 177 37.9166666667 177 37.9166666667 152 15 c 0,22,23
 127 -10 127 -10 90 -10 c 256,24,25
 50.9166666667 -10 50.9166666667 -10 28 15 c 0,26,27
 3 40 3 40 3 77 c 0,28,29
 3 132.058823529 3 132.058823529 56 157 c 0,30,31
 71 163 71 163 90 163 c 256,17,18
EndSplineSet
Validated: 37
EndChar

StartChar: quotedbl
Encoding: 34 34 32
Width: 319
Flags: W
LayerCount: 2
Fore
SplineSet
217 706 m 1,0,1
 245 703 245 703 261.043478261 683.836956522 c 128,-1,2
 277.086956522 664.673913043 277.086956522 664.673913043 277.086956522 643.866729679 c 0,3,4
 277.086956522 638.086956522 277.086956522 638.086956522 276 632 c 1,5,-1
 276 631 l 1,6,-1
 244 460 l 2,7,8
 241 443 241 443 227 430 c 0,9,10
 214 420 214 420 197 420 c 2,11,-1
 193 420 l 1,12,13
 174 422 174 422 161.5 435 c 128,-1,14
 149 448 149 448 149 467 c 2,15,-1
 148 641 l 2,16,17
 148 669 148 669 167.5 687.5 c 128,-1,18
 187 706 187 706 213 706 c 2,19,-1
 217 706 l 1,0,1
65 706 m 1,20,21
 93 703 93 703 109.043478261 683.836956522 c 128,-1,22
 125.086956522 664.673913043 125.086956522 664.673913043 125.086956522 643.866729679 c 0,23,24
 125.086956522 638.086956522 125.086956522 638.086956522 124 632 c 1,25,-1
 124 631 l 1,26,-1
 92 460 l 2,27,28
 89 443 89 443 75 430 c 0,29,30
 62 420 62 420 45 420 c 2,31,-1
 41 420 l 1,32,33
 22 422 22 422 9.5 435 c 128,-1,34
 -3 448 -3 448 -3 467 c 2,35,-1
 -4 641 l 2,36,37
 -4 669 -4 669 15.5 687.5 c 128,-1,38
 35 706 35 706 60 706 c 2,39,-1
 65 706 l 1,20,21
EndSplineSet
Validated: 1
EndChar

StartChar: numbersign
Encoding: 35 35 33
Width: 587
Flags: W
LayerCount: 2
Fore
SplineSet
454 540 m 2,0,-1
 471 540 l 2,1,2
 494 540 494 540 506.5 524.5 c 128,-1,3
 519 509 519 509 519 500 c 128,-1,4
 519 491 519 491 516 479.5 c 128,-1,5
 513 468 513 468 500 457.5 c 128,-1,6
 487 447 487 447 471 447 c 2,7,-1
 430 447 l 2,8,9
 424 447 424 447 420 439 c 1,10,-1
 387 273 l 2,11,12
 385 268 385 268 388.5 264.5 c 128,-1,13
 392 261 392 261 397 261 c 2,14,-1
 417 261 l 2,15,16
 442 261 442 261 453 245.5 c 128,-1,17
 464 230 464 230 464 221 c 128,-1,18
 464 212 464 212 462 201 c 128,-1,19
 460 190 460 190 448 179 c 128,-1,20
 436 168 436 168 417 168 c 2,21,-1
 374 168 l 2,22,23
 368 168 368 168 364 160 c 1,24,-1
 340 41 l 2,25,26
 337 24 337 24 322.5 12 c 128,-1,27
 308 0 308 0 286.5 0 c 128,-1,28
 265 0 265 0 252 16 c 128,-1,29
 239 32 239 32 239 43.5 c 128,-1,30
 239 55 239 55 240 61 c 2,31,-1
 250 108 l 1,32,-1
 259 156 l 2,33,34
 260 160 260 160 256.5 164 c 128,-1,35
 253 168 253 168 249 168 c 2,36,-1
 191 168 l 2,37,38
 185 168 185 168 181 160 c 1,39,-1
 157 41 l 1,40,41
 146 0 146 0 103 0 c 0,42,43
 85 0 85 0 70 16 c 128,-1,44
 55 32 55 32 55.5 43.5 c 128,-1,45
 56 55 56 55 57 61 c 2,46,-1
 76 156 l 2,47,48
 77 160 77 160 73.5 164 c 128,-1,49
 70 168 70 168 66 168 c 2,50,-1
 47 168 l 2,51,52
 24 168 24 168 11.8787878788 183.196969697 c 0,53,54
 -3.02226022821 201.879158761 -3.02226022821 201.879158761 0.5 221 c 128,-1,55
 4 240 4 240 17 250.5 c 128,-1,56
 30 261 30 261 47 261 c 2,57,-1
 89 261 l 2,58,59
 95 261 95 261 99 269 c 1,60,-1
 132 435 l 2,61,62
 133 439 133 439 129.5 443 c 128,-1,63
 126 447 126 447 122 447 c 2,64,-1
 100 447 l 2,65,66
 77 447 77 447 64.7027027027 462.371621622 c 128,-1,67
 52.4054054054 477.743243243 52.4054054054 477.743243243 52.4054054054 486.871621622 c 128,-1,68
 52.4054054054 496 52.4054054054 496 55.2027027027 507.5 c 128,-1,69
 58 519 58 519 71 529.5 c 128,-1,70
 84 540 84 540 100 540 c 2,71,-1
 146 540 l 2,72,73
 152 540 152 540 156 548 c 1,74,-1
 179 665 l 2,75,76
 182 682 182 682 196 694 c 128,-1,77
 210 706 210 706 230 706 c 128,-1,78
 250 706 250 706 269 687 c 0,79,80
 280.25 673.5 280.25 673.5 280.25 662.25 c 128,-1,81
 280.25 651 280.25 651 279 645 c 2,82,-1
 261 552 l 1,83,84
 259 547 259 547 263 543.5 c 128,-1,85
 267 540 267 540 270 540 c 2,86,-1
 329 540 l 2,87,88
 335 540 335 540 339 548 c 1,89,-1
 351 606 l 1,90,-1
 362 665 l 2,91,92
 366 681 366 681 379.5 693.5 c 128,-1,93
 393 706 393 706 414 706 c 128,-1,94
 435 706 435 706 452 687 c 256,95,96
 463.842105263 673.578947368 463.842105263 673.578947368 463.842105263 661.921052632 c 128,-1,97
 463.842105263 650.263157895 463.842105263 650.263157895 463 645 c 2,98,-1
 444 552 l 2,99,100
 442 547 442 547 446 543.5 c 128,-1,101
 450 540 450 540 454 540 c 2,0,-1
315 435 m 2,102,103
 316 439 316 439 312.5 443 c 128,-1,104
 309 447 309 447 305 447 c 2,105,-1
 247 447 l 2,106,107
 244 447 244 447 240 445 c 0,108,109
 239 443 239 443 238 442 c 128,-1,110
 237 441 237 441 237 439 c 2,111,-1
 204 273 l 2,112,113
 202 268 202 268 205.5 264.5 c 128,-1,114
 209 261 209 261 214 261 c 2,115,-1
 272 261 l 2,116,117
 275 261 275 261 279 263 c 0,118,119
 280 265 280 265 281 266 c 128,-1,120
 282 267 282 267 282 269 c 2,121,-1
 315 435 l 2,102,103
EndSplineSet
Validated: 33
EndChar

StartChar: dollar
Encoding: 36 36 34
Width: 523
Flags: W
LayerCount: 2
Fore
SplineSet
297 -6 m 1,0,1
 422 68 422 68 442.449152542 136.584745763 c 0,2,3
 458 188 458 188 450 240 c 0,4,5
 437 321 437 321 375 365 c 0,6,7
 326 400 326 400 215.623824451 434.592476489 c 0,8,9
 155 454 155 454 142 503 c 0,10,11
 136 526 136 526 146.5 547 c 128,-1,12
 157 568 157 568 176.5 580 c 128,-1,13
 196 592 196 592 220 593.5 c 128,-1,14
 244 595 244 595 265 581 c 0,15,16
 279 572 279 572 294 550 c 0,17,18
 305 533 305 533 319 525 c 256,19,20
 336 515 336 515 354 515 c 2,21,-1
 355 515 l 2,22,23
 397 515 397 515 416.5 552 c 0,24,25
 425 568 425 568 425 587 c 128,-1,26
 425 606 425 606 410.5 629.5 c 128,-1,27
 396 653 396 653 366.5 674.5 c 0,28,29
 340 694 340 694 298 708 c 1,30,-1
 298 753 l 2,31,32
 298 784 298 784 276 805 c 0,33,34
 255 826 255 826 224.5 826 c 128,-1,35
 194 826 194 826 173 805 c 0,36,37
 153 785 153 785 152 753 c 2,38,-1
 151 708 l 1,39,40
 65 679 65 679 27 613 c 256,41,42
 -14 542 -14 542 6 458 c 0,43,44
 29 361 29 361 157 313 c 0,45,46
 192 300 192 300 234.384615385 285.538461538 c 0,47,48
 277 271 277 271 298 241 c 256,49,50
 324 204 324 204 303.827380952 161.546626984 c 0,51,52
 283 120 283 120 236 115 c 256,53,54
 190 111 190 111 158 139 c 1,55,-1
 150.5 146.5 l 2,56,57
 147 150 147 150 145 155 c 0,58,59
 144 159 144 159 135 170 c 0,60,61
 112 198 112 198 110.5 199 c 0,62,63
 94 210 94 210 73 210 c 0,64,65
 35 210 35 210 14 178 c 256,66,67
 -7 146 -7 146 9 112 c 0,68,69
 49 28 49 28 152 -4 c 1,70,-1
 152 -44 l 2,71,72
 152 -74 152 -74 172.5 -95.5 c 128,-1,73
 193 -117 193 -117 224.5 -117 c 128,-1,74
 256 -117 256 -117 276.5 -95.5 c 128,-1,75
 297 -74 297 -74 297 -44 c 2,76,-1
 297 -6 l 1,0,1
152 -17.4 m 1025,77,-1
297 -16.5384615385 m 1025,78,-1
EndSplineSet
Validated: 41
EndChar

StartChar: percent
Encoding: 37 37 35
Width: 726
Flags: W
LayerCount: 2
Fore
SplineSet
456 677 m 1,0,1
 469 703 469 703 500 703 c 128,-1,2
 531 703 531 703 544 678 c 0,3,4
 551.75862069 665.586206897 551.75862069 665.586206897 551.75862069 652.36979786 c 0,5,6
 551.75862069 640.034482759 551.75862069 640.034482759 545 627 c 2,7,-1
 207 24 l 1,8,9
 190 -2 190 -2 162 -2 c 256,10,11
 134 -2 134 -2 118 23 c 256,12,13
 110.24137931 35.4137931034 110.24137931 35.4137931034 110.24137931 48.6302021403 c 0,14,15
 110.24137931 60.9655172414 110.24137931 60.9655172414 117 74 c 2,16,-1
 456 677 l 1,0,1
158 697 m 256,17,18
 220 697 220 697 271 652 c 1,19,20
 316 607 316 607 316 538 c 256,21,22
 316 499 316 499 308 482 c 0,23,24
 289 441 289 441 272 424 c 0,25,26
 227 379 227 379 158 379 c 256,27,28
 79 379 79 379 31 438 c 0,29,30
 16 458 16 458 8 487.5 c 128,-1,31
 0 517 0 517 0 538 c 256,32,33
 0 580 0 580 20 620 c 0,34,35
 55 679 55 679 115 692 c 0,36,37
 138 697 138 697 158 697 c 256,17,18
158 604 m 256,38,39
 117 604 117 604 104 565 c 0,40,41
 100 553 100 553 100 538 c 256,42,43
 100 491 100 491 134 476 c 0,44,45
 143 472 143 472 158 472 c 256,46,47
 185 472 185 472 200 489 c 0,48,49
 216 507 216 507 216 538 c 256,50,51
 216 565 216 565 200 586 c 0,52,53
 186 604 186 604 158 604 c 256,38,39
611 274 m 0,54,55
 656 223 656 223 656 160 c 256,56,57
 656 90 656 90 611 45 c 128,-1,58
 566 0 566 0 498 0 c 256,59,60
 409 0 409 0 361 77 c 0,61,62
 340 111 340 111 340 167 c 128,-1,63
 340 223 340 223 385 274 c 1,64,65
 436 319 436 319 498 319 c 0,66,67
 542 319 542 319 569 303 c 128,-1,68
 596 287 596 287 611 274 c 0,54,55
498 226 m 256,69,70
 458 226 458 226 444 187 c 0,71,72
 440 176 440 176 440 160 c 256,73,74
 440 113 440 113 474 98 c 0,75,76
 485 93 485 93 498 93 c 256,77,78
 524 93 524 93 540 111 c 128,-1,79
 556 129 556 129 556 160 c 256,80,81
 556 206 556 206 522 221 c 0,82,83
 511 226 511 226 498 226 c 256,69,70
EndSplineSet
Validated: 1
EndChar

StartChar: ampersand
Encoding: 38 38 36
Width: 609
Flags: W
LayerCount: 2
Fore
SplineSet
455 176 m 2,0,-1
 508 110 l 1,1,2
 520.644736842 92.4605263158 520.644736842 92.4605263158 520.644736842 74.5882963989 c 0,3,4
 520.644736842 48.6447368421 520.644736842 48.6447368421 494 22 c 1,5,6
 476.4 9.2 476.4 9.2 457.52 9.2 c 0,7,8
 452.8 9.2 452.8 9.2 448 10 c 0,9,10
 424 14 424 14 407 36 c 1,11,-1
 393 51 l 1,12,-1
 375 75 l 17,13,14
 300 0 300 0 207 0 c 0,15,16
 113 -0 113 -0 54 53 c 0,17,18
 23 81 23 81 15 105 c 0,19,20
 -3 160 -3 160 -3 189 c 0,21,22
 -2 275 -2 275 46 331 c 0,23,24
 77 367 77 367 129 410 c 1,25,26
 75 500 75 500 75 562 c 0,27,28
 75 600 75 600 84 619 c 0,29,30
 97 647 97 647 98 648 c 0,31,32
 151 702 151 702 160 706 c 0,33,34
 206 726 206 726 238 726 c 0,35,36
 328 726 328 726 374 680 c 1,37,38
 404 655 404 655 418 610 c 0,39,40
 424 591 424 591 424 564 c 0,41,42
 424 554 424 554 416 514 c 0,43,44
 411 489 411 489 400 474 c 0,45,46
 362 423 362 423 305 381 c 1,47,-1
 380 277 l 2,48,-1
 431 344 l 2,49,50
 445 362 445 362 469 367 c 0,51,52
 474.714285714 368.19047619 474.714285714 368.19047619 480.201814059 368.19047619 c 0,53,54
 497.761904762 368.19047619 497.761904762 368.19047619 513 356 c 0,55,56
 532 341 532 341 536 318 c 256,57,58
 536.888888889 312.888888889 536.888888889 312.888888889 536.888888889 307.975308642 c 0,59,60
 536.888888889 290.777777778 536.888888889 290.777777778 526 276 c 1,61,-1
 455 176 l 2,0,-1
241 471 m 1,62,63
 261 486 261 486 275 503 c 0,64,65
 302 536 302 536 302 561 c 0,66,67
 302 592 302 592 287 607 c 0,68,69
 271 623 271 623 256 623 c 0,70,71
 240 623 240 623 234 620 c 0,72,73
 224 615 224 615 224 615 c 0,74,75
 219 613 219 613 209 602 c 128,-1,76
 199 591 199 591 199 572 c 0,77,78
 199 554 199 554 202 545 c 128,-1,79
 205 536 205 536 206 532 c 0,80,81
 207 526 207 526 212 516 c 0,82,83
 220 500 220 500 223 495 c 0,84,85
 224 493 224 493 241 471 c 1,62,63
197 318 m 2,86,-1
 176 298 l 2,87,88
 156 278 156 278 153 272 c 0,89,90
 153 272 153 272 145 260 c 0,91,92
 140 252 140 252 135 240 c 0,93,94
 130 227 130 227 130 195 c 128,-1,95
 130 163 130 163 151 138 c 0,96,97
 171 114 171 114 215 114 c 0,98,99
 241 114 241 114 262 128 c 0,100,101
 276 138 276 138 281 142 c 0,102,103
 307 167 307 167 307 167 c 2,104,-1
 197 318 l 2,86,-1
EndSplineSet
Validated: 1
EndChar

StartChar: quotesingle
Encoding: 39 39 37
Width: 169
Flags: W
LayerCount: 2
Fore
SplineSet
65 706 m 1,0,1
 93 703 93 703 111 681.5 c 128,-1,2
 129 660 129 660 124 632 c 1,3,-1
 124 631 l 1,4,-1
 92 460 l 2,5,6
 89 443 89 443 75 430 c 0,7,8
 62 420 62 420 45 420 c 2,9,-1
 41 420 l 1,10,11
 22 422 22 422 9.5 435 c 128,-1,12
 -3 448 -3 448 -3 467 c 2,13,-1
 -4 641 l 2,14,15
 -4 669 -4 669 15.5 687.5 c 128,-1,16
 35 706 35 706 60 706 c 2,17,-1
 65 706 l 1,0,1
EndSplineSet
Validated: 33
EndChar

StartChar: parenleft
Encoding: 40 40 38
Width: 291
Flags: W
LayerCount: 2
Fore
SplineSet
186 20 m 256,0,1
 203.5 -20 203.5 -20 216.25 -45 c 128,-1,2
 229 -70 229 -70 214 -96 c 0,3,4
 205.818181818 -108.272727273 205.818181818 -108.272727273 169 -123 c 1,5,6
 139.642384106 -125.258278146 139.642384106 -125.258278146 122 -101 c 0,7,8
 0 61.6666666667 0 61.6666666667 0 296 c 256,9,10
 0 475.8 0 475.8 78 624 c 0,11,12
 106.769230769 673.692307692 106.769230769 673.692307692 118.384615385 689.346153846 c 0,13,14
 139.827284105 718.244055069 139.827284105 718.244055069 168.938958508 716.153673104 c 128,-1,15
 198.050632911 714.063291139 198.050632911 714.063291139 214 689 c 0,16,17
 227.75 661.5 227.75 661.5 212.875 632.75 c 128,-1,18
 198 604 198 604 179.410367171 558.993520518 c 0,19,20
 132 444.210526316 132 444.210526316 132 297 c 256,21,22
 132 143.428571429 132 143.428571429 186 20 c 256,0,1
EndSplineSet
Validated: 33
EndChar

StartChar: asterisk
Encoding: 42 42 40
Width: 493
Flags: W
LayerCount: 2
Fore
SplineSet
251 763.5 m 2,0,-1
 260 763.5 l 2,1,2
 280 763.5 280 763.5 295 749 c 128,-1,3
 310 734.5 310 734.5 310 712.5 c 2,4,-1
 310 625.5 l 2,5,6
 310 620.5 310 620.5 317 620.5 c 1,7,-1
 393 648.5 l 2,8,9
 413 655.5 413 655.5 432 646 c 128,-1,10
 451 636.5 451 636.5 458 616.5 c 256,11,12
 465 596.5 465 596.5 455.5 577.5 c 128,-1,13
 446 558.5 446 558.5 425 551.5 c 2,14,-1
 345 524.5 l 2,15,16
 343 524.5 343 524.5 342 521.5 c 128,-1,17
 341 518.5 341 518.5 343 517.5 c 2,18,-1
 397 450.5 l 2,19,20
 410 433.5 410 433.5 407 412.5 c 128,-1,21
 404 391.5 404 391.5 388 378.5 c 1,22,-1
 387 378.5 l 1,23,24
 372 363.5 372 363.5 349 367 c 128,-1,25
 326 370.5 326 370.5 314 386.5 c 2,26,-1
 260 458.5 l 2,27,28
 258 460.5 258 460.5 256 461 c 128,-1,29
 254 461.5 254 461.5 251 458.5 c 2,30,-1
 201 390.5 l 2,31,32
 188 372.5 188 372.5 168 369.5 c 128,-1,33
 148 366.5 148 366.5 129 379.5 c 1,34,-1
 129 380.5 l 1,35,-1
 128 380.5 l 1,36,37
 110 396.5 110 396.5 108 416.5 c 128,-1,38
 106 436.5 106 436.5 119 452.5 c 2,39,-1
 171 517.5 l 2,40,41
 172 518.5 172 518.5 172 521.5 c 128,-1,42
 172 524.5 172 524.5 170 524.5 c 2,43,-1
 88 551.5 l 2,44,45
 57 562.5 57 562.5 53 596 c 0,46,47
 49 630.5 49 630.5 82 646.5 c 0,48,49
 102 654.5 102 654.5 122 647.5 c 2,50,-1
 195 620.5 l 1,51,52
 201 620.5 201 620.5 201 625.5 c 2,53,-1
 201 712.5 l 2,54,55
 201 734.5 201 734.5 216 749 c 128,-1,56
 231 763.5 231 763.5 251 763.5 c 2,0,-1
EndSplineSet
Validated: 33
EndChar

StartChar: plus
Encoding: 43 43 41
Width: 550
Flags: W
LayerCount: 2
Fore
SplineSet
301 248 m 2,0,-1
 301 128 l 2,1,2
 301 103 301 103 283.888399356 85.8891271775 c 0,3,4
 267 69 267 69 241 69 c 2,5,-1
 239 69 l 2,6,7
 214 69 214 69 196.400826446 86.5991735537 c 128,-1,8
 179 104 179 104 179 128 c 2,9,-1
 180 248 l 1,10,-1
 60 249 l 2,11,12
 34.7914251893 249.210071457 34.7914251893 249.210071457 17.5012367015 266.624327145 c 0,13,14
 0 284 0 284 0 308.5 c 0,15,16
 0 331 0 331 18 351 c 0,17,18
 34 369 34 369 60 369 c 2,19,-1
 179 368 l 1,20,-1
 179 489 l 2,21,22
 179 513 179 513 197.107134316 530.999043444 c 0,23,24
 215 549 215 549 239 549 c 2,25,-1
 241 549 l 2,26,27
 266 549 266 549 283.5 531.5 c 128,-1,28
 301 514 301 514 301 489 c 2,29,-1
 301 370 l 2,30,-1
 421 369 l 2,31,32
 445.200432207 368.798329732 445.200432207 368.798329732 462.499043444 351.392865684 c 0,33,34
 480 334 480 334 480 308.5 c 128,-1,35
 480 283 480 283 463.114678899 266.114678899 c 0,36,37
 446 249 446 249 421 249 c 2,38,-1
 301 248 l 2,0,-1
EndSplineSet
Validated: 1
EndChar

StartChar: comma
Encoding: 44 44 42
Width: 248
Flags: W
LayerCount: 2
Fore
SplineSet
152 136 m 1,0,1
 178 112.166666667 178 112.166666667 178 74.5119047619 c 128,-1,2
 178 36.8571428571 178 36.8571428571 152.5 -10.5 c 0,3,4
 149 -17 149 -17 146 -24 c 2,5,-1
 103 -102 l 1,6,7
 89.6363636364 -123 89.6363636364 -123 66.8181818182 -123 c 128,-1,8
 44 -123 44 -123 32.5 -103.9 c 128,-1,9
 21 -84.8 21 -84.8 30 -65 c 2,10,-1
 54 -15 l 1,11,12
 59.7894736842 -6.31578947368 59.7894736842 -6.31578947368 50.3947368421 -2.15789473684 c 0,13,14
 32.4835589942 5.76918117344 32.4835589942 5.76918117344 25 14.5 c 0,15,16
 0 43.6666666667 0 43.6666666667 0 69.3333333333 c 0,17,18
 0 114.717971141 0 114.717971141 26.0549787636 138.858985571 c 128,-1,19
 52.1099575271 163 52.1099575271 163 90.4835501921 163 c 128,-1,20
 128.857142857 163 128.857142857 163 152 136 c 1,0,1
EndSplineSet
Validated: 33
EndChar

StartChar: hyphen
Encoding: 45 45 43
Width: 399
Flags: W
LayerCount: 2
Fore
SplineSet
0 364 m 256,0,1
 0 390 0 390 18.5 408.5 c 128,-1,2
 37 427 37 427 62 427 c 2,3,-1
 266 427 l 2,4,5
 292 427 292 427 310.5 408.5 c 128,-1,6
 329 390 329 390 329 364 c 256,7,8
 329 338 329 338 311 320 c 0,9,10
 291 302 291 302 266 302 c 2,11,-1
 62 302 l 2,12,13
 38 302 38 302 18 320 c 0,14,15
 0 338 0 338 0 364 c 256,0,1
EndSplineSet
Validated: 1
EndChar

StartChar: period
Encoding: 46 46 44
Width: 245
Flags: W
LayerCount: 2
Fore
SplineSet
150 15 m 0,0,1
 137 4 137 4 122 -4 c 0,2,3
 105 -10 105 -10 86.5 -10 c 128,-1,4
 68 -10 68 -10 56.5 -5 c 0,5,6
 0 19.5652173913 0 19.5652173913 0 75.0326086957 c 0,7,8
 0 130.5 0 130.5 53 157 c 0,9,10
 68 163 68 163 86.5 163 c 128,-1,11
 105 163 105 163 122 157 c 0,12,13
 175 128.733333333 175 128.733333333 175 84.3666666667 c 128,-1,14
 175 40 175 40 150 15 c 0,0,1
EndSplineSet
Validated: 1
EndChar

StartChar: slash
Encoding: 47 47 45
Width: 449
Flags: W
LayerCount: 2
Fore
SplineSet
259 668 m 6,0,1
 266 685 266 685 282 696 c 4,2,3
 299 706 299 706 316 706 c 260,4,5
 351.153846154 706 351.153846154 706 369.645550528 677.147058824 c 132,-1,6
 388.137254902 648.294117647 388.137254902 648.294117647 374 618 c 6,7,-1
 121 38 l 6,8,9
 110.442622951 12.3606557377 110.442622951 12.3606557377 87 6.5 c 4,10,11
 81 5 81 5 75.5 3 c 132,-1,12
 70 1 70 1 58 0.5 c 132,-1,13
 46 0 46 0 32 8 c 132,-1,14
 18 16 18 16 10 28.5 c 4,15,16
 -8.43155452436 57.2993039443 -8.43155452436 57.2993039443 5 88 c 6,17,-1
 259 668 l 6,0,1
EndSplineSet
Validated: 33
EndChar

StartChar: zero
Encoding: 48 48 46
Width: 503
Flags: W
LayerCount: 2
Fore
SplineSet
416.5 582.5 m 0,0,1
 431 544 431 544 431 499 c 2,2,-1
 431 209 l 2,3,4
 431 117 431 117 373 59 c 0,5,6
 345 31 345 31 306.982421875 16.1474609375 c 0,7,8
 265 0 265 0 215 0 c 256,9,10
 151 0 151 0 100 27 c 0,11,12
 52 52 52 52 25.8232421875 98.587890625 c 0,13,14
 -2 146 -2 146 -2 209 c 2,15,-1
 -2 499 l 2,16,17
 -2 560 -2 560 24 606 c 0,18,19
 41 636 41 636 56 649 c 256,20,21
 92 681 92 681 115.44140625 689.147460938 c 0,22,23
 172 708 172 708 215 708 c 256,24,25
 280 708 280 708 336.892578125 676.600585938 c 0,26,27
 393 646 393 646 416.5 582.5 c 0,0,1
139 493 m 2,28,-1
 139 215 l 2,29,30
 139 172 139 172 159 152 c 1,31,32
 177 128 177 128 215 128 c 256,33,34
 272 128 272 128 285 179 c 0,35,36
 290 198 290 198 290 215 c 2,37,-1
 290 493 l 2,38,39
 290 556 290 556 247 574 c 0,40,41
 233 580 233 580 215 580 c 256,42,43
 179 580 179 580 159.135742188 556.163085938 c 0,44,45
 139 533 139 533 139 493 c 2,28,-1
EndSplineSet
Validated: 1
EndChar

StartChar: one
Encoding: 49 49 47
Width: 320
Flags: W
LayerCount: 2
Fore
SplineSet
90 576 m 2,0,-1
 65 576 l 2,1,2
 38 576 38 576 19 595 c 256,3,4
 0 614 0 614 0 641 c 256,5,6
 0 668 0 668 19 687 c 256,7,8
 38 706 38 706 65 706 c 2,9,-1
 170 706 l 2,10,11
 211 706 211 706 230 666 c 0,12,13
 235 655 235 655 235 641 c 2,14,-1
 235 65 l 2,15,16
 235 38 235 38 216 19 c 128,-1,17
 197 0 197 0 170 0 c 2,18,-1
 154 0 l 2,19,20
 125 0 125 0 108 19 c 0,21,22
 90 39 90 39 90 65 c 2,23,-1
 90 576 l 2,0,-1
EndSplineSet
Validated: 1
EndChar

StartChar: two
Encoding: 50 50 48
Width: 511
Flags: W
LayerCount: 2
Fore
SplineSet
164 123 m 1,0,-1
 360.5 124 l 2,1,2
 405 124 405 124 419 86 c 0,3,4
 425 69 425 69 424.5 55 c 0,5,6
 424 35 424 35 406 16.5 c 0,7,8
 388 -1 388 -1 361.5 -1 c 2,9,-1
 150 -1 l 2,10,11
 24 -1 24 -1 23 86 c 256,12,13
 22 137 22 137 77 203 c 6,14,-1
 167.5 312 l 2,15,16
 169 314 169 314 209.5 367.5 c 0,17,18
 271 450 271 450 270.5 506 c 0,19,20
 270 542 270 542 251.5 559 c 1,21,-1
 251.5 560 l 1,22,-1
 250.5 560 l 1,23,24
 238 576 238 576 209.27734375 576 c 0,25,26
 162 576 162 576 133.059570312 537.24609375 c 0,27,28
 114 512 114 512 80.091796875 507.845703125 c 0,29,30
 46 504 46 504 24 521.5 c 128,-1,31
 2 539 2 539 0 560 c 0,32,33
 -4 608 -4 608 45.5 651 c 0,34,35
 84 684 84 684 127.4765625 695.244140625 c 0,36,37
 172 706 172 706 195.5 706 c 0,38,39
 300 706 300 706 355.690429688 648.360351562 c 0,40,41
 411 592 411 592 411.5 506 c 0,42,43
 412 457 412 457 394.5 420 c 256,44,45
 370 367 370 367 359.56640625 351.745117188 c 0,46,47
 342 326 342 326 340 324.5 c 0,48,49
 252 224 252 224 164 123 c 1,0,-1
EndSplineSet
Validated: 524321
EndChar

StartChar: three
Encoding: 51 51 49
Width: 536
Flags: W
LayerCount: 2
Fore
SplineSet
264 576 m 1,0,-1
 162 435 l 1,1,2
 134 391 134 391 144 364 c 0,3,4
 155 336 155 336 181 324 c 2,5,-1
 194 318 l 1,6,-1
 241 300 l 2,7,8
 265 291 265 291 279 280 c 0,9,10
 299 265 299 265 308 252 c 0,11,12
 332 218 332 218 311 173 c 0,13,14
 298 144 298 144 265 134 c 0,15,16
 205 116 205 116 166 153 c 1,17,-1
 158.5 160.5 l 2,18,19
 149 170 149 170 147 176 c 128,-1,20
 145 182 145 182 143 184 c 0,21,22
 110 217 110 217 98 221.5 c 0,23,24
 91 224 91 224 76 224 c 128,-1,25
 61 224 61 224 44.8330078125 213.309570312 c 0,26,27
 29 203 29 203 20.8330078125 190.309570312 c 0,28,29
 13 178 13 178 11 160.5 c 128,-1,30
 9 143 9 143 14.5 131.5 c 128,-1,31
 20 120 20 120 26.25 106.25 c 0,32,33
 33 92 33 92 43.75 81.25 c 0,34,35
 55 70 55 70 62 62.5 c 128,-1,36
 69 55 69 55 80 48 c 0,37,38
 112 28 112 28 130 20 c 0,39,40
 186 -4 186 -4 242 0 c 256,41,42
 338 7 338 7 392.112304688 58.185546875 c 0,43,44
 446 110 446 110 456 172 c 0,45,46
 474 283 474 283 420.5 343 c 0,47,48
 396 370 396 370 385.1171875 377.587890625 c 0,49,-1
 368 389 l 2,50,-1
 314 418 l 1,51,-1
 370 503 l 2,52,53
 414 570 414 570 414 627 c 0,54,55
 414 674 414 674 379 691 c 4,56,57
 345 708 345 708 287 708 c 2,58,-1
 79 708 l 2,59,60
 50 708 50 708 29 695 c 0,61,62
 0 678 0 678 0 641 c 256,63,64
 0 614 0 614 19 595 c 128,-1,65
 38 576 38 576 65 576 c 2,66,-1
 264 576 l 1,0,-1
EndSplineSet
Validated: 524329
EndChar

StartChar: four
Encoding: 52 52 50
Width: 577
Flags: W
LayerCount: 2
Fore
SplineSet
290 129 m 1,0,-1
 290 71 l 1,1,2
 290 40 290 40 311 21 c 0,3,4
 334 0 334 0 361 0 c 256,5,6
 390 0 390 0 411 21 c 0,7,8
 431 41 431 41 431 71 c 2,9,-1
 431 129 l 2,10,-1
 445 129 l 2,11,12
 472 129 472 129 489.5 147.5 c 128,-1,13
 507 166 507 166 507 191.5 c 0,14,15
 507 219 507 219 489 237 c 128,-1,16
 471 255 471 255 445 255 c 2,17,-1
 431 255 l 2,18,-1
 431 325 l 2,19,20
 431 357 431 357 411 375 c 0,21,22
 388 396 388 396 361 396 c 256,23,24
 332 396 332 396 311 375 c 128,-1,25
 290 354 290 354 290 325 c 2,26,-1
 290 255 l 2,27,-1
 163 255 l 2,28,-1
 339 610 l 2,29,30
 354 641 354 641 335 674 c 0,31,32
 317 706 317 706 277.5 706 c 0,33,34
 258 706 258 706 242 695 c 0,35,36
 225 684 225 684 217 667 c 2,37,-1
 34 293 l 2,38,39
 -6.0677466863 211.112911144 -6.0677466863 211.112911144 18 171 c 0,40,41
 44 128 44 128 89 128 c 2,42,-1
 290 129 l 1,0,-1
EndSplineSet
Validated: 41
EndChar

StartChar: five
Encoding: 53 53 51
Width: 518
Flags: W
LayerCount: 2
Fore
SplineSet
150 576 m 2,0,-1
 150 462 l 2,1,-1
 218 462 l 2,2,3
 307 462 307 462 361 420.5 c 128,-1,4
 415 379 415 379 431.306122449 329.081632653 c 0,5,6
 448 279 448 279 448 235 c 2,7,-1
 448 214 l 2,8,9
 448 144 448 144 415.604347826 87.1600414079 c 0,10,11
 383 30 383 30 313 2.5 c 0,12,13
 271 -14 271 -14 235.5 -14 c 0,14,15
 88 -14 88 -14 22 84 c 0,16,17
 -16 140 -16 140 13 180 c 0,18,19
 36 212 36 212 75 210 c 0,20,21
 92 209 92 209 108 197.5 c 128,-1,22
 124 186 124 186 130 174 c 128,-1,23
 136 162 136 162 139 158 c 128,-1,24
 142 154 142 154 144.5 150.5 c 0,25,26
 168 118 168 118 213.75 118 c 0,27,28
 262 118 262 118 281 145 c 0,29,30
 294 163 294 163 298.911764706 181.558823529 c 0,31,32
 303 196 303 196 303 220 c 2,33,-1
 303 229 l 2,34,35
 303 273 303 273 281 303 c 0,36,37
 260 331 260 331 218 331 c 2,38,-1
 70 331 l 2,39,40
 43 331 43 331 24 350 c 256,41,42
 5 369 5 369 5 396 c 2,43,-1
 5 641 l 2,44,45
 5 668 5 668 24 687 c 256,46,47
 43 706 43 706 70 706 c 2,48,-1
 347 706 l 2,49,50
 375 706 375 706 394 687 c 0,51,52
 412 669 412 669 412 640.5 c 0,53,54
 412 614 412 614 393 595 c 128,-1,55
 374 576 374 576 346 576 c 2,56,-1
 150 576 l 2,0,-1
EndSplineSet
Validated: 33
EndChar

StartChar: six
Encoding: 54 54 52
Width: 517
Flags: W
LayerCount: 2
Fore
SplineSet
204 452 m 1,0,1
 227 469 227 469 259.265625 468.713867188 c 0,2,3
 311 468 311 468 356 441 c 0,4,5
 445 386 445 386 445 272 c 2,6,-1
 445 211 l 2,7,8
 445 120 445 120 385 60 c 0,9,10
 338 13 338 13 254 2 c 0,11,12
 239 0 239 0 222 0 c 256,13,14
 160 0 160 0 103 27 c 0,15,16
 82 37 82 37 58 60 c 0,17,18
 -2 116 -2 116 -2 211 c 2,19,-1
 -2 252 l 2,20,21
 -2 273 -2 273 0 291 c 256,22,23
 1 300 1 300 1.5 307.5 c 128,-1,24
 2 315 2 315 4 322.5 c 128,-1,25
 6 330 6 330 8 337.5 c 128,-1,26
 10 345 10 345 13 353 c 256,27,28
 16 361 16 361 18.5 370 c 128,-1,29
 21 379 21 379 26 387 c 1,30,-1
 26 388 l 1,31,-1
 185 671 l 2,32,33
 194 687 194 687 210 696 c 0,34,35
 227 706 227 706 244 706 c 0,36,37
 284 706 284 706 300 674 c 0,38,39
 309 655 309 655 309.257142857 638.323265306 c 0,40,41
 309 622 309 622 301 609 c 2,42,-1
 204 452 l 1,0,1
304 266 m 2,43,44
 304 305 304 305 288 324.5 c 128,-1,45
 272 344 272 344 257 349.5 c 128,-1,46
 242 355 242 355 222 355 c 0,47,48
 161 355 161 355 145 302 c 0,49,50
 139 282 139 282 139 266 c 2,51,-1
 139 217 l 2,52,53
 139 177 139 177 160 152 c 256,54,55
 180 128 180 128 221 128 c 0,56,57
 263 128 263 128 284 153 c 0,58,59
 304 178 304 178 304 217 c 2,60,-1
 304 266 l 2,43,44
EndSplineSet
Validated: 524321
EndChar

StartChar: seven
Encoding: 55 55 53
Width: 497
Flags: W
LayerCount: 2
Fore
SplineSet
283 580 m 2,0,-1
 77 96 l 1,1,2
 65 60 65 60 84.6345108696 29.9347826087 c 0,3,4
 104 0 104 0 143 0 c 0,5,6
 162 0 162 0 179.142593305 11.596460177 c 128,-1,7
 196.28518661 23.192920354 196.28518661 23.192920354 204 42 c 2,8,-1
 421 571 l 1,9,10
 445 637 445 637 410 680 c 0,11,12
 387 708 387 708 334 708 c 2,13,-1
 70 708 l 2,14,15
 40 708 40 708 24 694 c 4,16,17
 1 673 1 673 0.5 645 c 128,-1,18
 0 617 0 617 18.5 598.5 c 128,-1,19
 37 580 37 580 63 580 c 2,20,-1
 283 580 l 2,0,-1
EndSplineSet
Validated: 41
EndChar

StartChar: eight
Encoding: 56 56 54
Width: 515
Flags: W
LayerCount: 2
Fore
SplineSet
68 376 m 1,0,1
 54 373 54 373 30 349 c 0,2,3
 -3.5 316.485294118 -3.5 316.485294118 -3.5 244 c 2,4,-1
 -3.5 201 l 2,5,6
 -3.98177422354 142.223544728 -3.98177422354 142.223544728 23.5 98 c 0,7,8
 67 28 67 28 162 5 c 0,9,10
 183 0 183 0 228.5 0 c 128,-1,11
 274 0 274 0 316 13.6216216216 c 0,12,13
 374 33 374 33 404 80 c 0,14,15
 441.884128731 136.466373157 441.884128731 136.466373157 441.5 201 c 2,16,-1
 441.5 244 l 2,17,18
 441.5 280.405030694 441.5 280.405030694 434 309 c 0,19,20
 429 328 429 328 408 352 c 0,21,22
 406 353 406 353 376 375 c 1,23,24
 385 384 385 384 405.382022472 414.775280899 c 0,25,26
 417 432 417 432 426 469 c 0,27,28
 429 481 429 481 429 508 c 2,29,-1
 429 529 l 2,30,31
 429 576 429 576 404.444335938 615 c 0,32,33
 346 708 346 708 218 708 c 0,34,35
 197 708 197 708 166.5 701.5 c 0,36,37
 135 695 135 695 116.77734375 685.166992188 c 0,38,39
 16 632 16 632 16 529 c 2,40,-1
 16 508 l 2,41,42
 16 463 16 463 37 421 c 0,43,44
 50 395 50 395 68 376 c 1,0,1
288 499 m 2,45,46
 288 483 288 483 284 471 c 0,47,48
 269 429 269 429 223 429 c 0,49,50
 194 429 194 429 174 449 c 0,51,52
 157 466 157 466 157 499 c 2,53,-1
 157 523 l 2,54,55
 157 533 157 533 160.5 543 c 0,56,57
 175 584 175 584 222 584 c 0,58,59
 238 584 238 584 250.5 579 c 0,60,61
 288 563 288 563 288 523 c 2,62,-1
 288 499 l 2,45,46
137.5 245 m 2,63,64
 137.5 281.487804878 137.5 281.487804878 158.5 303 c 0,65,66
 181 325 181 325 219.5 325 c 256,67,68
 259 325 259 325 279.5 303 c 0,69,70
 300.5 280.463414634 300.5 280.463414634 300.5 245 c 2,71,-1
 300.5 207 l 2,72,73
 300 188 300 188 295.5 175 c 0,74,75
 278 128 278 128 219 128 c 0,76,77
 181 128 181 128 154 154.5 c 0,78,79
 137.5 171.515625 137.5 171.515625 137.5 207 c 2,80,-1
 137.5 245 l 2,63,64
EndSplineSet
Validated: 41
EndChar

StartChar: nine
Encoding: 57 57 55
Width: 517
Flags: W
LayerCount: 2
Fore
SplineSet
251 256 m 1,0,1
 226 237 226 237 185.734375 237.286132812 c 0,2,3
 133 238 133 238 89 265 c 0,4,5
 0 320 0 320 0 434 c 2,6,-1
 0 495 l 2,7,8
 0 586 0 586 60 646 c 0,9,10
 107 693 107 693 191 704 c 0,11,12
 206 706 206 706 223 706 c 256,13,14
 285 706 285 706 342 679 c 0,15,16
 363 669 363 669 387 646 c 0,17,18
 447 590 447 590 447 495 c 2,19,-1
 447 454 l 2,20,21
 447 433 447 433 445 415 c 256,22,23
 444 406 444 406 443.5 398.5 c 128,-1,24
 443 391 443 391 441 383.5 c 128,-1,25
 439 376 439 376 437 368.5 c 128,-1,26
 435 361 435 361 432 353 c 256,27,28
 429 345 429 345 426.5 336 c 128,-1,29
 424 327 424 327 419 319 c 1,30,-1
 419 318 l 1,31,-1
 267 35 l 2,32,33
 258.582278481 19.3275316456 258.582278481 19.3275316456 242 10 c 0,34,35
 225 0 225 0 208 0 c 0,36,37
 168 0 168 0 152 32 c 0,38,39
 143 51 143 51 142.743164062 67.6767578125 c 0,40,41
 143.00451867 84.2871846856 143.00451867 84.2871846856 151 97 c 2,42,-1
 251 256 l 1,0,1
141 440 m 2,43,44
 141 401 141 401 157 381.5 c 128,-1,45
 173 362 173 362 188 356.5 c 128,-1,46
 203 351 203 351 223 351 c 0,47,48
 284 351 284 351 300 404 c 0,49,50
 306 424 306 424 306 440 c 2,51,-1
 306 489 l 2,52,53
 306 529 306 529 285 554 c 256,54,55
 265 578 265 578 224 578 c 0,56,57
 182 578 182 578 161 553 c 0,58,59
 141 528 141 528 141 489 c 2,60,-1
 141 440 l 2,43,44
EndSplineSet
Validated: 524321
EndChar

StartChar: colon
Encoding: 58 58 56
Width: 246
Flags: W
LayerCount: 2
Fore
SplineSet
89 349 m 256,0,1
 59.6 349 59.6 349 46.3 358.5 c 128,-1,2
 33 368 33 368 23.5 377 c 128,-1,3
 14 386 14 386 7.5 402.5 c 128,-1,4
 1 419 1 419 1 431.5 c 0,5,6
 1 467.833333333 1 467.833333333 26 497 c 1,7,8
 52.9230769231 522 52.9230769231 522 89 522 c 0,9,10
 104.333333333 522 104.333333333 522 122.166666667 515 c 128,-1,11
 140 508 140 508 148.5 499 c 0,12,13
 176 469.882352941 176 469.882352941 176 434.441176471 c 0,14,15
 176 399 176 399 151 374 c 128,-1,16
 126 349 126 349 89 349 c 256,0,1
150 15 m 0,17,18
 137 4 137 4 122 -4 c 0,19,20
 105 -10 105 -10 86.5 -10 c 128,-1,21
 68 -10 68 -10 56.5 -5 c 0,22,23
 0 19.5652173913 0 19.5652173913 0 75.0326086957 c 0,24,25
 0 130.5 0 130.5 53 157 c 0,26,27
 68 163 68 163 86.5 163 c 128,-1,28
 105 163 105 163 122 157 c 0,29,30
 175 128.733333333 175 128.733333333 175 84.3666666667 c 128,-1,31
 175 40 175 40 150 15 c 0,17,18
EndSplineSet
Validated: 1
EndChar

StartChar: semicolon
Encoding: 59 59 57
Width: 248
Flags: W
LayerCount: 2
Fore
SplineSet
171 402 m 0,0,1
 157.855491329 366.947976879 157.855491329 366.947976879 120.5 353.5 c 0,2,3
 108 349 108 349 89.5 349 c 0,4,5
 53 349 53 349 28 374 c 128,-1,6
 3 399 3 399 3 432.15 c 128,-1,7
 3 465.3 3 465.3 17 483.5 c 0,8,9
 46.6153846154 522 46.6153846154 522 85.2243589744 522 c 128,-1,10
 123.833333333 522 123.833333333 522 153 497 c 1,11,12
 178 467.833333333 178 467.833333333 178 435 c 0,13,14
 178 419 178 419 171 402 c 0,0,1
152 136 m 1,15,16
 178 112.166666667 178 112.166666667 178 74.5119047619 c 128,-1,17
 178 36.8571428571 178 36.8571428571 152.5 -10.5 c 0,18,19
 149 -17 149 -17 146 -24 c 2,20,-1
 103 -102 l 1,21,22
 89.6363636364 -123 89.6363636364 -123 66.8181818182 -123 c 128,-1,23
 44 -123 44 -123 32.5 -103.9 c 128,-1,24
 21 -84.8 21 -84.8 30 -65 c 2,25,-1
 54 -15 l 1,26,27
 59.7894736842 -6.31578947368 59.7894736842 -6.31578947368 50.3947368421 -2.15789473684 c 0,28,29
 32.4835589942 5.76918117344 32.4835589942 5.76918117344 25 14.5 c 0,30,31
 0 43.6666666667 0 43.6666666667 0 69.3333333333 c 0,32,33
 0 114.717971141 0 114.717971141 26.0549787636 138.858985571 c 128,-1,34
 52.1099575271 163 52.1099575271 163 90.4835501921 163 c 128,-1,35
 128.857142857 163 128.857142857 163 152 136 c 1,15,16
EndSplineSet
Validated: 33
EndChar

StartChar: less
Encoding: 60 60 58
Width: 514
Flags: W
LayerCount: 2
Fore
SplineSet
38 376.5 m 2,0,1
 38 415.3828125 38 415.3828125 76 435.5 c 1,2,-1
 398 583.5 l 2,3,4
 422.240234375 595.620117188 422.240234375 595.620117188 446 580.5 c 256,5,6
 470 565.227539062 470 565.227539062 470 537.5 c 256,7,8
 470 523.5 470 523.5 461 510 c 128,-1,9
 452 496.5 452 496.5 440 491.5 c 2,10,-1
 189 376.5 l 2,11,12
 183.5 373.63671875 183.5 373.63671875 183 367.5 c 256,13,14
 183 361.5 183 361.5 189 358.5 c 2,15,-1
 440 242.5 l 1,16,17
 470 226.345703125 470 226.345703125 470 197.059570312 c 128,-1,18
 470 167.772460938 470 167.772460938 446.5 152.63671875 c 128,-1,19
 423 137.5 423 137.5 397 149.5 c 2,20,-1
 76 298.5 l 2,21,22
 60 305.5 60 305.5 48 322.5 c 0,23,24
 38 339.5 38 339.5 38 357.5 c 2,25,-1
 38 376.5 l 2,0,1
EndSplineSet
Validated: 33
EndChar

StartChar: equal
Encoding: 61 61 59
Width: 550
Flags: W
LayerCount: 2
Fore
SplineSet
60 151 m 2,0,1
 35 151 35 151 17.5 168.5 c 128,-1,2
 0 186 0 186 0 210.5 c 128,-1,3
 0 235 0 235 18 253 c 0,4,5
 34 271 34 271 60 271 c 2,6,-1
 421 271 l 2,7,8
 445 271 445 271 462.5 253.5 c 128,-1,9
 480 236 480 236 480 210.5 c 128,-1,10
 480 185 480 185 463 168 c 0,11,12
 446 151 446 151 421 151 c 2,13,-1
 60 151 l 2,0,1
60 347 m 2,14,15
 35 347 35 347 17.5 364.5 c 128,-1,16
 0 382 0 382 0 406.5 c 128,-1,17
 0 431 0 431 18 449 c 0,18,19
 34 467 34 467 60 467 c 2,20,-1
 421 467 l 2,21,22
 445 467 445 467 462.5 449.5 c 128,-1,23
 480 432 480 432 480 406.5 c 128,-1,24
 480 381 480 381 463 364 c 0,25,26
 446 347 446 347 421 347 c 2,27,-1
 60 347 l 2,14,15
EndSplineSet
Validated: 1
EndChar

StartChar: question
Encoding: 63 63 61
Width: 519
Flags: W
LayerCount: 2
Fore
SplineSet
219.88176396 162.099880335 m 1,0,1
 182.057716561 163.96096817 182.057716561 163.96096817 164.5 200.5 c 0,2,3
 159.117737003 211.75382263 159.117737003 211.75382263 159 226 c 2,4,-1
 158 347 l 2,5,6
 157.84495549 365.760385757 157.84495549 365.760385757 169 383 c 0,7,8
 181.092783505 400.131443299 181.092783505 400.131443299 198 407 c 2,9,-1
 230 420 l 2,10,11
 277 439 277 439 291.732758621 461.293103448 c 0,12,13
 320 504 320 504 300.719914739 544.539226261 c 0,14,15
 281 585 281 585 233 590 c 0,16,17
 161 597 161 597 129.5 530.5 c 0,18,19
 123 517 123 517 105.5 506 c 128,-1,20
 88 495 88 495 68.5 495.5 c 0,21,22
 30 497 30 497 11 529 c 0,23,24
 -8 562 -8 562 4.37924528302 589.743396226 c 0,25,26
 18 619 18 619 32 637 c 0,27,28
 85 700 85 700 173 716 c 0,29,30
 230 726 230 726 287 711 c 0,31,32
 373 688 373 688 415.5 621.5 c 0,33,34
 461 551 461 551 447 466 c 0,35,36
 437 406 437 406 404.448017554 371.488044794 c 0,37,38
 373.428444689 338.456237819 373.428444689 338.456237819 351.65625 326.8125 c 2,39,-1
 309 304 l 2,40,41
 307 303 307 303 305 301 c 0,42,43
 304 299 304 299 304 296 c 2,44,-1
 305 226 l 2,45,46
 305.38028169 199.38028169 305.38028169 199.38028169 286 180 c 0,47,48
 269.982829686 163.982829686 269.982829686 163.982829686 246.047457344 162.218423313 c 1,49,50
 273.549462219 158.579659318 273.549462219 158.579659318 296 138 c 0,51,52
 321 115.083333333 321 115.083333333 321 76.5 c 128,-1,53
 321 37.9166666667 321 37.9166666667 296 15 c 0,54,55
 271 -10 271 -10 234 -10 c 0,56,57
 194.916666667 -10 194.916666667 -10 172 15 c 0,58,59
 147 37.9166666667 147 37.9166666667 147 77 c 0,60,61
 147 132.058823529 147 132.058823529 200 157 c 0,62,63
 209.190138474 160.676055389 209.190138474 160.676055389 219.88176396 162.099880335 c 1,0,1
EndSplineSet
Validated: 33
EndChar

StartChar: at
Encoding: 64 64 62
Width: 846
Flags: W
LayerCount: 2
Fore
SplineSet
610.588867188 114.998046875 m 128,-1,1
 631.23828125 114.998046875 631.23828125 114.998046875 644.418945312 126.53125 c 0,2,3
 644.577148438 126.669921875 644.577148438 126.669921875 646.883789062 128.372070312 c 128,-1,4
 649.19140625 130.07421875 649.19140625 130.07421875 653.243164062 134.125976562 c 0,5,6
 670.125976562 151.008789062 670.125976562 151.008789062 681.5625 185.3203125 c 128,-1,7
 693 219.631835938 693 219.631835938 693 259.361328125 c 128,-1,8
 693 299.091796875 693 299.091796875 689.162109375 320.200195312 c 0,9,10
 673.953125 403.848632812 673.953125 403.848632812 615.11328125 459.747070312 c 1,11,12
 540.33203125 523.001953125 540.33203125 523.001953125 418.998046875 523.001953125 c 0,13,14
 249.8203125 523.001953125 249.8203125 523.001953125 171.518554688 395.762695312 c 0,15,16
 171.471679688 395.685546875 171.471679688 395.685546875 171.421875 395.610351562 c 0,17,18
 127.99609375 330.466796875 127.99609375 330.466796875 127.99609375 223 c 0,19,20
 127.99609375 94.220703125 127.99609375 94.220703125 201.069335938 23.0712890625 c 0,21,22
 278.998046875 -55 278.998046875 -55 428.998046875 -55.001953125 c 0,23,24
 506.366210938 -55.001953125 506.366210938 -55.001953125 567.825195312 -34.515625 c 0,25,26
 576.397460938 -31.658203125 576.397460938 -31.658203125 587.15234375 -31.658203125 c 128,-1,27
 597.908203125 -31.658203125 597.908203125 -31.658203125 607.279296875 -37.22265625 c 128,-1,28
 616.650390625 -42.7861328125 616.650390625 -42.7861328125 621.612304688 -47.748046875 c 0,29,30
 636.458007812 -62.59375 636.458007812 -62.59375 636.458007812 -85.3291015625 c 0,31,32
 636.458007812 -99.2373046875 636.458007812 -99.2373046875 632.1953125 -107.15625 c 128,-1,33
 627.93359375 -115.07421875 627.93359375 -115.07421875 623.151367188 -119.856445312 c 0,34,35
 596.913085938 -146.094726562 596.913085938 -146.094726562 506.299804688 -157.913085938 c 0,36,37
 467.318359375 -162.998046875 467.318359375 -162.998046875 423.998046875 -162.998046875 c 0,38,39
 227.528320312 -162.998046875 227.528320312 -162.998046875 114.5390625 -50.009765625 c 0,40,41
 10 54.529296875 10 54.529296875 10 224 c 0,42,43
 10 311.838867188 10 311.838867188 38.650390625 385.556640625 c 0,44,45
 51.98828125 423.498046875 51.98828125 423.498046875 73.6298828125 455.479492188 c 0,46,47
 110.194335938 517.021484375 110.194335938 517.021484375 180.338867188 565.24609375 c 0,48,49
 278.88671875 632.998046875 278.88671875 632.998046875 416.998046875 632.998046875 c 0,50,51
 629.000976562 632.998046875 629.000976562 632.998046875 743.004882812 480.9921875 c 1,52,53
 805.99609375 384.884765625 805.99609375 384.884765625 805.99609375 270.831054688 c 128,-1,54
 805.99609375 156.776367188 805.99609375 156.776367188 754.209960938 84.6728515625 c 0,55,56
 701.297851562 11.001953125 701.297851562 11.001953125 607.998046875 11.001953125 c 0,57,58
 545.374023438 11.001953125 545.374023438 11.001953125 506.603515625 43.3115234375 c 0,59,60
 501.521484375 46.02734375 501.521484375 46.02734375 496.2578125 53.59765625 c 0,61,62
 487.0390625 62.8251953125 487.0390625 62.8251953125 486.283203125 63.98828125 c 0,63,64
 484.436523438 63.2958984375 484.436523438 63.2958984375 480.569335938 59.4287109375 c 0,65,66
 432 11.001953125 432 11.001953125 359.967773438 11.001953125 c 0,67,68
 285.625 11.001953125 285.625 11.001953125 238.76171875 60.09765625 c 0,69,70
 199 106.850585938 199 106.850585938 199 181 c 0,71,72
 199 226.23828125 199 226.23828125 212.299804688 279.4375 c 0,73,74
 212.362304688 279.686523438 212.362304688 279.686523438 220.602539062 302.427734375 c 0,75,76
 246.517578125 373.693359375 246.517578125 373.693359375 297.716796875 412.845703125 c 128,-1,77
 348.916015625 451.998046875 348.916015625 451.998046875 413.998046875 451.998046875 c 2,78,-1
 446.498046875 451.998046875 l 2,79,80
 460.270507812 451.998046875 460.270507812 451.998046875 479.98828125 450.932617188 c 128,-1,81
 499.70703125 449.866210938 499.70703125 449.866210938 522.9140625 437.779296875 c 128,-1,82
 546.120117188 425.692382812 546.120117188 425.692382812 561.059570312 410.752929688 c 0,83,84
 586.201171875 385.612304688 586.201171875 385.612304688 595.20703125 348.89453125 c 0,85,86
 598.627929688 334.948242188 598.627929688 334.948242188 598.627929688 319.893554688 c 128,-1,87
 598.627929688 304.84765625 598.627929688 304.84765625 594.715820312 288.641601562 c 2,88,-1
 575.80078125 202.02734375 l 2,89,90
 571.506835938 180.557617188 571.506835938 180.557617188 571.506835938 169.110351562 c 128,-1,91
 571.506835938 157.663085938 571.506835938 157.663085938 571.99609375 152 c 0,92,93
 571.99609375 133.133789062 571.99609375 133.133789062 581.063476562 124.065429688 c 128,-1,0
 590.131835938 114.998046875 590.131835938 114.998046875 610.588867188 114.998046875 c 128,-1,1
325.604492188 243.192382812 m 0,94,95
 317.99609375 212.583007812 317.99609375 212.583007812 317.99609375 180.555664062 c 128,-1,96
 317.99609375 148.528320312 317.99609375 148.528320312 332.260742188 134.262695312 c 128,-1,97
 346.526367188 119.998046875 346.526367188 119.998046875 372.998046875 119.998046875 c 0,98,99
 388.66015625 119.998046875 388.66015625 119.998046875 412.005859375 137.506835938 c 128,-1,100
 435.498046875 155.126953125 435.498046875 155.126953125 450.013671875 198.672851562 c 0,101,102
 457.4453125 220.967773438 457.4453125 220.967773438 477.385742188 290.758789062 c 0,103,104
 480.03515625 300.032226562 480.03515625 300.032226562 480.03515625 311.073242188 c 128,-1,105
 480.03515625 322.114257812 480.03515625 322.114257812 470.359375 331.790039062 c 128,-1,106
 460.5703125 341.580078125 460.5703125 341.580078125 445.54296875 343.001953125 c 2,107,-1
 417.998046875 343.001953125 l 2,108,109
 377.043945312 343.001953125 377.043945312 343.001953125 347.482421875 295.704101562 c 0,110,111
 337.986328125 280.2734375 337.986328125 280.2734375 325.604492188 243.192382812 c 0,94,95
EndSplineSet
Validated: 524289
EndChar

StartChar: A
Encoding: 65 65 63
Width: 546
Flags: W
LayerCount: 2
Fore
SplineSet
145 225 m 5,0,-1
 145 73 l 6,1,2
 145 42 145 42 124 21 c 260,3,4
 103 0 103 0 72.5 0 c 132,-1,5
 42 0 42 0 21 21 c 260,6,7
 0 42 0 42 0 73 c 6,8,-1
 0 492 l 6,9,10
 0 598 0 598 86 662.5 c 4,11,12
 146 707 146 707 226 708 c 4,13,14
 332.016117539 708 332.016117539 708 385.794921875 658.794921875 c 4,15,16
 460 591 460 591 461 492 c 5,17,-1
 461 73 l 6,18,19
 461 42 461 42 440 21 c 132,-1,20
 419 -0 419 -0 388.5 0 c 132,-1,21
 358 0 358 0 337 21 c 260,22,23
 316 42 316 42 316 73 c 6,24,-1
 316 225 l 5,25,-1
 145 225 l 5,0,-1
316 353 m 5,26,-1
 316 486 l 6,27,28
 316 525 316 525 296 550.5 c 132,-1,29
 276 576 276 576 231 575.5 c 132,-1,30
 186 575 186 575 165.5 548 c 132,-1,31
 145 521 145 521 145 486 c 6,32,-1
 145 353 l 5,33,-1
 316 353 l 5,26,-1
EndSplineSet
Validated: 524321
EndChar

StartChar: B
Encoding: 66 66 64
Width: 522
Flags: W
LayerCount: 2
Fore
SplineSet
369 370 m 1,0,1
 376 364 376 364 386 356 c 128,-1,2
 396 348 396 348 399.5 345 c 128,-1,3
 403 342 403 342 406 338 c 256,4,5
 409 334 409 334 420.846153846 320.179487179 c 0,6,7
 433 306 433 306 440.346153846 281.679487179 c 0,8,9
 448 257 448 257 448.5 250.5 c 128,-1,10
 449 244 449 244 450 238 c 256,11,12
 452 226 452 226 452 215.5 c 0,13,14
 452 159 452 159 435 125 c 0,15,16
 432 119 432 119 426 106 c 128,-1,17
 420 93 420 93 405 78 c 256,18,19
 400 73 400 73 391.947368421 64.0526315789 c 128,-1,20
 384 55 384 55 376.947368421 50.0526315789 c 128,-1,21
 370 45 370 45 364 40.5 c 0,22,23
 335 19 335 19 299.5 10.5 c 0,24,25
 293 9 293 9 276.125 4.5 c 0,26,27
 259 0 259 0 226 0 c 2,28,-1
 65 0 l 2,29,30
 38 0 38 0 19 19 c 256,31,32
 0 38 0 38 0 65 c 2,33,-1
 0 641 l 2,34,35
 0 678 0 678 29 695 c 0,36,37
 47 706 47 706 65 706 c 2,38,-1
 226 706 l 2,39,40
 239 706 239 706 250.5 704.5 c 128,-1,41
 262 703 262 703 268.5 702.5 c 128,-1,42
 275 702 275 702 282 700 c 256,43,44
 289 698 289 698 301 695 c 128,-1,45
 313 692 313 692 332 682.5 c 128,-1,46
 351 673 351 673 356 669 c 256,47,48
 361 665 361 665 369.191489362 659.787234043 c 0,49,50
 377 655 377 655 388.191489362 642.287234043 c 0,51,52
 399 630 399 630 403 625 c 128,-1,53
 407 620 407 620 410.5 614.5 c 128,-1,54
 414 609 414 609 417 603 c 128,-1,55
 420 597 420 597 422.5 591 c 128,-1,56
 425 585 425 585 432 568.2 c 0,57,58
 439 551 439 551 439 524.875 c 2,59,-1
 439 500.5 l 2,60,61
 439 488 439 488 435.5 475.5 c 128,-1,62
 432 463 432 463 430.5625 455.8125 c 0,63,64
 429 449 429 449 425.0625 441.3125 c 0,65,66
 421 434 421 434 419 430 c 128,-1,67
 417 426 417 426 414.5 422.5 c 128,-1,68
 412 419 412 419 410 415.5 c 128,-1,69
 408 412 408 412 396.75 398.5 c 0,70,71
 380 381 380 381 369 370 c 1,0,1
289 159 m 0,72,73
 308 180 308 180 308 207 c 2,74,-1
 308 226.5 l 2,75,76
 308 250 308 250 294 269 c 128,-1,77
 280 288 280 288 266 296 c 0,78,79
 250 305 250 305 220 306 c 0,80,-1
 145 306 l 1,81,-1
 145 128 l 1,82,-1
 212.125 128 l 2,83,84
 259 128 259 128 273 142 c 0,85,86
 281 150 281 150 289 159 c 0,72,73
145 578 m 1,87,-1
 145 431 l 1,88,-1
 220 431 l 2,89,90
 263 431 263 431 284 462 c 0,91,92
 297 482 297 482 296 493 c 0,93,94
 296 498 296 498 296 505 c 256,95,96
 296 522 296 522 292.5 529.5 c 128,-1,97
 289 537 289 537 285.684210526 544.736842105 c 0,98,99
 280 555 280 555 271.184210526 560.736842105 c 0,100,101
 260 568 260 568 256.5 570 c 128,-1,102
 253 572 253 572 245.125 574.5 c 0,103,104
 231 578 231 578 220 578 c 2,105,-1
 145 578 l 1,87,-1
EndSplineSet
Validated: 33
EndChar

StartChar: C
Encoding: 67 67 65
Width: 531
Flags: W
LayerCount: 2
Fore
SplineSet
461 220 m 2,0,-1
 461 214 l 2,1,2
 461 112 461 112 398 49 c 128,-1,3
 335 -14 335 -14 238.441176471 -14 c 128,-1,4
 141.882352941 -14 141.882352941 -14 87.1031635116 28.3293736501 c 0,5,6
 32.3239740821 70.6587473002 32.3239740821 70.6587473002 16.161987041 120.940484761 c 128,-1,7
 0 171.222222222 0 171.222222222 0 214 c 2,8,-1
 0 492 l 2,9,10
 0 610.363636364 0 610.363636364 83 674.5 c 0,11,12
 116 700 116 700 157 710 c 128,-1,13
 198 720 198 720 223 720 c 0,14,15
 301.571428571 720 301.571428571 720 353 690 c 0,16,17
 382.538461538 674.527472527 382.538461538 674.527472527 396.769230769 658.263736264 c 2,18,-1
 418 634 l 1,19,20
 437 609 437 609 435 581 c 256,21,22
 433 553 433 553 410.5 535.5 c 128,-1,23
 388 518 388 518 364.5 520.5 c 0,24,25
 321.395721925 525.085561497 321.395721925 525.085561497 303 549 c 0,26,27
 288 567 288 567 272 578 c 0,28,29
 252 589 252 589 224 589 c 128,-1,30
 196 589 196 589 170.5 563.5 c 128,-1,31
 145 538 145 538 145 508 c 2,32,-1
 145 220 l 2,33,34
 145 181.333333333 145 181.333333333 153.5 167.166666667 c 128,-1,35
 162 153 162 153 170 142 c 0,36,37
 187.454545455 118 187.454545455 118 230.12012987 118 c 128,-1,38
 272.785714286 118 272.785714286 118 294 145 c 0,39,40
 307.823529412 167.117647059 307.823529412 167.117647059 311.911764706 181.558823529 c 128,-1,41
 316 196 316 196 316 219 c 2,42,-1
 316 220 l 2,43,44
 316 248 316 248 337 271 c 0,45,46
 358 292 358 292 388 292 c 0,47,48
 418 294 418 294 439 271 c 0,49,50
 461 251 461 251 461 220 c 2,0,-1
EndSplineSet
Validated: 33
EndChar

StartChar: D
Encoding: 68 68 66
Width: 512
Flags: W
LayerCount: 2
Fore
SplineSet
281 698 m 256,0,1
 387.816326531 671.295918367 387.816326531 671.295918367 427 565.5 c 0,2,3
 442 525 442 525 442 474 c 2,4,-1
 442 231 l 2,5,6
 442 93 442 93 337 30 c 0,7,8
 285.571428571 2.60208521397e-18 285.571428571 2.60208521397e-18 216 0 c 2,9,-1
 65 0 l 2,10,11
 38 0 38 0 19 19 c 256,12,13
 0 38 0 38 0 65 c 2,14,-1
 0 641 l 2,15,16
 0 668 0 668 19 687 c 256,17,18
 38 706 38 706 65 706 c 2,19,-1
 216 706 l 2,20,21
 249 706 249 706 281 698 c 256,0,1
145 132 m 1,22,-1
 209 132 l 2,23,24
 272 132 272 132 291 194 c 0,25,26
 297 213 297 213 297 237 c 2,27,-1
 297 469 l 2,28,29
 297 528 297 528 262 558.5 c 0,30,31
 245 574 245 574 209 574 c 2,32,-1
 145 574 l 1,33,-1
 145 132 l 1,22,-1
EndSplineSet
Validated: 1
EndChar

StartChar: E
Encoding: 69 69 67
Width: 451
Flags: W
LayerCount: 2
Fore
SplineSet
145 576 m 1,0,-1
 145 432 l 2,1,-1
 272 432 l 2,2,3
 297 432 297 432 318 413 c 0,4,5
 337 396 337 396 337 368.5 c 128,-1,6
 337 341 337 341 318 322 c 256,7,8
 299 303 299 303 272 303 c 2,9,-1
 145 303 l 2,10,-1
 145 130 l 1,11,-1
 316 130 l 2,12,13
 343 130 343 130 358.142857143 114.857142857 c 4,14,15
 381 92 381 92 381 65 c 1,16,17
 381 40 381 40 362 19 c 0,18,19
 345 0 345 0 316 0 c 2,20,-1
 65 0 l 2,21,22
 38 0 38 0 19 19 c 256,23,24
 0 38 0 38 0 65 c 2,25,-1
 0 643 l 2,26,27
 0 670 0 670 19 689 c 256,28,29
 38 708 38 708 65 708 c 2,30,-1
 314 708 l 2,31,32
 340 708 340 708 359 689 c 128,-1,33
 378 670 378 670 378 643 c 256,34,35
 378 616 378 616 359 595 c 0,36,37
 342 576 342 576 314 576 c 2,38,-1
 145 576 l 1,0,-1
EndSplineSet
Validated: 1
EndChar

StartChar: F
Encoding: 70 70 68
Width: 448
Flags: W
LayerCount: 2
Fore
SplineSet
145 303 m 6,0,-1
 145 73 l 2,1,2
 145 42 145 42 124 21 c 256,3,4
 103 0 103 0 72.5 0 c 128,-1,5
 42 0 42 0 21 21 c 256,6,7
 0 42 0 42 0 73 c 2,8,-1
 0 641 l 2,9,10
 0 668 0 668 19 687 c 256,11,12
 38 706 38 706 65 706 c 2,13,-1
 314 706 l 2,14,15
 340 706 340 706 359 687 c 128,-1,16
 378 668 378 668 378 641 c 256,17,18
 378 616 378 616 359 595 c 0,19,20
 342.14902943 576.166562304 342.14902943 576.166562304 314 576 c 2,21,-1
 145 575 l 1,22,-1
 146 432 l 2,23,-1
 267 432 l 2,24,25
 292 432 292 432 313 413 c 0,26,27
 332 396 332 396 332 368.5 c 128,-1,28
 332 341 332 341 313 322 c 256,29,30
 294 303 294 303 267 303 c 2,31,-1
 145 303 l 6,0,-1
EndSplineSet
Validated: 1
EndChar

StartChar: G
Encoding: 71 71 69
Width: 531
Flags: W
LayerCount: 2
Fore
SplineSet
396 418 m 2,0,1
 423 418 423 418 442 399 c 256,2,3
 460.659093067 380.340906933 460.659093067 380.340906933 461 353 c 2,4,-1
 462.55859375 228 l 2,5,6
 464 127 464 127 399.55859375 63 c 0,7,8
 337 0 337 0 240 0 c 128,-1,9
 143 0 143 0 88.662109375 42.3291015625 c 0,10,11
 31 87 31 87 17.720703125 134.940429688 c 0,12,13
 2 193 2 193 1.55859375 228 c 2,14,-1
 -1 480 l 2,15,16
 -2.18644245452 596.854619277 -2.18644245452 596.854619277 82 662.5 c 0,17,18
 115 688 115 688 156 698 c 128,-1,19
 197 708 197 708 222 708 c 0,20,21
 292 708 292 708 352 678 c 0,22,23
 380.445191757 663.777404121 380.445191757 663.777404121 395.76953125 646.263671875 c 2,24,-1
 417 622 l 1,25,26
 436 597 436 597 434 569 c 256,27,28
 432 541 432 541 409.5 523.5 c 128,-1,29
 387 506 387 506 363.5 508.5 c 0,30,31
 322 513 322 513 302 537 c 0,32,33
 284 559 284 559 271 566 c 0,34,35
 251 577 251 577 223 577 c 128,-1,36
 195 577 195 577 169.415039062 551.415039062 c 128,-1,37
 143.709864603 525.709864603 143.709864603 525.709864603 144 496 c 2,38,-1
 146.55859375 234 l 2,39,40
 146.928400496 196.131789248 146.928400496 196.131789248 155.05859375 181.166992188 c 0,41,42
 164 167 164 167 171.55859375 156 c 0,43,44
 189 132 189 132 231.678710938 132 c 0,45,46
 276 132 276 132 295.55859375 159 c 0,47,48
 308 177 308 177 313.470703125 195.55859375 c 0,49,50
 318.121564717 214.494960784 318.121564717 214.494960784 317.55859375 234 c 2,51,-1
 316 288 l 1,52,-1
 278 288 l 2,53,54
 252 288 252 288 233 307 c 128,-1,55
 214 326 214 326 214 353 c 256,56,57
 214 378 214 378 233 399 c 0,58,59
 250 418 250 418 278 418 c 2,60,-1
 396 418 l 2,0,1
EndSplineSet
Validated: 524321
EndChar

StartChar: H
Encoding: 72 72 70
Width: 539
Flags: W
LayerCount: 2
Fore
SplineSet
309 633 m 1,0,1
 309 664 309 664 330 685 c 128,-1,2
 351 706 351 706 381 706 c 256,3,4
 411 706 411 706 432.5 684.5 c 128,-1,5
 454 663 454 663 454 633 c 2,6,-1
 454 73 l 2,7,8
 454 41 454 41 432.5 20.5 c 128,-1,9
 411 0 411 0 381 0 c 256,10,11
 351 0 351 0 330 21 c 256,12,13
 309 42 309 42 309 73 c 2,14,-1
 309 302 l 2,15,-1
 145 302 l 2,16,-1
 145 73 l 2,17,18
 145 42 145 42 124 21 c 256,19,20
 103 0 103 0 72.5 0 c 128,-1,21
 42 0 42 0 21 21 c 256,22,23
 0 42 0 42 0 73 c 2,24,-1
 0 633 l 2,25,26
 0 664 0 664 21 685 c 128,-1,27
 42 706 42 706 72.5 706 c 128,-1,28
 103 706 103 706 124 685 c 128,-1,29
 145 664 145 664 145 633 c 2,30,-1
 145 432 l 1,31,-1
 309 432 l 1,32,-1
 309 633 l 1,0,1
EndSplineSet
Validated: 1
EndChar

StartChar: I
Encoding: 73 73 71
Width: 230
Flags: W
LayerCount: 2
Fore
SplineSet
0 633 m 2,0,1
 0 662 0 662 21 685 c 0,2,3
 42 706 42 706 72.5 706 c 128,-1,4
 103 706 103 706 124 685 c 0,5,6
 145 662 145 662 145 633 c 2,7,-1
 145 73 l 2,8,9
 145 42 145 42 124 21 c 256,10,11
 103 0 103 0 72.5 0 c 128,-1,12
 42 0 42 0 21 21 c 256,13,14
 0 42 0 42 0 73 c 2,15,-1
 0 633 l 2,0,1
EndSplineSet
Validated: 1
EndChar

StartChar: J
Encoding: 74 74 72
Width: 533
Flags: W
LayerCount: 2
Fore
SplineSet
448 633 m 2,0,-1
 448 214 l 2,1,2
 448 144.238095238 448 144.238095238 415.604347826 87.1600414079 c 128,-1,3
 383.208695652 30.0819875776 383.208695652 30.0819875776 313 2.5 c 0,4,5
 271 -14 271 -14 235.5 -14 c 0,6,7
 84.3636363636 -14 84.3636363636 -14 22 84 c 0,8,9
 -18.2040816327 140.285714286 -18.2040816327 140.285714286 13 180 c 0,10,11
 37.1333333333 213.786666667 37.1333333333 213.786666667 75 210 c 0,12,13
 92 209 92 209 108 197.5 c 128,-1,14
 124 186 124 186 130 174 c 128,-1,15
 136 162 136 162 139 158 c 128,-1,16
 142 154 142 154 144.5 150.5 c 0,17,18
 167.714285714 118 167.714285714 118 213.75 118 c 128,-1,19
 259.785714286 118 259.785714286 118 281 145 c 0,20,21
 294.823529412 167.117647059 294.823529412 167.117647059 298.911764706 181.558823529 c 128,-1,22
 303 196 303 196 303 220 c 2,23,-1
 303 633 l 2,24,25
 303 662 303 662 324 685 c 0,26,27
 345 706 345 706 375.5 706 c 128,-1,28
 406 706 406 706 427 685 c 0,29,30
 448 662 448 662 448 633 c 2,0,-1
EndSplineSet
Validated: 33
EndChar

StartChar: K
Encoding: 75 75 73
Width: 510
Flags: W
LayerCount: 2
Fore
SplineSet
273 368 m 2,0,-1
 429 111 l 2,1,2
 445.118368767 84.446020685 445.118368767 84.446020685 437.391915643 55.3322772456 c 0,3,4
 430 25 430 25 405.179995114 10.1501580403 c 0,5,6
 380 -5 380 -5 350.07615894 2.66225165563 c 0,7,8
 320.044059766 9.98925063958 320.044059766 9.98925063958 305 35 c 2,9,-1
 145 301 l 2,10,-1
 145 73 l 2,11,12
 145 42 145 42 124 21 c 256,13,14
 103 0 103 0 73 0 c 128,-1,15
 43 0 43 0 21.5 21.5 c 128,-1,16
 0 43 0 43 0 74 c 2,17,-1
 0 633 l 2,18,19
 0 664 0 664 22 685 c 128,-1,20
 44 706 44 706 73 706 c 128,-1,21
 102 706 102 706 123.5 684.5 c 128,-1,22
 145 663 145 663 145 632 c 2,23,-1
 145 418 l 2,24,-1
 309 673 l 2,25,26
 323 694 323 694 346 702 c 256,27,28
 369 710 369 710 389 703 c 0,29,30
 423 691 423 691 435 658 c 256,31,32
 446 627 446 627 427 598 c 2,33,-1
 273 368 l 2,0,-1
EndSplineSet
Validated: 33
EndChar

StartChar: L
Encoding: 76 76 74
Width: 436
Flags: W
LayerCount: 2
Fore
SplineSet
145 130 m 1,0,-1
 311 130 l 2,1,2
 352 130 352 130 370.5 90.5 c 0,3,4
 376 79 376 79 376 65 c 256,5,6
 376 38 376 38 357 19 c 128,-1,7
 338 0 338 0 311 0 c 2,8,-1
 65 0 l 2,9,10
 38 0 38 0 19 19 c 256,11,12
 0 38 0 38 0 65 c 2,13,-1
 0 641 l 2,14,15
 0 668 0 668 19 687 c 256,16,17
 38 706 38 706 65 706 c 2,18,-1
 80 706 l 2,19,20
 107 706 107 706 126 687 c 128,-1,21
 145 668 145 668 145 641 c 2,22,-1
 145 130 l 1,0,-1
EndSplineSet
Validated: 1
EndChar

StartChar: M
Encoding: 77 77 75
Width: 737
Flags: W
LayerCount: 2
Fore
SplineSet
343 667 m 1,0,1
 378 691 378 691 398.75 697.25 c 0,2,3
 426 706 426 706 455 706 c 128,-1,4
 484 706 484 706 508.5 700.5 c 0,5,6
 601 680 601 680 654 596 c 0,7,8
 664 580 664 580 672.93359375 546.483398438 c 128,-1,9
 682 513 682 513 682 478 c 2,10,-1
 682 73 l 2,11,12
 682 42 682 42 661 21 c 0,13,14
 648 8 648 8 640 5 c 0,15,16
 628 0 628 0 609 0 c 0,17,18
 578 -1 578 -1 558 21 c 0,19,20
 537 44 537 44 537 73 c 2,21,-1
 537 511 l 2,22,23
 537 537 537 537 519 555 c 256,24,25
 501 573 501 573 476.5 573.5 c 128,-1,26
 452 574 452 574 433.5 558 c 128,-1,27
 415 542 415 542 415 518 c 2,28,-1
 415 74 l 2,29,30
 415 44 415 44 393 22 c 128,-1,31
 371 0 371 0 341 0 c 256,32,33
 311 0 311 0 289 22 c 128,-1,34
 267 44 267 44 267 74 c 2,35,-1
 267 518 l 2,36,37
 267 541 267 541 248 558 c 0,38,39
 230 574 230 574 205.5 573.5 c 128,-1,40
 181 573 181 573 163 555 c 256,41,42
 145 537 145 537 145 512 c 2,43,-1
 145 73 l 2,44,45
 145 42 145 42 124 21 c 128,-1,46
 103 0 103 0 73.5 0 c 0,47,48
 42 0 42 0 21 21 c 128,-1,49
 0 42 0 42 0 73 c 2,50,-1
 0 478 l 2,51,52
 0 580 0 580 63 643 c 128,-1,53
 126 706 126 706 231 706 c 0,54,55
 277 706 277 706 343 667 c 1,0,1
EndSplineSet
Validated: 33
EndChar

StartChar: N
Encoding: 78 78 76
Width: 546
Flags: W
LayerCount: 2
Fore
SplineSet
124 21 m 256,0,1
 103 0 103 0 72.5 0 c 128,-1,2
 42 0 42 0 21 21 c 256,3,4
 -0 42 -0 42 0 73 c 2,5,-1
 1 480 l 2,6,7
 1.29293393638 599.224112108 1.29293393638 599.224112108 84 662.5 c 0,8,9
 117 688 117 688 158 698 c 128,-1,10
 199 708 199 708 224 708 c 0,11,12
 282.194687078 708 282.194687078 708 333 687 c 0,13,14
 443 641 443 641 460 512.5 c 0,15,16
 462.040988547 496.682338758 462.040988547 496.682338758 462 480 c 2,17,-1
 461 73 l 2,18,19
 460.92364532 41.9236453202 460.92364532 41.9236453202 440 21 c 0,20,21
 417 0 417 0 387.5 0 c 128,-1,22
 358 0 358 0 337 21 c 256,23,24
 316 42 316 42 316 73 c 2,25,-1
 317 474 l 2,26,27
 317.116834778 520.850745848 317.116834778 520.850745848 295 549 c 0,28,29
 274 576 274 576 231.5 576 c 128,-1,30
 189 576 189 576 172.607421875 554 c 0,31,32
 146.112588783 519.148101812 146.112588783 519.148101812 146 474 c 2,33,-1
 145 73 l 2,34,35
 144.9225 41.9225 144.9225 41.9225 124 21 c 256,0,1
EndSplineSet
Validated: 524321
EndChar

StartChar: O
Encoding: 79 79 77
Width: 531
Flags: W
LayerCount: 2
Fore
SplineSet
458 512.5 m 4,0,1
 459.926711668 499.494696239 459.926711668 499.494696239 460 480 c 6,2,-1
 461 214 l 2,3,4
 461.382022472 112.382022472 461.382022472 112.382022472 398 49 c 0,5,6
 335 -14 335 -14 238.441176471 -14 c 128,-1,7
 142 -14 142 -14 87.1031635116 28.3293736501 c 0,8,9
 33.7892594456 69.6144385117 33.7892594456 69.6144385117 16.161987041 120.940484761 c 0,10,11
 0 167 0 167 0 214 c 2,12,-1
 -1 480 l 6,13,14
 -1.43854855827 596.653916499 -1.43854855827 596.653916499 82 662.5 c 4,15,16
 115 688 115 688 156 698 c 132,-1,17
 197 708 197 708 222 708 c 4,18,19
 318 708 318 708 381.794921875 658.794921875 c 4,20,21
 443 611 443 611 458 512.5 c 4,0,1
144 474 m 6,22,-1
 145 220 l 2,23,24
 145.158421993 179.760813854 145.158421993 179.760813854 153.5 167.166666667 c 0,25,26
 162 153 162 153 170 142 c 0,27,28
 187 118 187 118 230.12012987 118 c 0,29,30
 275 118 275 118 294 145 c 0,31,32
 307 163 307 163 311.911764706 181.558823529 c 0,33,34
 316 199 316 199 316 220 c 2,35,-1
 315 474 l 6,36,37
 314.814028777 521.236690647 314.814028777 521.236690647 293 549 c 4,38,39
 272 576 272 576 229.5 576 c 132,-1,40
 187 576 187 576 170.607421875 554 c 4,41,42
 143.823747428 518.76815341 143.823747428 518.76815341 144 474 c 6,22,-1
EndSplineSet
Validated: 524321
EndChar

StartChar: P
Encoding: 80 80 78
Width: 514
Flags: W
LayerCount: 2
Fore
SplineSet
145 284 m 2,0,-1
 145 73 l 2,1,2
 145 42 145 42 124 21 c 256,3,4
 103 0 103 0 72.5 0 c 128,-1,5
 42 0 42 0 21 21 c 256,6,7
 0 42 0 42 0 73 c 2,8,-1
 0 641 l 2,9,10
 0 668 0 668 19 687 c 256,11,12
 38 706 38 706 65 706 c 2,13,-1
 220 706 l 2,14,15
 299 706 299 706 358 665.5 c 0,16,17
 369 658 369 658 379 648 c 0,18,19
 444 592 444 592 444 495 c 256,20,21
 444 437 444 437 414 384 c 0,22,23
 405 368 405 368 379 342 c 0,24,25
 345 308 345 308 280 291 c 0,26,27
 253 284 253 284 220 284 c 2,28,-1
 145 284 l 2,0,-1
145 576 m 1,29,-1
 145 414 l 2,30,-1
 213 414 l 2,31,32
 275 414 275 414 293 460 c 0,33,34
 299 475 299 475 299 495 c 256,35,36
 299 535 299 535 274.75 555.681818182 c 0,37,38
 250 576 250 576 213 576 c 2,39,-1
 145 576 l 1,29,-1
EndSplineSet
Validated: 1
EndChar

StartChar: Q
Encoding: 81 81 79
Width: 531
Flags: W
LayerCount: 2
Fore
SplineSet
145 220 m 2,0,1
 145 176 145 176 166.227272727 147.1875 c 0,2,3
 187 118 187 118 230.12012987 118 c 0,4,5
 275 118 275 118 294 145 c 0,6,7
 307 163 307 163 311.911764706 181.558823529 c 0,8,9
 316 196 316 196 316 220 c 2,10,-1
 316 486 l 2,11,12
 316 519 316 519 292.5 548 c 0,13,14
 271 575 271 575 229 575 c 128,-1,15
 187 575 187 575 170.107421875 553 c 0,16,17
 145 518 145 518 145 486 c 2,18,-1
 145 220 l 2,0,1
368 22 m 0,19,-1
 393 -10 l 1,20,21
 422 -49 422 -49 399 -91 c 0,22,23
 384 -119 384 -119 354.931165312 -126.267208672 c 0,24,25
 326 -134 326 -134 305.975609756 -122.756097561 c 0,26,27
 286.077689243 -112.041832669 286.077689243 -112.041832669 277 -100 c 2,28,-1
 228 -35 l 2,29,30
 214 -16 214 -16 186 -11 c 0,31,32
 136 -1 136 -1 109.753300493 13.9454844007 c 0,33,34
 37 56 37 56 15.5 123 c 0,35,36
 0 171 0 171 0 214 c 2,37,-1
 0 492 l 2,38,39
 0 599 0 599 84 662.5 c 0,40,41
 117 688 117 688 158 698 c 128,-1,42
 199 708 199 708 224 708 c 0,43,44
 318 708 318 708 383.794921875 658.794921875 c 0,45,46
 448 610 448 610 459 524.5 c 0,47,48
 461 509 461 509 461 492 c 2,49,-1
 461 214 l 2,50,51
 461 123 461 123 408 59 c 1,52,-1
 392.5 43.5 l 2,53,54
 380 31 380 31 368 22 c 0,19,-1
EndSplineSet
Validated: 33
EndChar

StartChar: R
Encoding: 82 82 80
Width: 514
Flags: W
LayerCount: 2
Fore
SplineSet
177 284 m 1,0,-1
 301 40 l 2,1,2
 314.259362968 13.9089954498 314.259362968 13.9089954498 342.435497911 4.02263231198 c 0,3,4
 371 -6 371 -6 398.5 8 c 128,-1,5
 426 22 426 22 434.976190476 50.5476190476 c 128,-1,6
 444 79 444 79 431 105 c 2,7,-1
 333 299 l 1,8,9
 330 309 330 309 338 312 c 1,10,-1
 339 313 l 1,11,-1
 340 313 l 1,12,13
 364 327 364 327 382 344 c 0,14,15
 444 403 444 403 444 495 c 256,16,17
 444 590 444 590 379 648 c 0,18,19
 356 668 356 668 341 676 c 0,20,21
 321 686 321 686 294 696 c 128,-1,22
 267 706 267 706 220 706 c 2,23,-1
 65 706 l 2,24,25
 38 706 38 706 19 687 c 256,26,27
 0 668 0 668 0 641 c 2,28,-1
 0 73 l 2,29,30
 0 42 0 42 21 21 c 256,31,32
 42 0 42 0 72.5 0 c 128,-1,33
 103 0 103 0 124 21 c 256,34,35
 145 42 145 42 145 73 c 2,36,-1
 145 284 l 2,37,-1
 177 284 l 1,0,-1
146 576 m 1,38,-1
 213 576 l 2,39,40
 250 576 250 576 274.75 555.681818182 c 0,41,42
 299 535 299 535 299 495 c 256,43,44
 299 475 299 475 293 460 c 0,45,46
 275 414 275 414 213 414 c 2,47,-1
 145 414 l 2,48,-1
 146 576 l 1,38,-1
EndSplineSet
Validated: 41
EndChar

StartChar: S
Encoding: 83 83 81
Width: 523
Flags: W
LayerCount: 2
Fore
SplineSet
376.146484375 353.756835938 m 0,0,1
 444 302 444 302 452.146484375 248.756835938 c 0,2,3
 458 209 458 209 440.521484375 149.462890625 c 0,4,5
 426 100 426 100 386 64 c 128,-1,6
 346 28 346 28 290 14 c 128,-1,7
 234 0 234 0 177 9.5 c 0,8,9
 124 18 124 18 73 54 c 0,10,11
 34 81 34 81 10 132 c 0,12,13
 -6 166 -6 166 15 198 c 256,14,15
 36 230 36 230 74 230 c 0,16,17
 95 230 95 230 111.5 219 c 0,18,19
 113 218 113 218 136 190 c 0,20,21
 145 179 145 179 146 175 c 0,22,23
 148 170 148 170 151.5 166.5 c 2,24,-1
 159 159 l 1,25,26
 191 131 191 131 237 135 c 256,27,28
 284 140 284 140 305.5 176 c 128,-1,29
 327 212 327 212 300.146484375 249.756835938 c 256,30,31
 279 280 279 280 236.530273438 294.294921875 c 0,32,33
 194 309 194 309 159.146484375 321.756835938 c 0,34,35
 24 374 24 374 7.146484375 446.756835938 c 0,36,37
 -14.5306907135 549.064827723 -14.5306907135 549.064827723 45.146484375 627.756835938 c 0,38,39
 106 708 106 708 215 708 c 128,-1,40
 324 708 324 708 378.146484375 654.756835938 c 0,41,42
 426.015207651 610.925870388 426.015207651 610.925870388 426.146484375 575.756835938 c 0,43,44
 426 536 426 536 393.146484375 514.256835938 c 0,45,46
 376.617207026 503.756835938 376.617207026 503.756835938 356.146484375 503.756835938 c 2,47,-1
 355.146484375 503.756835938 l 2,48,49
 337 504 337 504 320.646484375 513.756835938 c 0,50,51
 304 524 304 524 296.646484375 535.756835938 c 0,52,53
 266 585 266 585 226.479492188 582.58984375 c 0,54,55
 169 579 169 579 147.646484375 535.756835938 c 0,56,57
 137 515 137 515 143.146484375 491.756835938 c 0,58,59
 156 443 156 443 216.76953125 423.349609375 c 0,60,61
 331 388 331 388 376.146484375 353.756835938 c 0,0,1
EndSplineSet
Validated: 524321
EndChar

StartChar: T
Encoding: 84 84 82
Width: 514
Flags: W
LayerCount: 2
Fore
SplineSet
154 577 m 1,0,-1
 155 65 l 2,1,2
 155.052837573 37.9471624266 155.052837573 37.9471624266 174 19 c 256,3,4
 193 0 193 0 220 0 c 2,5,-1
 235 0 l 2,6,7
 262 0 262 0 281 19 c 256,8,9
 300 38 300 38 300 65 c 2,10,-1
 300 576 l 1,11,-1
 389 576 l 2,12,13
 416 576 416 576 435 595 c 256,14,15
 454 614 454 614 454 641 c 256,16,17
 454 668 454 668 435 687 c 256,18,19
 416 706 416 706 389 706 c 2,20,-1
 65 706 l 2,21,22
 38 706 38 706 19 687 c 256,23,24
 0 668 0 668 0 641 c 256,25,26
 0 614 0 614 19 595 c 256,27,28
 38 576 38 576 65 576 c 2,29,-1
 154 577 l 1,0,-1
EndSplineSet
Validated: 9
EndChar

StartChar: U
Encoding: 85 85 83
Width: 546
Flags: W
LayerCount: 2
Fore
SplineSet
337 685 m 0,0,1
 358 706 358 706 387.5 706 c 128,-1,2
 417 706 417 706 440 685 c 0,3,4
 461 662 461 662 461 633 c 2,5,-1
 461 214 l 2,6,7
 461 112 461 112 398 49 c 128,-1,8
 335 -14 335 -14 238.441176471 -14 c 128,-1,9
 141.882352941 -14 141.882352941 -14 87.1031635116 28.3293736501 c 128,-1,10
 32.3239740821 70.6587473002 32.3239740821 70.6587473002 16.161987041 120.940484761 c 128,-1,11
 0 171.222222222 0 171.222222222 0 214 c 2,12,-1
 0 633 l 2,13,14
 0 662 0 662 21 685 c 0,15,16
 42 706 42 706 72.5 706 c 128,-1,17
 103 706 103 706 124 685 c 0,18,19
 145 662 145 662 145 633 c 2,20,-1
 145 220 l 2,21,22
 145 181.333333333 145 181.333333333 153.5 167.166666667 c 128,-1,23
 162 153 162 153 170 142 c 0,24,25
 187.454545455 118 187.454545455 118 230.12012987 118 c 128,-1,26
 272.785714286 118 272.785714286 118 294 145 c 0,27,28
 307.823529412 167.117647059 307.823529412 167.117647059 311.911764706 181.558823529 c 128,-1,29
 316 196 316 196 316 220 c 2,30,-1
 316 633 l 2,31,32
 316 662 316 662 337 685 c 0,0,1
EndSplineSet
Validated: 1
EndChar

StartChar: V
Encoding: 86 86 84
Width: 520
Flags: W
LayerCount: 2
Fore
SplineSet
1.0458984375 643.017578125 m 0,0,1
 1 670 1 670 20.0927734375 688.96875 c 128,-1,2
 39 708 39 708 64.177734375 708.014648438 c 0,3,4
 89 708 89 708 107.018554688 693.458984375 c 0,5,6
 124.520826288 680.358658127 124.520826288 680.358658127 129.58984375 656.725585938 c 2,7,-1
 242.584960938 129.913085938 l 1,8,-1
 242.584960938 129.913085938 l 1,9,-1
 346.495117188 655.259765625 l 2,10,11
 351.225881103 679.177457648 351.225881103 679.177457648 368.797851562 692.982421875 c 0,12,13
 387 708 387 708 412 708 c 0,14,15
 438 708 438 708 456.284179688 688.955078125 c 0,16,17
 462 683 462 683 475.330078125 643.004882812 c 0,18,19
 476.110564762 640.669111578 476.110564762 640.669111578 474.174804688 630.857421875 c 2,20,-1
 360.087890625 52.5908203125 l 2,21,22
 355.558306744 29.6319463815 355.558306744 29.6319463815 337.734669196 14.7798873752 c 128,-1,23
 319.91044146 -0.0751630832779 319.91044146 -0.0751630832779 296.3359375 -0.0615234375 c 2,24,-1
 190 0 l 2,25,26
 165 0 165 0 149.233155994 14.3121798935 c 0,27,28
 131 31 131 31 126.547851562 51.1865234375 c 2,29,-1
 2.533203125 629.24609375 l 2,30,31
 1.0024924081 636.38107329 1.0024924081 636.38107329 1.0458984375 643.017578125 c 0,0,1
EndSplineSet
Validated: 37
EndChar

StartChar: W
Encoding: 87 87 85
Width: 767
Flags: W
LayerCount: 2
Fore
SplineSet
339 39 m 1,0,1
 304 15 304 15 283.25 8.75 c 0,2,3
 256 0 256 0 227 0 c 128,-1,4
 198 0 198 0 173.5 5.5 c 0,5,6
 81 26 81 26 28 110 c 0,7,8
 18 126 18 126 9.06640625 159.516601562 c 128,-1,9
 0 193 0 193 0 228 c 2,10,-1
 0 633 l 2,11,12
 0 664 0 664 21 685 c 0,13,14
 34 698 34 698 42 701 c 0,15,16
 54 706 54 706 73 706 c 0,17,18
 104 707 104 707 124 685 c 0,19,20
 145 662 145 662 145 633 c 2,21,-1
 145 195 l 2,22,23
 145 169 145 169 163 151 c 256,24,25
 181 133 181 133 205.5 132.5 c 128,-1,26
 230 132 230 132 248.5 148 c 128,-1,27
 267 164 267 164 267 188 c 2,28,-1
 267 632 l 2,29,30
 267 662 267 662 289 684 c 128,-1,31
 311 706 311 706 341 706 c 256,32,33
 371 706 371 706 393 684 c 128,-1,34
 415 662 415 662 415 632 c 2,35,-1
 415 188 l 2,36,37
 415 165 415 165 434 148 c 0,38,39
 452 132 452 132 476.5 132.5 c 128,-1,40
 501 133 501 133 519 151 c 256,41,42
 537 169 537 169 537 194 c 2,43,-1
 537 633 l 2,44,45
 537 664 537 664 558 685 c 128,-1,46
 579 706 579 706 608.5 706 c 0,47,48
 640 706 640 706 661 685 c 128,-1,49
 682 664 682 664 682 633 c 2,50,-1
 682 228 l 2,51,52
 682 126 682 126 619 63 c 128,-1,53
 556 0 556 0 451 0 c 0,54,55
 405 0 405 0 339 39 c 1,0,1
EndSplineSet
Validated: 33
EndChar

StartChar: X
Encoding: 88 88 86
Width: 528
Flags: W
LayerCount: 2
Fore
SplineSet
458 523 m 2,0,1
 458 464.5 458 464.5 434.333333333 429 c 128,-1,2
 410.666666667 393.5 410.666666667 393.5 394 381 c 0,3,4
 392 379 392 379 392 377 c 256,5,6
 392 375 392 375 409.6375 358.4 c 0,7,8
 439.403846154 330.384615385 439.403846154 330.384615385 452 280 c 0,9,10
 458 256 458 256 458 230 c 2,11,-1
 458 74 l 2,12,13
 458 43 458 43 436.5 21.5 c 128,-1,14
 415 0 415 0 384.5 0 c 128,-1,15
 354 0 354 0 332 22 c 0,16,17
 311 45 311 45 311 75 c 2,18,-1
 311 231 l 2,19,20
 311 263.8 311 263.8 290 289 c 0,21,22
 268 311 268 311 230 311 c 256,23,24
 191 311 191 311 169 289 c 0,25,26
 148 264.181818182 148 264.181818182 148 231 c 2,27,-1
 148 74 l 6,28,29
 148 43 148 43 126.5 21.5 c 132,-1,30
 105 0 105 0 73.5 0 c 132,-1,31
 42 0 42 0 22 22 c 4,32,33
 0 42 0 42 0 74 c 6,34,-1
 0 230 l 2,35,36
 0 300.5 0 300.5 39 346 c 0,37,38
 46.5 358 46.5 358 56.25 366.5 c 128,-1,39
 66 375 66 375 66 377 c 256,40,41
 66 379 66 379 59.8 383.9 c 128,-1,42
 53.6 388.8 53.6 388.8 38 407 c 0,43,44
 29 421 29 421 19 438 c 0,45,46
 0 477.9 0 477.9 0 523 c 2,47,-1
 0 632 l 2,48,49
 0 664 0 664 22 684 c 0,50,51
 42 706 42 706 73 706 c 128,-1,52
 104 706 104 706 126 684 c 0,53,54
 147 661 147 661 147 631 c 2,55,-1
 147 522 l 2,56,57
 147 486 147 486 163.5 469.5 c 128,-1,58
 180 453 180 453 194.5 448 c 128,-1,59
 209 443 209 443 229 443 c 256,60,61
 284.4375 443 284.4375 443 305 490 c 0,62,63
 310 507 310 507 310 522 c 2,64,-1
 310 632 l 2,65,66
 310 664 310 664 332 684 c 0,67,68
 354 706 354 706 384 706 c 128,-1,69
 414 706 414 706 436 684 c 0,70,71
 458 664 458 664 458 632 c 2,72,-1
 458 523 l 2,0,1
EndSplineSet
Validated: 1
EndChar

StartChar: Y
Encoding: 89 89 87
Width: 522
Flags: W
LayerCount: 2
Fore
SplineSet
225 478 m 2,0,-1
 324 669 l 2,1,2
 332.723762376 685.830693069 332.723762376 685.830693069 348.5 695.5 c 0,3,4
 366 706 366 706 385 706 c 0,5,6
 421 706 421 706 442 673 c 0,7,8
 462.105210918 641.836923077 462.105210918 641.836923077 444 607 c 2,9,-1
 299 328 l 2,10,-1
 299 73 l 2,11,12
 299 43 299 43 277.5 21.5 c 128,-1,13
 256 0 256 0 226 0 c 256,14,15
 196 0 196 0 174.5 20.5 c 128,-1,16
 153 41 153 41 153 73 c 2,17,-1
 153 329 l 2,18,-1
 8 607 l 2,19,20
 -9 640 -9 640 9.89012671101 672.94246635 c 0,21,22
 29 706 29 706 68 706 c 0,23,24
 86 706 86 706 102.5 696 c 0,25,26
 119 687 119 687 128 669 c 2,27,-1
 225 478 l 2,0,-1
EndSplineSet
Validated: 33
EndChar

StartChar: Z
Encoding: 90 90 88
Width: 536
Flags: W
LayerCount: 2
Fore
SplineSet
152 150 m 1,0,-1
 446.57421875 512.719726562 l 2,1,2
 462.999809681 532.945141659 462.999809681 532.945141659 463.080078125 556.08203125 c 2,3,-1
 463 644 l 2,4,5
 463 682 463 682 430.3359375 700.458984375 c 0,6,7
 414.868151115 709.073430358 414.868151115 709.073430358 398.092773438 709.069335938 c 2,8,-1
 62 708.987304688 l 2,9,10
 35 709 35 709 15.990234375 689.990234375 c 128,-1,11
 -3 671 -3 671 -2.9873046875 644 c 128,-1,12
 -3 617 -3 617 15.998046875 598.001953125 c 128,-1,13
 34.9955243344 579.004475666 34.9955243344 579.004475666 62 579.012695312 c 2,14,-1
 331.501953125 579.094726562 l 1,15,-1
 18.8828125 172.262695312 l 2,16,17
 2.36174658197 151.455593957 2.36174658197 151.455593957 2.3779296875 128.900390625 c 2,18,-1
 2.4208984375 69.0126953125 l 2,19,20
 2 41 2 41 22.53125 21.9833984375 c 0,21,22
 41.0302731117 3.97052245388 41.0302731117 3.97052245388 67.365234375 3.98046875 c 2,23,-1
 403.500976562 4.107421875 l 2,24,25
 430 4 430 4 449.462890625 23.1328125 c 0,26,27
 468 42 468 42 468.48828125 69.0947265625 c 0,28,29
 468 96 468 96 449.462890625 115.056640625 c 0,30,31
 430 134 430 134 403.500976562 134.08203125 c 2,32,-1
 152 132 l 1,33,-1
 152 150 l 1,0,-1
EndSplineSet
Validated: 41
EndChar

StartChar: bracketleft
Encoding: 91 91 89
Width: 278
Flags: W
LayerCount: 2
Fore
SplineSet
129 -52 m 1,0,-1
 157 -52 l 2,1,2
 179 -52 179 -52 193.5 -67 c 128,-1,3
 208 -82 208 -82 208 -103 c 256,4,5
 208 -124 208 -124 193 -139 c 256,6,7
 178 -154 178 -154 157 -154 c 2,8,-1
 65 -154 l 2,9,10
 38 -154 38 -154 19 -135 c 256,11,12
 0 -116 0 -116 0 -89 c 2,13,-1
 0 704 l 2,14,15
 0 730 0 730 19 749 c 0,16,17
 39 769 39 769 65 769 c 2,18,-1
 156 769 l 2,19,20
 179 769 179 769 193.5 753.5 c 128,-1,21
 208 738 208 738 208 717 c 256,22,23
 208 696 208 696 193.5 680.5 c 128,-1,24
 179 665 179 665 156 665 c 2,25,-1
 129 665 l 1,26,-1
 129 -52 l 1,0,-1
EndSplineSet
Validated: 1
EndChar

StartChar: asciicircum
Encoding: 94 94 92
Width: 514
Flags: W
LayerCount: 2
Fore
SplineSet
232 706 m 2,0,1
 270.882352941 706 270.882352941 706 291 668 c 1,2,-1
 439 346 l 2,3,4
 451.12 321.76 451.12 321.76 436 298 c 256,5,6
 420.727272727 274 420.727272727 274 393 274 c 256,7,8
 379 274 379 274 365.5 283 c 128,-1,9
 352 292 352 292 347 304 c 2,10,-1
 232 555 l 2,11,12
 229 561 229 561 223 561 c 256,13,14
 217 561 217 561 214 555 c 2,15,-1
 98 304 l 1,16,17
 81.8461538462 274 81.8461538462 274 52.5594405594 274 c 0,18,19
 23.2727272727 274 23.2727272727 274 8.13636363636 297.5 c 128,-1,20
 -7 321 -7 321 5 347 c 2,21,-1
 154 668 l 2,22,23
 161 684 161 684 178 696 c 0,24,25
 195 706 195 706 213 706 c 2,26,-1
 232 706 l 2,0,1
EndSplineSet
Validated: 33
EndChar

StartChar: underscore
Encoding: 95 95 93
Width: 631
Flags: W
LayerCount: 2
Fore
SplineSet
3 -78 m 256,0,1
 3 -52 3 -52 21 -34 c 0,2,3
 40 -15 40 -15 65 -15 c 2,4,-1
 407 -15 l 1,5,-1
 539 -15 l 2,6,7
 565 -15 565 -15 584 -34 c 0,8,9
 602 -52 602 -52 602 -78 c 256,10,11
 602 -104 602 -104 584 -122 c 0,12,13
 564 -140 564 -140 539 -140 c 2,14,-1
 407 -140 l 1,15,-1
 65 -140 l 2,16,17
 41 -140 41 -140 21 -122 c 0,18,19
 3 -104 3 -104 3 -78 c 256,0,1
EndSplineSet
Validated: 1
EndChar

StartChar: braceleft
Encoding: 123 123 121
Width: 442
Flags: W
LayerCount: 2
Fore
SplineSet
259 614 m 1,0,-1
 258 577 l 1,1,-1
 258 435 l 2,2,3
 258 357 258 357 219 331 c 0,4,5
 206 321 206 321 190 317 c 0,6,7
 188 315 188 315 188 313 c 128,-1,8
 188 311 188 311 197 308 c 0,9,10
 258 287.666666667 258 287.666666667 258 192 c 2,11,-1
 258 36 l 1,12,-1
 259 0 l 1,13,14
 260.925925926 -28.8888888889 260.925925926 -28.8888888889 268.042059008 -40.4444444444 c 128,-1,15
 275.15819209 -52 275.15819209 -52 310 -52 c 2,16,-1
 321 -52 l 2,17,18
 343 -52 343 -52 357.5 -67 c 128,-1,19
 372 -82 372 -82 372 -103 c 256,20,21
 372 -124 372 -124 357 -139 c 256,22,23
 342 -154 342 -154 321 -154 c 2,24,-1
 291 -154 l 2,25,26
 209.352941176 -154 209.352941176 -154 168 -117 c 1,27,28
 130 -77 130 -77 130 11 c 2,29,-1
 130 172 l 1,30,-1
 129 206 l 1,31,32
 125.263157895 235.894736842 125.263157895 235.894736842 122.131578947 240.947368421 c 0,33,34
 110.942708333 259 110.942708333 259 66 259 c 2,35,-1
 55 259 l 2,36,37
 32 259 32 259 16 275 c 256,38,39
 0 291 0 291 0 314 c 256,40,41
 0 337 0 337 16 353 c 256,42,43
 32 369 32 369 50 369 c 2,44,-1
 78 369 l 2,45,46
 111.4 369 111.4 369 121 385 c 0,47,48
 126.666666667 390.666666667 126.666666667 390.666666667 129 421 c 1,49,-1
 130 456 l 1,50,-1
 130 604 l 2,51,52
 130 693 130 693 168 731 c 256,53,54
 206 769 206 769 291 769 c 2,55,-1
 320 769 l 2,56,57
 343 769 343 769 357.5 753.5 c 128,-1,58
 372 738 372 738 372 717 c 256,59,60
 372 696 372 696 357.5 680.5 c 128,-1,61
 343 665 343 665 326.25 665 c 2,62,-1
 301.75 665 l 2,63,64
 274.8 665 274.8 665 267.810191083 653.152866242 c 128,-1,65
 260.820382166 641.305732484 260.820382166 641.305732484 259 614 c 1,0,-1
EndSplineSet
Validated: 1
EndChar

StartChar: bar
Encoding: 124 124 122
Width: 188
Flags: W
LayerCount: 2
Fore
SplineSet
0 735 m 2,0,1
 0 774.772727273 0 774.772727273 36 789.5 c 0,2,3
 47 794 47 794 59 794 c 256,4,5
 98.7727272727 794 98.7727272727 794 113.5 758 c 0,6,7
 118 747 118 747 118 735 c 2,8,-1
 118 -78 l 2,9,10
 118 -103 118 -103 101 -120 c 128,-1,11
 84 -137 84 -137 59 -137 c 256,12,13
 34 -137 34 -137 17 -120 c 0,14,15
 0 -103 0 -103 0 -78 c 2,16,-1
 0 735 l 2,0,1
EndSplineSet
Validated: 1
EndChar

StartChar: Aring
Encoding: 197 197 126
Width: 546
Flags: W
LayerCount: 2
Fore
SplineSet
160.601314099 699.01475879 m 1025,0,-1
280 713 m 0,1,2
 280 745.76953125 280 745.76953125 249.5 757.5 c 0,3,4
 243 760 243 760 230.099609375 760 c 0,5,6
 203 760 203 760 189 732 c 0,7,8
 186 723 186 723 186 712.5 c 0,9,10
 186 677.666992188 186 677.666992188 215 668 c 0,11,12
 222 664 222 664 233 664 c 0,13,14
 253 664 253 664 267 678 c 0,15,16
 280 691 280 691 280 713 c 0,1,2
233 835 m 128,-1,18
 287 835 287 835 323 799 c 0,19,20
 361 763.111328125 361 763.111328125 361 713 c 0,21,22
 361 695.473502187 361 695.473502187 356.701572571 679.782054653 c 1,23,24
 372.670131306 670.778875191 372.670131306 670.778875191 385.794921875 658.794921875 c 0,25,26
 460 591 460 591 461 492 c 2,27,-1
 461 73 l 2,28,29
 461 42 461 42 440 21 c 128,-1,30
 419 -0 419 -0 388.5 0 c 128,-1,31
 358 0 358 0 337 21 c 128,-1,32
 316 42 316 42 316 73 c 2,33,-1
 316 225 l 1,34,-1
 145 225 l 1,35,-1
 145 73 l 2,36,37
 145 42 145 42 124 21 c 128,-1,38
 103 0 103 0 72.5 0 c 128,-1,39
 42 0 42 0 21 21 c 128,-1,40
 0 42 0 42 0 73 c 2,41,-1
 0 492 l 2,42,43
 0 598 0 598 86 662.5 c 0,44,45
 97.5139883277 671.135491246 97.5139883277 671.135491246 109.785054392 678.109779228 c 1,46,47
 105 694.547509742 105 694.547509742 105 713 c 0,48,49
 105 763 105 763 143 799 c 0,50,17
 179 835 179 835 233 835 c 128,-1,18
316 353 m 1,51,-1
 316 486 l 2,52,53
 316 525 316 525 296 550.5 c 128,-1,54
 276 576 276 576 231 575.5 c 128,-1,55
 186 575 186 575 165.5 548 c 128,-1,56
 145 521 145 521 145 486 c 2,57,-1
 145 353 l 1,58,-1
 316 353 l 1,51,-1
EndSplineSet
Validated: 524321
EndChar

StartChar: Ccedilla
Encoding: 199 199 127
Width: 531
Flags: W
LayerCount: 2
Fore
SplineSet
184 -10 m 1,0,1
 113 2 113 2 61 49 c 1,2,3
 27 86 27 86 15.5 122 c 0,4,5
 0 170 0 170 0 213 c 2,6,-1
 0 491 l 2,7,8
 0 562 0 562 28 608 c 1,9,10
 67 688 67 688 164 711 c 0,11,12
 193 718 193 718 230.5 718 c 0,13,14
 295 718 295 718 353 689 c 0,15,16
 381.444444444 674.777777778 381.444444444 674.777777778 396.769230769 657.263736264 c 2,17,-1
 418 633 l 1,18,19
 437 608 437 608 435 580 c 256,20,21
 433 552 433 552 410.5 534.5 c 128,-1,22
 388 517 388 517 364.5 519.5 c 0,23,24
 324 524 324 524 303 548 c 0,25,26
 285 569 285 569 268.324324324 578.486486486 c 0,27,28
 252 588 252 588 224 588 c 128,-1,29
 196 588 196 588 172 564 c 0,30,31
 145 537 145 537 145 507 c 2,32,-1
 145 219 l 2,33,34
 145 145 145 145 193 123 c 0,35,36
 206 117 206 117 230 117 c 256,37,38
 273 117 273 117 294 144 c 0,39,40
 316 172 316 172 316 218 c 2,41,-1
 316 219 l 2,42,43
 316 249 316 249 337 270 c 0,44,45
 356 289 356 289 388 291 c 0,46,47
 414 293 414 293 439 270 c 0,48,49
 461 250 461 250 461 219 c 2,50,-1
 461 213 l 2,51,52
 461 111 461 111 399 49 c 0,53,54
 355 5 355 5 270 -12 c 0,55,56
 260 -14 260 -14 254 -26 c 0,57,58
 247 -40 247 -40 260 -42 c 0,59,60
 318 -51 318 -51 338 -94 c 0,61,62
 345 -109 345 -109 345 -130 c 128,-1,63
 345 -151 345 -151 339 -165 c 0,64,65
 321 -207 321 -207 275 -222 c 0,66,67
 257 -228 257 -228 236.5 -228 c 0,68,69
 185 -228 185 -228 163 -217 c 0,70,71
 161 -216 161 -216 159 -215.5 c 128,-1,72
 157 -215 157 -215 155 -213.5 c 128,-1,73
 153 -212 153 -212 150.5 -211 c 0,74,75
 132 -203 132 -203 128.324324324 -186.22972973 c 0,76,77
 125 -167 125 -167 134 -155 c 0,78,79
 148 -137 148 -137 170 -140 c 0,80,81
 182 -142 182 -142 185.833333333 -145.333333333 c 4,82,83
 190 -149 190 -149 191 -149 c 128,-1,84
 192 -149 192 -149 194.5 -150.5 c 0,85,86
 195.5 -151.1 195.5 -151.1 210 -154 c 260,87,88
 220 -156 220 -156 227 -156 c 0,89,90
 247 -156 247 -156 253.7 -151 c 0,91,92
 267 -140 267 -140 267 -132.722222222 c 0,93,94
 267 -125 267 -125 264.5 -121.5 c 0,95,96
 256 -109 256 -109 246.761363636 -107.465909091 c 0,97,98
 232 -105 232 -105 226 -105 c 256,99,100
 221 -105 221 -105 218 -106 c 0,101,102
 201.846153846 -107.615384615 201.846153846 -107.615384615 191 -104 c 0,103,104
 188.461538462 -103.153846154 188.461538462 -103.153846154 186 -101 c 2,105,-1
 178 -94 l 1,106,-1
 170 -86 l 2,107,108
 164 -80 164 -80 162 -72 c 256,109,110
 160 -63 160 -63 164 -57 c 1,111,-1
 173 -37 l 1,112,-1
 184 -10 l 1,0,1
EndSplineSet
Validated: 33
EndChar

StartChar: aring
Encoding: 229 229 137
Width: 531
Flags: W
LayerCount: 2
Fore
SplineSet
103 688 m 1,0,1
 113.8 693.4 113.8 693.4 107.4 705.7 c 0,2,3
 94 731.453125 94 731.453125 94 762.7265625 c 0,4,5
 94 821 94 821 135.45 858.5 c 128,-1,6
 176.9 896 176.9 896 231 896 c 256,7,8
 288 896 288 896 327 857 c 0,9,10
 368 820.1 368 820.1 368 765 c 0,11,12
 368 732.714285714 368 732.714285714 352 703 c 0,13,14
 348.571428571 692.714285714 348.571428571 692.714285714 356 689 c 1,15,16
 390.434782609 666.043478261 390.434782609 666.043478261 401.217391304 654.52173913 c 0,17,18
 461 590.641129032 461 590.641129032 461 492 c 2,19,-1
 461 73 l 2,20,21
 461 42 461 42 440 21 c 0,22,23
 434.6 15.6 434.6 15.6 416.8 8.8 c 128,-1,24
 399 2 399 2 388 0 c 0,25,26
 358 0 358 0 337 21 c 256,27,28
 316 42 316 42 316 73 c 2,29,-1
 316 215 l 2,30,31
 316 219 316 219 313 222 c 256,32,33
 310 225 310 225 306 225 c 2,34,-1
 155 225 l 2,35,36
 145 225 145 225 145 215 c 2,37,-1
 145 73 l 2,38,39
 145 42 145 42 124 21 c 256,40,41
 103 0 103 0 72.5 0 c 128,-1,42
 42 0 42 0 21 21 c 256,43,44
 0 42 0 42 0 73 c 2,45,-1
 0 492 l 2,46,47
 0 624.25 0 624.25 102 688 c 1,48,-1
 103 688 l 1,0,1
229 720 m 1,49,-1
 232 720 l 1,50,51
 240.846153846 718.230769231 240.846153846 718.230769231 248 723 c 0,52,53
 275 733.125 275 733.125 275 765 c 0,54,55
 275 784.857142857 275 784.857142857 262 796 c 0,56,57
 251.166666667 809 251.166666667 809 231 809 c 256,58,59
 209.833333333 809 209.833333333 809 198.416666667 796.196261682 c 128,-1,60
 187 783.392523364 187 783.392523364 187 768.696261682 c 0,61,62
 187 729.571428571 187 729.571428571 220.5 720 c 0,63,64
 224 719 224 719 229 720 c 1,49,-1
316 363 m 2,65,-1
 316 486 l 2,66,67
 316 529.833333333 316 529.833333333 294 561 c 0,68,69
 272.785714286 588 272.785714286 588 230.5 588 c 128,-1,70
 188.214285714 588 188.214285714 588 171.607142857 566 c 0,71,72
 145 530.752688172 145 530.752688172 145 486 c 2,73,-1
 145 363 l 2,74,75
 145 359 145 359 148 356 c 256,76,77
 151 353 151 353 155 353 c 2,78,-1
 306 353 l 2,79,80
 310 353 310 353 313 356 c 0,81,82
 314 358 314 358 315 359.5 c 128,-1,83
 316 361 316 361 316 363 c 2,65,-1
EndSplineSet
Validated: 1
EndChar

StartChar: dagger
Encoding: 265 8224 157
Width: 580
Flags: W
LayerCount: 2
Fore
SplineSet
255 -165 m 256,0,1
 226 -165 226 -165 205 -144 c 0,2,3
 184 -125 184 -125 184 -94 c 2,4,-1
 184 116 l 1,5,-1
 184 326 l 2,6,7
 184 330 184 330 181 333 c 0,8,9
 179 336 179 336 174 336 c 2,10,-1
 119 336 l 1,11,-1
 63 336 l 2,12,13
 37 336 37 336 18 355 c 0,14,15
 0 373 0 373 0 399 c 256,16,17
 0 425 0 425 18 443 c 0,18,19
 37 462 37 462 63 462 c 2,20,-1
 119 462 l 1,21,-1
 174 462 l 2,22,23
 179 462 179 462 181 465 c 0,24,25
 184 468 184 468 184 472 c 2,26,-1
 184 553 l 1,27,-1
 184 635 l 2,28,29
 184 664 184 664 205 685 c 256,30,31
 226 706 226 706 255 706 c 256,32,33
 284 706 284 706 305 685 c 256,34,35
 326 664 326 664 326 635 c 2,36,-1
 326 553 l 1,37,-1
 326 472 l 2,38,39
 326 469 326 469 328 465 c 0,40,41
 331 462 331 462 336 462 c 2,42,-1
 391 462 l 1,43,-1
 447 462 l 2,44,45
 474 462 474 462 491 443 c 0,46,47
 510 426 510 426 510 399 c 256,48,49
 510 372 510 372 491 355 c 0,50,51
 474 336 474 336 447 336 c 2,52,-1
 391 336 l 1,53,-1
 336 336 l 2,54,55
 331 336 331 336 328 333 c 0,56,57
 326 329 326 329 326 326 c 2,58,-1
 326 116 l 1,59,-1
 326 -94 l 2,60,61
 326 -125 326 -125 305 -144 c 0,62,63
 284 -165 284 -165 255 -165 c 256,0,1
EndSplineSet
Validated: 1
EndChar

StartChar: degree
Encoding: 176 176 158
Width: 326
Flags: W
LayerCount: 2
Fore
SplineSet
128 788 m 132,-1,1
 182 788 182 788 218 752 c 4,2,3
 256 716.111111111 256 716.111111111 256 666 c 4,4,5
 256 613.888888889 256 613.888888889 218 578 c 4,6,7
 182 542 182 542 128 542 c 132,-1,8
 74 542 74 542 38 578 c 4,9,10
 0 614 0 614 0 666 c 4,11,12
 0 716 0 716 38 752 c 4,13,0
 74 788 74 788 128 788 c 132,-1,1
175 666 m 4,14,15
 175 698.769230769 175 698.769230769 144.5 710.5 c 4,16,17
 138 713 138 713 125.1 713 c 4,18,19
 98 713 98 713 84 685 c 4,20,21
 81 676 81 676 81 665.5 c 4,22,23
 81 630.666666667 81 630.666666667 110 621 c 4,24,25
 117 617 117 617 128 617 c 260,26,27
 148 617 148 617 162 631 c 260,28,29
 175 644 175 644 175 666 c 4,14,15
EndSplineSet
Validated: 1
EndChar

StartChar: cent
Encoding: 162 162 159
Width: 505
Flags: W
LayerCount: 2
Fore
SplineSet
270 629 m 2,0,1
 270 619 270 619 278 619 c 0,2,3
 359.162162162 604.243243243 359.162162162 604.243243243 404 553 c 0,4,5
 411 545 411 545 418 537 c 0,6,7
 437 512 437 512 435 484 c 256,8,9
 433 456 433 456 410.5 438.5 c 128,-1,10
 388 421 388 421 364.5 423.5 c 0,11,12
 321.395721925 428.085561497 321.395721925 428.085561497 303 452 c 0,13,14
 299 457 299 457 295.5 460.5 c 2,15,-1
 288 468 l 2,16,17
 283 472 283 472 279 475.5 c 0,18,19
 260.142857143 492 260.142857143 492 230 492 c 0,20,21
 204.714285714 492 204.714285714 492 189 481 c 0,22,23
 161.098765432 464.259259259 161.098765432 464.259259259 149 432.5 c 0,24,25
 145 422 145 422 145 411 c 2,26,-1
 145 295 l 2,27,28
 145 275 145 275 159 254 c 0,29,30
 183.117647059 213 183.117647059 213 230 213 c 0,31,32
 244.75 213 244.75 213 254.875 217.5 c 128,-1,33
 265 222 265 222 270 224.5 c 128,-1,34
 275 227 275 227 279 230.5 c 128,-1,35
 283 234 283 234 287.5 238 c 0,36,37
 296.846153846 246.307692308 296.846153846 246.307692308 304.923076923 256.653846154 c 0,38,39
 321.074688797 277.34329184 321.074688797 277.34329184 354.537344398 281.17164592 c 128,-1,40
 388 285 388 285 405 272 c 0,41,42
 432.788461538 250.75 432.788461538 250.75 434.894230769 222.375 c 128,-1,43
 437 194 437 194 418 169 c 0,44,45
 411 161 411 161 404 153 c 128,-1,46
 397 145 397 145 389 137.5 c 0,47,48
 348.879699248 99.8872180451 348.879699248 99.8872180451 278 87 c 0,49,50
 276 87 276 87 275 86 c 128,-1,51
 274 85 274 85 272 84 c 0,52,53
 270 80 270 80 270 77 c 2,54,-1
 270 38 l 2,55,56
 270 22 270 22 259 11 c 256,57,58
 248 0 248 0 232 0 c 2,59,-1
 227 0 l 2,60,61
 201.857142857 0 201.857142857 0 192 23 c 0,62,63
 189 30 189 30 189 38 c 2,64,-1
 189 77 l 2,65,66
 189 87 189 87 181 87 c 0,67,68
 129.752293578 99.2018348624 129.752293578 99.2018348624 111.876146789 109.600917431 c 0,69,70
 84.8358155776 125.331076748 84.8358155776 125.331076748 61 147 c 0,71,72
 26.9116022099 184.497237569 26.9116022099 184.497237569 15.5 220 c 0,73,74
 0 268.222222222 0 268.222222222 0 311 c 2,75,-1
 0 395 l 2,76,77
 0 466.5 0 466.5 28 512 c 1,78,79
 66.9253731343 593.094527363 66.9253731343 593.094527363 161 614 c 0,80,81
 170 616 170 616 181 618 c 0,82,83
 189 622 189 622 189 628 c 2,84,-1
 189 668 l 2,85,86
 189 684 189 684 200 695 c 128,-1,87
 211 706 211 706 227 706 c 2,88,-1
 232 706 l 2,89,90
 248 706 248 706 259 695 c 256,91,92
 270 684 270 684 270 668 c 2,93,-1
 270 629 l 2,0,1
EndSplineSet
Validated: 33
EndChar

StartChar: sterling
Encoding: 163 163 160
Width: 557
Flags: W
LayerCount: 2
Fore
SplineSet
218 282 m 5,0,-1
 218 250 l 1,1,2
 217 239 217 239 216 223.5 c 128,-1,3
 215 208 215 208 213 196 c 128,-1,4
 211 184 211 184 209.5 174.5 c 0,5,6
 205 147 205 147 202.615384615 141.230769231 c 0,7,8
 196 126 196 126 211 126 c 2,9,-1
 424 126 l 2,10,11
 449 126 449 126 468 107 c 128,-1,12
 487 88 487 88 487 63.5 c 0,13,14
 487 37 487 37 468.5 18.5 c 128,-1,15
 450 0 450 0 424 0 c 2,16,-1
 76 0 l 2,17,18
 50 0 50 0 31 19 c 128,-1,19
 12 38 12 38 12 64 c 2,20,-1
 12 68 l 2,21,22
 12 104 12 104 46 124 c 0,23,24
 62 133 62 133 71.5 186 c 0,25,26
 74 200 74 200 77 214 c 256,27,28
 80 228 80 228 80 257 c 1,29,-1
 80 282 l 1,30,-1
 51 282 l 2,31,32
 30 282 30 282 15 297 c 256,33,34
 0 312 0 312 0 333 c 256,35,36
 0 352 0 352 15 369 c 0,37,38
 28 384 28 384 51 384 c 2,39,-1
 78 384 l 2,40,-1
 78 520 l 2,41,42
 78 566 78 566 87.5 589.2 c 0,43,44
 97 612 97 612 106 628.5 c 0,45,46
 134 679 134 679 198.5 705 c 0,47,48
 236 720 236 720 282 720 c 2,49,-1
 285 720 l 2,50,51
 323 720 323 720 347.625 712.5 c 0,52,53
 372 705 372 705 379 702.5 c 0,54,55
 428 685 428 685 470 634 c 0,56,57
 489 611 489 611 486.5 581 c 128,-1,58
 484 551 484 551 462 535 c 0,59,60
 439 518 439 518 415.5 520.5 c 0,61,62
 376 525 376 525 355 549 c 0,63,64
 335 572 335 572 317.456521739 581.47826087 c 128,-1,65
 300 591 300 591 267 590 c 1,66,67
 234 584 234 584 223 546 c 0,68,69
 219 532 219 532 219 515 c 2,70,-1
 219 384 l 2,71,-1
 317 384 l 2,72,73
 339 384 339 384 353.5 369 c 128,-1,74
 368 354 368 354 368 333 c 256,75,76
 368 312 368 312 353 297 c 256,77,78
 338 282 338 282 317 282 c 2,79,-1
 218 282 l 5,0,-1
EndSplineSet
Validated: 33
EndChar

StartChar: section
Encoding: 167 167 161
Width: 615
Flags: W
LayerCount: 2
Fore
SplineSet
418 259 m 256,0,1
 418 298 418 298 364 325 c 0,2,3
 356 329 356 329 347 332.5 c 128,-1,4
 338 336 338 336 329 340 c 2,5,-1
 240 370 l 2,6,7
 232 373 232 373 221.25 376.75 c 0,8,9
 210 381 210 381 191.5 379.5 c 128,-1,10
 173 378 173 378 163.5 371.5 c 128,-1,11
 154 365 154 365 152 365 c 1,12,13
 127 340 127 340 127 319 c 0,14,15
 127 273 127 273 165.5 255.5 c 0,16,17
 173 252 173 252 181 248 c 256,18,19
 189 244 189 244 198 240.5 c 128,-1,20
 207 237 207 237 216 233 c 2,21,-1
 305 203 l 2,22,23
 308 202 308 202 309 202 c 0,24,25
 314 200.5 l 0,26,27
 345.579553057 193.195000669 345.579553057 193.195000669 352.833333333 193.833333333 c 0,28,29
 372.73812038 195.546990496 372.73812038 195.546990496 382.75 201.5 c 0,30,31
 389 205 389 205 392 207 c 2,32,33
 401 215 l 2,34,35
 418 229 418 229 418 259 c 256,0,1
94 453 m 1,36,37
 61 498 61 498 61 540.166666667 c 0,38,39
 61 631 61 631 130 681.5 c 0,40,41
 147 694 147 694 158.76 699.24 c 0,42,43
 171 704 171 704 180.5 707.5 c 0,44,45
 220 722 220 722 268.928571429 722 c 128,-1,46
 318 722 318 722 363.5 706.5 c 128,-1,47
 409 691 409 691 435 663 c 0,48,49
 463 633 463 633 448 595 c 256,50,51
 433 558 433 558 391 556 c 1,52,-1
 390 556 l 2,53,54
 364 556 364 556 347 573.5 c 128,-1,55
 330 591 330 591 314 596.5 c 0,56,57
 286 606 286 606 257.181818182 606 c 0,58,59
 228 606 228 606 209 590.5 c 128,-1,60
 190 575 190 575 190 554.5 c 0,61,62
 190 515.244444444 190 515.244444444 272 487 c 2,63,-1
 362 456 l 2,64,65
 405 441 405 441 445 420 c 0,66,67
 515 383 515 383 537 322 c 0,68,69
 545 300 545 300 545 260 c 128,-1,70
 545 220 545 220 518.75 182 c 0,71,72
 492 143 492 143 447.5 119 c 1,73,74
 484 77 484 77 484 33.2222222222 c 0,75,76
 484 -50 484 -50 429 -97 c 0,77,78
 402 -120 402 -120 388.033898305 -125.542372881 c 128,-1,79
 374 -131 374 -131 364.5 -134.5 c 0,80,81
 325 -149 325 -149 276.071428571 -149 c 128,-1,82
 227 -149 227 -149 181.5 -133.5 c 128,-1,83
 136 -118 136 -118 110 -90 c 0,84,85
 82 -60 82 -60 97 -22 c 256,86,87
 104 -5 104 -5 119 6 c 128,-1,88
 134 17 134 17 154 17 c 2,89,-1
 155 17 l 2,90,91
 182 17 182 17 204 -5 c 1,92,93
 226 -33 226 -33 285 -33 c 0,94,95
 318 -33 318 -33 336.4375 -17 c 128,-1,96
 355 -1 355 -1 355 19 c 256,97,98
 355 57.7555555556 355 57.7555555556 273 86 c 2,99,-1
 183 117 l 2,100,101
 131 135 131 135 96.4072164948 154.113402062 c 0,102,103
 0 208 0 208 0 305 c 0,104,105
 0 353 0 353 30 394.5 c 128,-1,106
 60 436 60 436 94 453 c 1,36,37
EndSplineSet
Validated: 33
EndChar

StartChar: bullet
Encoding: 266 8226 162
Width: 460
Flags: W
LayerCount: 2
Fore
SplineSet
1.919921875 343.040039062 m 128,-1,1
 1.919921875 422.719726562 1.919921875 422.719726562 57.599609375 479.360351562 c 128,-1,2
 113.280273438 536 113.280273438 536 192 536 c 128,-1,3
 270.719726562 536 270.719726562 536 326.400390625 479.360351562 c 128,-1,4
 382.080078125 422.719726562 382.080078125 422.719726562 382.080078125 343.040039062 c 128,-1,5
 382.080078125 263.360351562 382.080078125 263.360351562 326.400390625 206.719726562 c 128,-1,6
 270.719726562 150.080078125 270.719726562 150.080078125 192 150.080078125 c 128,-1,7
 113.280273438 150.080078125 113.280273438 150.080078125 57.599609375 206.719726562 c 128,-1,0
 1.919921875 263.360351562 1.919921875 263.360351562 1.919921875 343.040039062 c 128,-1,1
EndSplineSet
Validated: 1
EndChar

StartChar: germandbls
Encoding: 223 223 163
Width: 522
Flags: W
LayerCount: 2
Fore
SplineSet
145 306 m 1,0,-1
 148.5 -91 l 1,1,2
 148 -122 148 -122 127.25 -143.5 c 0,3,4
 106 -165 106 -165 74 -165 c 0,5,6
 44 -165 44 -165 22.5 -143 c 0,7,8
 0 -121 0 -121 0.5 -91 c 1,9,-1
 0 65 l 1,10,-1
 0 641 l 2,11,12
 0 678 0 678 29 695 c 0,13,14
 47 706 47 706 65 706 c 2,15,-1
 226 706 l 2,16,17
 239 706 239 706 250.5 704.5 c 128,-1,18
 262 703 262 703 268.5 702.5 c 128,-1,19
 275 702 275 702 282 700 c 256,20,21
 289 698 289 698 301 695 c 128,-1,22
 313 692 313 692 332 682.5 c 128,-1,23
 351 673 351 673 356 669 c 256,24,25
 361 665 361 665 369 660 c 128,-1,26
 377 655 377 655 388 642.5 c 128,-1,27
 399 630 399 630 403 625 c 0,28,29
 406 620 406 620 410 614 c 0,30,31
 418 601 418 601 422 591 c 2,32,-1
 432 568 l 2,33,34
 439 551.9 439 551.9 439 525 c 2,35,-1
 439 500 l 2,36,37
 439 488 439 488 435.5 475.5 c 128,-1,38
 432 463 432 463 430.5 456 c 128,-1,39
 429 449 429 449 425 441.5 c 128,-1,40
 421 434 421 434 419 430 c 128,-1,41
 417 426 417 426 414.5 422.5 c 128,-1,42
 412 419 412 419 410 415.5 c 128,-1,43
 408 412 408 412 397 398.5 c 128,-1,44
 386 385 386 385 381.5 382 c 128,-1,45
 377 379 377 379 376.5 378 c 128,-1,46
 376 377 376 377 375 376 c 1,47,48
 375 372 l 2,49,50
 375 367 375 367 382 361 c 128,-1,51
 389 355 389 355 392.5 351.5 c 128,-1,52
 396 348 396 348 399.5 345 c 128,-1,53
 403 342 403 342 406 338 c 256,54,55
 409 334 409 334 421 320 c 128,-1,56
 433 306 433 306 440.5 281.5 c 128,-1,57
 448 257 448 257 448.5 250.5 c 128,-1,58
 449 244 449 244 450 238 c 256,59,60
 452 226 452 226 452 216 c 0,61,62
 452 159 452 159 435 125 c 0,63,64
 432 119 432 119 426 106 c 128,-1,65
 420 93 420 93 405 78 c 256,66,67
 400 73 400 73 392 64 c 128,-1,68
 384 55 384 55 377 50 c 0,69,70
 370 44 370 44 364 40 c 0,71,-1
 315 16 l 258,72,-1
 280 6 l 258,73,74
 214.826714801 -12.6209386282 214.826714801 -12.6209386282 199 22 c 0,75,76
 162 103 162 103 229 128 c 2,77,78
 273 137 273 137 277.5 146 c 0,79,80
 278 147 278 147 288.25 156.5 c 0,81,82
 295 163 295 163 297.5 169.5 c 128,-1,83
 300 176 300 176 304 184.5 c 128,-1,84
 308 193 308 193 308 207 c 2,85,-1
 308 226 l 2,86,87
 308 248 308 248 294 269 c 0,88,89
 282 286 282 286 255 300 c 0,90,91
 251 302 251 302 247 302.5 c 128,-1,92
 243 303 243 303 236.5 304.5 c 128,-1,93
 230 306 230 306 220 306 c 2,94,-1
 145 306 l 1,0,-1
145 579 m 2,95,-1
 145 431 l 1,96,-1
 220 431 l 2,97,98
 261 431 261 431 284 462 c 0,99,100
 293 475 293 475 294 489 c 0,101,102
 295 497 295 497 296 505 c 256,103,104
 297 522 297 522 292.5 529.5 c 0,105,106
 289 537 289 537 285.5 544.5 c 128,-1,107
 282 552 282 552 271 560.5 c 128,-1,108
 260 569 260 569 256.5 570 c 128,-1,109
 253 571 253 571 245 574.5 c 0,110,111
 238 578 238 578 220 578 c 2,112,-1
 145 579 l 2,95,-1
EndSplineSet
Validated: 33
EndChar

StartChar: registered
Encoding: 174 174 164
Width: 601
Flags: W
LayerCount: 2
Fore
SplineSet
265.199018775 577.399414062 m 2,0,-1
 265.199018775 513.799804688 l 2,1,2
 265.199018775 513.116536193 265.199018775 513.116536193 265.307817819 512.674794509 c 0,3,4
 265.654018748 512.598432838 265.654018748 512.598432838 266.400390625 512.598432838 c 2,5,-1
 310.80078125 512.598432838 l 2,6,7
 331.782548187 512.598432838 331.782548187 512.598432838 340.491960018 521.307844669 c 128,-1,8
 349.201371849 530.0172565 349.201371849 530.0172565 349.201371849 545.265399294 c 128,-1,9
 349.201371849 560.513542089 349.201371849 560.513542089 340.157749938 569.557164001 c 128,-1,10
 331.114128027 578.600785912 331.114128027 578.600785912 310.80078125 578.600785912 c 2,11,-1
 266.400390625 578.600785912 l 2,12,13
 265.71712213 578.600785912 265.71712213 578.600785912 265.275380446 578.491986868 c 0,14,15
 265.199018775 578.145785939 265.199018775 578.145785939 265.199018775 577.399414062 c 2,0,-1
266.623113935 449.001176537 m 2,16,17
 266.147374918 448.737616009 266.147374918 448.737616009 265.199018775 447.547632137 c 2,18,-1
 265.199018775 378.19921875 l 2,19,20
 265.199018775 362.513542089 265.199018775 362.513542089 254.442835999 351.757359313 c 128,-1,21
 243.686653223 341.001176537 243.686653223 341.001176537 229.015653888 341.001176537 c 0,22,23
 212.284368028 341.001176537 212.284368028 341.001176537 203.320359074 352.324135938 c 0,24,25
 192.001176537 361.322366755 192.001176537 361.322366755 192.001176537 378.19921875 c 2,26,-1
 192.001176537 603.799804688 l 2,27,28
 192.001176537 620.685676661 192.001176537 620.685676661 204.558140563 633.242640687 c 128,-1,29
 217.114128027 645.798628151 217.114128027 645.798628151 235.200195312 645.798628151 c 2,30,-1
 321.600585938 645.798628151 l 2,31,32
 366.087108807 645.798628151 366.087108807 645.798628151 394.24256067 617.642134765 c 128,-1,33
 422.399214088 589.485481372 422.399214088 589.485481372 422.399214088 547.399414062 c 0,34,35
 422.399214088 521.334085166 422.399214088 521.334085166 407.822725806 495.602679022 c 0,36,37
 393.38204965 470.111017661 393.38204965 470.111017661 368.399214088 458.447535891 c 1,38,-1
 368.399214088 456.648463997 l 1,39,-1
 386.764419713 425.657121126 l 2,40,41
 407.264070485 394.314322663 407.264070485 394.314322663 407.447459154 393.917001275 c 0,42,43
 411.493964665 385.150030022 411.493964665 385.150030022 411.493964665 376.292090598 c 128,-1,44
 411.493964665 367.434151173 411.493964665 367.434151173 407.538107006 360.130842102 c 128,-1,45
 403.582249346 352.827533031 403.582249346 352.827533031 399.713836381 348.959120067 c 0,46,47
 391.755892851 341.001176537 391.755892851 341.001176537 381 341.001176537 c 0,48,49
 356.431025845 341.001176537 356.431025845 341.001176537 347.530261443 358.522979065 c 0,50,51
 296.428943967 445.275973662 296.428943967 445.275973662 296.117428812 445.431984917 c 2,52,-1
 289.730860839 449.001176537 l 1,53,-1
 266.623113935 449.001176537 l 2,16,17
494.401567162 488.599609375 m 128,-1,55
 494.401567162 577.312370224 494.401567162 577.312370224 438.557637691 633.156773381 c 128,-1,56
 382.713708221 689.001176537 382.713708221 689.001176537 299.36512427 689.001176537 c 0,57,58
 213.609483971 689.001176537 213.609483971 689.001176537 159.138283913 632.053570736 c 0,59,60
 104.399214088 577.315448709 104.399214088 577.315448709 104.399214088 488.599609375 c 128,-1,61
 104.399214088 399.886848526 104.399214088 399.886848526 159.042214097 345.243848517 c 0,62,63
 214.756827299 286.998823463 214.756827299 286.998823463 298.135184694 286.998823463 c 128,-1,64
 381.513542089 286.998823463 381.513542089 286.998823463 439.757359313 345.242640687 c 0,65,54
 494.401567162 399.885902381 494.401567162 399.885902381 494.401567162 488.599609375 c 128,-1,55
33.6017624743 488.599609375 m 128,-1,67
 33.6017624743 602.685653609 33.6017624743 602.685653609 109.757359313 678.842250062 c 128,-1,68
 185.913932714 754.998823463 185.913932714 754.998823463 299.400390625 754.998823463 c 128,-1,69
 412.886848536 754.998823463 412.886848536 754.998823463 489.04345033 678.842221669 c 128,-1,70
 565.199018775 602.68565361 565.199018775 602.68565361 565.199018775 488.599609375 c 128,-1,71
 565.199018775 374.513565141 565.199018775 374.513565141 489.043421937 298.356968688 c 128,-1,72
 412.886848536 222.200395287 412.886848536 222.200395287 299.400390625 222.200395287 c 128,-1,73
 185.913932714 222.200395287 185.913932714 222.200395287 109.75733092 298.356997081 c 128,-1,66
 33.6017624743 374.51356514 33.6017624743 374.51356514 33.6017624743 488.599609375 c 128,-1,67
EndSplineSet
Validated: 1
EndChar

StartChar: copyright
Encoding: 169 169 165
Width: 870
Flags: W
LayerCount: 2
Fore
SplineSet
431.034279286 121.073788937 m 0,0,1
 349.628044581 121.073788937 349.628044581 121.073788937 290.172299436 176.693533402 c 0,2,3
 259.649654646 206.126507096 259.649654646 206.126507096 241.834085694 246.997518222 c 0,4,5
 218.093804047 298.431678422 218.093804047 298.431678422 218.093804047 354.615183337 c 0,6,7
 218.093804047 392.121686925 218.093804047 392.121686925 227.344653324 426.603365726 c 0,8,9
 251.316062151 515.950971961 251.316062151 515.950971961 330.143772967 559.743916924 c 0,10,11
 330.425383194 559.900366237 330.425383194 559.900366237 330.714630564 560.037298801 c 0,12,13
 382.209405262 584.42940556 382.209405262 584.42940556 438.182193416 584.42940556 c 0,14,15
 459.530551067 584.42940556 459.530551067 584.42940556 481.530327765 580.881072558 c 0,16,17
 541.171008999 571.705822415 541.171008999 571.705822415 576.876050855 532.752558773 c 0,18,19
 595.914014631 511.984165241 595.914014631 511.984165241 598.625026343 499.780888621 c 0,20,21
 600.270239293 492.378025319 600.270239293 492.378025319 600.270239293 485.591794317 c 0,22,23
 600.270239293 458.35112499 600.270239293 458.35112499 574.482804146 441.634869762 c 0,24,25
 564.15419212 434.773198171 564.15419212 434.773198171 551.435884966 434.773198171 c 0,26,27
 526.023063277 434.773198171 526.023063277 434.773198171 507.401084204 456.498840422 c 0,28,29
 497.252438749 468.338926786 497.252438749 468.338926786 475.659528372 475.248598942 c 128,-1,30
 454.066617995 482.158271099 454.066617995 482.158271099 434.850630617 482.158271099 c 0,31,32
 407.187034432 482.158271099 407.187034432 482.158271099 382.960336043 468.314744734 c 0,33,34
 345.547695018 446.93609272 345.547695018 446.93609272 333.74086751 397.739480761 c 0,35,36
 329.467163419 379.220096365 329.467163419 379.220096365 329.467163419 359.920784185 c 0,37,38
 329.467163419 326.400097775 329.467163419 326.400097775 342.359944029 290.526548931 c 0,39,40
 361.130400518 242.674578123 361.130400518 242.674578123 400.923269411 230.56378097 c 0,41,42
 401.445374509 230.404880415 401.445374509 230.404880415 401.946207707 230.190237616 c 0,43,44
 416.494635594 223.955197093 416.494635594 223.955197093 434.862581365 223.955197093 c 0,45,46
 440.071823986 223.955197093 440.071823986 223.955197093 445.588277452 224.456692863 c 0,47,48
 498.376650293 229.255309994 498.376650293 229.255309994 522.702792547 260.61690534 c 0,49,50
 534.983733107 281.001829693 534.983733107 281.001829693 560.843048721 281.001829693 c 0,51,52
 572.260118693 281.001829693 572.260118693 281.001829693 583.165980094 277.036061911 c 128,-1,53
 594.071841495 273.070294129 594.071841495 273.070294129 601.672798743 265.469336881 c 128,-1,54
 609.273755991 257.868379633 609.273755991 257.868379633 612.226604145 247.398974579 c 128,-1,55
 615.1794523 236.929569525 615.1794523 236.929569525 615.1794523 229.732684795 c 0,56,57
 615.1794523 202.89110771 615.1794523 202.89110771 586.637869924 177.520419378 c 0,58,59
 533.521721903 124.404271357 533.521721903 124.404271357 452.604567552 122.016656999 c 0,60,61
 441.633370645 121.073788937 441.633370645 121.073788937 431.034279286 121.073788937 c 0,0,1
418 70.9980391054 m 0,62,63
 493.00540331 70.9980391054 493.00540331 70.9980391054 543.171312679 91.7397131714 c 128,-1,64
 593.340682291 112.482817915 593.340682291 112.482817915 631.928932188 151.071067812 c 128,-1,65
 670.3582773 189.500412924 670.3582773 189.500412924 689.604460406 242.427416467 c 0,66,67
 689.663948639 242.591009106 689.663948639 242.591009106 689.729310486 242.752884842 c 0,68,69
 710.001960895 292.951828711 710.001960895 292.951828711 710.001960895 352.5 c 0,70,71
 710.001960895 476.917371381 710.001960895 476.917371381 632.838806547 554.019025203 c 0,72,73
 552 635 552 635 434 635.001960895 c 0,74,75
 377.926377071 635.001960895 377.926377071 635.001960895 326.846758404 614.664707434 c 128,-1,76
 275.767139737 594.327453973 275.767139737 594.327453973 238.56358551 557.123899747 c 128,-1,77
 201.360031284 519.92034552 201.360031284 519.92034552 178.259253065 463.218920688 c 0,78,79
 157.998039105 412.083475933 157.998039105 412.083475933 157.998039105 352.5 c 128,-1,80
 157.998039105 292.951828711 157.998039105 292.951828711 178.270689514 242.752884842 c 0,81,82
 220.874560437 134.307782355 220.874560437 134.307782355 323.828725217 91.7396975029 c 0,83,84
 373.99459669 70.9980391054 373.99459669 70.9980391054 418 70.9980391054 c 0,62,63
701.29751938 621.350912228 m 0,85,86
 809.998039105 512.650392503 809.998039105 512.650392503 809.998039105 353.253515628 c 128,-1,87
 809.998039105 193.856638753 809.998039105 193.856638753 701.143484532 85.0020841799 c 0,88,89
 624.602668921 6.89843168857 624.602668921 6.89843168857 509.445872159 -15.8081750464 c 0,90,91
 472.982990145 -22.9980391054 472.982990145 -22.9980391054 434 -22.9980391054 c 0,92,93
 358.590830947 -22.9980391054 358.590830947 -22.9980391054 287.757871334 5.53487923764 c 0,94,95
 145.835127624 62.7041699107 145.835127624 62.7041699107 86.7461563055 206.205670567 c 0,96,97
 59.0019608946 274.024814905 59.0019608946 274.024814905 59.0019608946 353 c 0,98,99
 59.0019608946 513.144096518 59.0019608946 513.144096518 166.928932188 621.071067812 c 0,100,101
 245.34217422 699.484309844 245.34217422 699.484309844 358.554127841 721.808175046 c 0,102,103
 395.017009855 728.998039105 395.017009855 728.998039105 434 728.998039105 c 128,-1,104
 472.982990145 728.998039105 472.982990145 728.998039105 509.445862838 721.808176884 c 0,105,106
 623.287860534 699.360571074 623.287860534 699.360571074 701.29751938 621.350912228 c 0,85,86
EndSplineSet
Validated: 1
EndChar

StartChar: trademark
Encoding: 267 8482 166
Width: 763
Flags: W
LayerCount: 2
Fore
SplineSet
102.120117188 618.5859375 m 1,0,-1
 49.1181640625 618.5859375 l 2,1,2
 30.9736328125 618.5859375 30.9736328125 618.5859375 18.0361328125 631.5234375 c 128,-1,3
 5.1201171875 644.58203125 5.1201171875 644.58203125 5.1201171875 663.119140625 c 128,-1,4
 5.1201171875 681.727539062 5.1201171875 681.727539062 18.046875 694.654296875 c 128,-1,5
 30.9736328125 707.58203125 30.9736328125 707.58203125 49.1181640625 707.58203125 c 2,6,-1
 259.118164062 707.58203125 l 2,7,8
 277.26171875 707.58203125 277.26171875 707.58203125 290.188476562 694.654296875 c 0,9,10
 290.516601562 694.327148438 290.516601562 694.327148438 290.806640625 693.978515625 c 0,11,12
 303.116210938 679.20703125 303.116210938 679.20703125 303.116210938 661.823242188 c 128,-1,13
 303.116210938 644.439453125 303.116210938 644.439453125 290.188476562 631.512695312 c 128,-1,14
 277.26171875 618.5859375 277.26171875 618.5859375 259.118164062 618.5859375 c 2,15,-1
 208.116210938 618.5859375 l 1,16,-1
 208.116210938 395.583984375 l 2,17,18
 208.116210938 373.439453125 208.116210938 373.439453125 192.688476562 358.012695312 c 128,-1,19
 177.26171875 342.5859375 177.26171875 342.5859375 154.618164062 342.5859375 c 128,-1,20
 131.973632812 342.5859375 131.973632812 342.5859375 117.046875 357.512695312 c 128,-1,21
 102.120117188 372.439453125 102.120117188 372.439453125 102.120117188 395.583984375 c 2,22,-1
 102.120117188 618.5859375 l 1,0,-1
484.116210938 395.583984375 m 2,23,24
 484.116210938 374.439453125 484.116210938 374.439453125 469.688476562 360.012695312 c 128,-1,25
 455.26171875 345.5859375 455.26171875 345.5859375 434.017578125 345.5859375 c 0,26,27
 410.443359375 345.5859375 410.443359375 345.5859375 397.282226562 361.256835938 c 128,-1,28
 384.120117188 376.927734375 384.120117188 376.927734375 384.120117188 396.583984375 c 2,29,-1
 384.120117188 648.583984375 l 2,30,31
 384.120117188 674.727539062 384.120117188 674.727539062 402.546875 693.154296875 c 128,-1,32
 420.973632812 711.58203125 420.973632812 711.58203125 446.868164062 711.58203125 c 128,-1,33
 472.76171875 711.58203125 472.76171875 711.58203125 493.688476562 690.654296875 c 0,34,35
 499.83984375 684.50390625 499.83984375 684.50390625 503.032226562 678.118164062 c 2,36,-1
 532.936523438 619.303710938 l 1,37,-1
 562 565 l 1,38,-1
 590.203125 619.118164062 l 1,39,-1
 620.203125 678.118164062 l 2,40,41
 626.517578125 690.537109375 626.517578125 690.537109375 643.576171875 701.909179688 c 0,42,43
 658.083984375 711.58203125 658.083984375 711.58203125 676.118164062 711.58203125 c 0,44,45
 702.26171875 711.58203125 702.26171875 711.58203125 720.688476562 693.154296875 c 128,-1,46
 739.116210938 674.727539062 739.116210938 674.727539062 739.116210938 648.583984375 c 2,47,-1
 739.116210938 395.583984375 l 2,48,49
 739.116210938 374.439453125 739.116210938 374.439453125 724.688476562 360.012695312 c 128,-1,50
 710.26171875 345.5859375 710.26171875 345.5859375 689.118164062 345.5859375 c 128,-1,51
 667.973632812 345.5859375 667.973632812 345.5859375 653.546875 360.012695312 c 128,-1,52
 639.120117188 374.439453125 639.120117188 374.439453125 639.120117188 396.645507812 c 2,53,-1
 639.873046875 518.670898438 l 1,54,-1
 593.913085938 433.8203125 l 2,55,56
 582.952148438 413.5859375 582.952148438 413.5859375 562.118164062 413.5859375 c 0,57,58
 540.116210938 413.5859375 540.116210938 413.5859375 529.360351562 433.752929688 c 2,59,-1
 484.116210938 515.7578125 l 1,60,-1
 484.116210938 395.583984375 l 2,23,24
EndSplineSet
Validated: 1
EndChar

StartChar: acute
Encoding: 180 180 167
Width: 239
Flags: W
LayerCount: 2
Fore
SplineSet
36 880 m 2,0,1
 46 900 46 900 68 900 c 2,2,-1
 134 900 l 2,3,4
 156 900 156 900 164 882 c 0,5,6
 174 866 174 866 163 847 c 1,7,-1
 108 764 l 1,8,9
 88.7142857143 737 88.7142857143 737 59 737 c 0,10,11
 28 737 28 737 10 764 c 256,12,13
 -9.38461538462 793.076923077 -9.38461538462 793.076923077 6 820 c 1,14,-1
 36 880 l 2,0,1
EndSplineSet
Validated: 33
EndChar

StartChar: dieresis
Encoding: 168 168 168
Width: 419
Flags: W
LayerCount: 2
Fore
SplineSet
22 852 m 0,0,1
 44 874 44 874 66.5 874 c 0,2,3
 105 874 105 874 122 856.5 c 0,4,5
 149 828.705882353 149 828.705882353 149 799 c 0,6,7
 149 769 149 769 127 747 c 0,8,9
 107.2 725 107.2 725 75 725 c 0,10,11
 41.8 725 41.8 725 22 747 c 0,12,13
 0 769 0 769 0 799 c 256,14,15
 0 826.333333333 0 826.333333333 22 852 c 0,0,1
217 846.291666667 m 128,-1,17
 234 864 234 864 246.5 869 c 128,-1,18
 259 874 259 874 282 874 c 128,-1,19
 305 874 305 874 322 856.5 c 0,20,21
 349 828.705882353 349 828.705882353 349 799 c 0,22,23
 349 769 349 769 327 747 c 0,24,25
 307.2 725 307.2 725 275 725 c 0,26,27
 241.8 725 241.8 725 222 747 c 0,28,29
 200 769 200 769 200 798.791666667 c 128,-1,16
 200 828.583333333 200 828.583333333 217 846.291666667 c 128,-1,17
EndSplineSet
Validated: 1
EndChar

StartChar: notequal
Encoding: 268 8800 169
Width: 550
Flags: W
LayerCount: 2
Fore
SplineSet
259.354492188 569.852539062 m 2
 267.244140625 587.779296875 267.244140625 587.779296875 282.354492188 597.852539062 c 0
 299.354492188 607.852539062 299.354492188 607.852539062 316.354492188 607.852539062 c 256
 351.354492188 607.852539062 351.354492188 607.852539062 370 579 c 0
 388.354492188 551.852539062 388.354492188 551.852539062 374.354492188 519.852539062 c 2
 171.354492188 56.3525390625 l 2
 161.01171875 32.73828125 161.01171875 32.73828125 137.354492188 24.8525390625 c 0
 131.354492188 22.8525390625 131.354492188 22.8525390625 125.854492188 21.3525390625 c 0
 120.354492188 18.8525390625 120.354492188 18.8525390625 108.354492188 18.8525390625 c 0
 96.3544921875 18.8525390625 96.3544921875 18.8525390625 82.3544921875 26.3525390625 c 0
 68.3544921875 34.8525390625 68.3544921875 34.8525390625 60.3544921875 46.8525390625 c 0
 42.3642578125 76.8369140625 42.3642578125 76.8369140625 55.3544921875 106.352539062 c 2
 259.354492188 569.852539062 l 2
EndSplineSet
Refer: 59 61 N 1 0 0 1 0 0 2
Validated: 37
EndChar

StartChar: AE
Encoding: 198 198 170
Width: 757
Flags: WO
LayerCount: 2
Fore
SplineSet
452 432 m 2,0,-1
 452 577 l 1,1,-1
 620 578 l 2,2,3
 647 578 647 578 666.081054688 597.081054688 c 128,-1,4
 685 616 685 616 685 643 c 256,5,6
 685 668 685 668 666 689 c 0,7,8
 649 708 649 708 620 708 c 2,9,-1
 260 708 l 2,10,11
 249 708 249 708 239.5 704.5 c 0,12,13
 210 694 210 694 198 664 c 1,14,-1
 4 91 l 2,15,16
 -7.11588434976 58.1680323072 -7.11588434976 58.1680323072 13 29 c 0,17,18
 32 0 32 0 69 0 c 0,19,20
 91 0 91 0 109.5 13.5 c 0,21,22
 127.128474043 27.0991085475 127.128474043 27.0991085475 134 48 c 2,23,-1
 158 121 l 2,24,-1
 306 121 l 2,25,-1
 306 65 l 2,26,27
 306 38 306 38 325 19 c 256,28,29
 344 0 344 0 371 0 c 2,30,-1
 622 0 l 2,31,32
 649 0 649 0 668 19 c 256,33,34
 687 38 687 38 687 65 c 256,35,36
 687 94 687 94 668 111 c 0,37,38
 647 130 647 130 622 130 c 2,39,-1
 452 130 l 1,40,-1
 451 302 l 2,41,-1
 578 302 l 2,42,43
 605 302 605 302 624 322 c 256,44,45
 643 341 643 341 643 368.5 c 0,46,47
 643 394 643 394 623.893700787 413.106299213 c 0,48,49
 605 432 605 432 578 432 c 2,50,-1
 452 432 l 2,0,-1
181 234 m 2,51,-1
 307 582 l 1,52,-1
 306 236 l 2,53,-1
 181 234 l 2,51,-1
EndSplineSet
Validated: 524329
EndChar

StartChar: Oslash
Encoding: 216 216 171
Width: 531
Flags: W
LayerCount: 2
Fore
SplineSet
349 679 m 1,0,-1
 354 689 l 1,1,2
 361 705 361 705 379 711.5 c 0,3,4
 395 717 395 717 414 709 c 0,5,6
 430 702 430 702 436.5 684 c 128,-1,7
 443 666 443 666 434 648 c 2,8,-1
 418 616 l 2,9,10
 444 596 444 596 455 512.5 c 0,11,12
 457 497 457 497 457 480 c 2,13,-1
 457 228 l 2,14,15
 457 126 457 126 395 64 c 0,16,17
 331 0 331 0 226 0 c 0,18,19
 159 0 159 0 107 28 c 1,20,-1
 101 18 l 1,21,22
 88 -7 88 -7 57.5 -7 c 0,23,24
 48 -7 48 -7 40 -2 c 0,25,26
 22 8 22 8 17 24.5 c 128,-1,27
 12 41 12 41 20 59 c 1,28,-1
 27 71 l 1,29,-1
 37 87 l 0,30,31
 32 96 32 96 30 99.5 c 0,32,33
 26 106 26 106 25.3330078125 107 c 0,34,35
 25 108 25 108 20.5 115.5 c 0,36,37
 14 126 14 126 5 159.5 c 128,-1,38
 -4 193 -4 193 -4 228 c 2,39,-1
 -4 480 l 2,40,41
 -4 598 -4 598 79 662.5 c 0,42,43
 112 688 112 688 153 698 c 128,-1,44
 194 708 194 708 226 708 c 0,45,46
 293 708 293 708 349 679 c 1,0,-1
296 549 m 1,47,48
 286 562 286 562 256 572 c 256,49,50
 244 576 244 576 224 576 c 0,51,52
 178 576 178 576 136.607421875 520 c 0,53,54
 110 484 110 484 110 440 c 2,55,-1
 110 253 l 2,56,-1
 296 549 l 1,47,48
168 149 m 1,57,58
 177 144 177 144 186.5 139.5 c 0,59,60
 203 132 203 132 226 132 c 0,61,62
 294 133 294 133 334 202 c 0,63,64
 348.167245437 224.410006419 348.167245437 224.410006419 351.912109375 238.55859375 c 0,65,66
 356 253 356 253 356 277 c 2,67,-1
 356 449 l 2,68,-1
 168 149 l 1,57,58
EndSplineSet
Validated: 524321
EndChar

StartChar: infinity
Encoding: 269 8734 172
Width: 922
Flags: W
LayerCount: 2
Fore
SplineSet
149.497070312 363.583984375 m 2,0,-1
 149.465820312 368.502929688 l 2,1,2
 149.465820312 392.274414062 149.465820312 392.274414062 156.294921875 409.609375 c 0,3,4
 182.561523438 474.998046875 182.561523438 474.998046875 247.5 474.998046875 c 0,5,6
 268.264648438 474.998046875 268.264648438 474.998046875 286.482421875 467.213867188 c 0,7,8
 344.944335938 442.234375 344.944335938 442.234375 345.497070312 364.88671875 c 0,9,10
 344.953125 311.53125 344.953125 311.53125 318.278320312 283.721679688 c 0,11,12
 288.62109375 254.064453125 288.62109375 254.064453125 247.5 253.501953125 c 0,13,14
 229.311523438 253.501953125 229.311523438 253.501953125 209.634765625 260.864257812 c 128,-1,15
 189.778320312 268.29296875 189.778320312 268.29296875 177.234375 280.837890625 c 0,16,17
 149.497070312 308.575195312 149.497070312 308.575195312 149.497070312 363.583984375 c 2,0,-1
51.4892578125 246.067382812 m 0,18,19
 115.338867188 135.998046875 115.338867188 135.998046875 247.237304688 135.998046875 c 0,20,21
 344.944335938 135.998046875 344.944335938 135.998046875 408.983398438 200.27734375 c 0,22,23
 433.1640625 224.547851562 433.1640625 224.547851562 448.282226562 253.981445312 c 1,24,25
 449.122070312 252.48828125 449.122070312 252.48828125 449.987304688 251.014648438 c 0,26,27
 513.836914062 140.9453125 513.836914062 140.9453125 645.735351562 140.9453125 c 0,28,29
 743.44140625 140.9453125 743.44140625 140.9453125 807.481445312 205.224609375 c 128,-1,30
 871.521484375 269.50390625 871.521484375 269.50390625 872 370 c 0,31,32
 871.522460938 459.802734375 871.522460938 459.802734375 807.192382812 533.733398438 c 0,33,34
 797.325195312 545.395507812 797.325195312 545.395507812 746.74609375 574.946289062 c 0,35,36
 710.171875 597.458984375 710.171875 597.458984375 648.64453125 597.458984375 c 0,37,38
 558.533203125 597.458984375 558.533203125 597.458984375 484.263671875 533.122070312 c 1,39,40
 463.42578125 497.939453125 463.42578125 497.939453125 449.272460938 468.4765625 c 1,41,42
 433.875976562 499.84765625 433.875976562 499.84765625 408.6953125 528.786132812 c 0,43,44
 398.827148438 540.448242188 398.827148438 540.448242188 348.249023438 569.999023438 c 0,45,46
 311.673828125 592.51171875 311.673828125 592.51171875 250.146484375 592.51171875 c 0,47,48
 160.036132812 592.51171875 160.036132812 592.51171875 85.7666015625 528.174804688 c 1,49,50
 27.48046875 429.766601562 27.48046875 429.766601562 21.494140625 376.103515625 c 1,51,-1
 21.494140625 372.485351562 l 2,52,53
 21.494140625 297.16015625 21.494140625 297.16015625 51.4892578125 246.067382812 c 0,18,19
547.995117188 368.53125 m 2,54,-1
 547.962890625 373.450195312 l 2,55,56
 547.962890625 397.221679688 547.962890625 397.221679688 554.791992188 414.556640625 c 0,57,58
 581.059570312 479.9453125 581.059570312 479.9453125 645.998046875 479.9453125 c 0,59,60
 666.76171875 479.9453125 666.76171875 479.9453125 684.98046875 472.161132812 c 0,61,62
 743.442382812 447.181640625 743.442382812 447.181640625 743.995117188 369.833984375 c 0,63,64
 743.450195312 316.478515625 743.450195312 316.478515625 716.776367188 288.668945312 c 0,65,66
 687.119140625 259.01171875 687.119140625 259.01171875 645.998046875 258.44921875 c 0,67,68
 627.80859375 258.44921875 627.80859375 258.44921875 608.131835938 265.811523438 c 128,-1,69
 588.276367188 273.240234375 588.276367188 273.240234375 575.731445312 285.78515625 c 0,70,71
 547.995117188 313.522460938 547.995117188 313.522460938 547.995117188 368.53125 c 2,54,-1
EndSplineSet
Validated: 9
EndChar

StartChar: plusminus
Encoding: 177 177 173
Width: 550
Flags: W
LayerCount: 2
Fore
SplineSet
60 0 m 2,0,1
 34 0 34 0 18 18 c 0,2,3
 0 34 0 34 0 59 c 128,-1,4
 0 84 0 84 18 102 c 0,5,6
 34 120 34 120 60 120 c 2,7,-1
 421 120 l 2,8,9
 445 120 445 120 462.5 102.5 c 128,-1,10
 480 85 480 85 480 59 c 128,-1,11
 480 33 480 33 463 18 c 0,12,13
 445 0 445 0 421 0 c 2,14,-1
 60 0 l 2,0,1
179 484 m 1,15,-1
 60 484 l 2,16,17
 33 484 33 484 18 467 c 0,18,19
 0 447 0 447 0 424.5 c 0,20,21
 0 400 0 400 18 382 c 0,22,23
 35 365 35 365 60 365 c 2,24,-1
 179 365 l 2,25,-1
 179 244 l 2,26,27
 179 220 179 220 197 202 c 256,28,29
 215 184 215 184 239 184 c 2,30,-1
 241 184 l 2,31,32
 266 184 266 184 283.396694215 201.396694215 c 0,33,34
 301 219 301 219 301 244 c 2,35,-1
 301 366 l 2,36,-1
 421 365 l 2,37,38
 445.79338843 364.79338843 445.79338843 364.79338843 463 382 c 256,39,40
 480 399 480 399 480 424.5 c 128,-1,41
 480 450 480 450 463 467 c 256,42,43
 446 484 446 484 421 484 c 2,44,-1
 300 484 l 2,45,-1
 301 605 l 2,46,47
 301.204918033 629.795081967 301.204918033 629.795081967 279 652 c 0,48,49
 266 665 266 665 241 665 c 2,50,-1
 239 665 l 2,51,52
 215 665 215 665 197 647 c 256,53,54
 179 629 179 629 179 605 c 2,55,-1
 179 484 l 1,15,-1
EndSplineSet
Validated: 524329
EndChar

StartChar: yen
Encoding: 165 165 176
Width: 522
Flags: W
LayerCount: 2
Fore
SplineSet
153 315 m 2,0,1
 153 325 153 325 143 325 c 2,2,-1
 49 325 l 2,3,4
 34 325 34 325 20 337 c 0,5,6
 8 351 8 351 8 366.5 c 128,-1,7
 8 382 8 382 20 396 c 0,8,9
 34 408 34 408 49 408 c 2,10,-1
 104 408 l 2,11,12
 110.333333333 408 110.333333333 408 108 415 c 1,13,-1
 8 607 l 2,14,15
 -10.2580645161 641.487455197 -10.2580645161 641.487455197 10 673 c 0,16,17
 28.8571428571 706 28.8571428571 706 68 706 c 0,18,19
 86 706 86 706 102.5 696 c 128,-1,20
 119 686 119 686 128 669 c 2,21,-1
 217 492 l 2,22,23
 220 487 220 487 226 487 c 256,24,25
 232 487 232 487 235 492 c 2,26,-1
 324 669 l 2,27,28
 331 685 331 685 348.5 695.5 c 128,-1,29
 366 706 366 706 385 706 c 0,30,31
 423.142857143 706 423.142857143 706 442 673 c 0,32,33
 462.258064516 641.487455197 462.258064516 641.487455197 444 607 c 2,34,-1
 344 415 l 2,35,36
 343 413 343 413 343.5 412 c 128,-1,37
 344 411 344 411 344 410 c 0,38,39
 346 408 346 408 349 408 c 2,40,-1
 405 408 l 2,41,42
 420 408 420 408 434 396 c 0,43,44
 446 382 446 382 446 366.5 c 128,-1,45
 446 351 446 351 434 337 c 0,46,47
 420 325 420 325 405 325 c 2,48,-1
 309 325 l 2,49,50
 299 325 299 325 299 315 c 2,51,-1
 299 286 l 2,52,53
 299 276 299 276 309 276 c 2,54,-1
 405 276 l 2,55,56
 420 276 420 276 434 264 c 0,57,58
 446 250 446 250 446 234 c 128,-1,59
 446 218 446 218 433.5 205.5 c 128,-1,60
 421 193 421 193 405 193 c 2,61,-1
 309 193 l 2,62,63
 305 193 305 193 301 191 c 0,64,65
 299 187 299 187 299 183 c 2,66,-1
 299 73 l 2,67,68
 299 43 299 43 277.5 21.5 c 128,-1,69
 256 0 256 0 226 0 c 256,70,71
 196 0 196 0 174.5 20.5 c 128,-1,72
 153 41 153 41 153 73 c 2,73,-1
 153 193 l 1,74,-1
 49 193 l 2,75,76
 33 193 33 193 20.5 205.5 c 128,-1,77
 8 218 8 218 8 234 c 128,-1,78
 8 250 8 250 20 264 c 0,79,80
 34 276 34 276 49 276 c 2,81,-1
 143 276 l 2,82,83
 153 276 153 276 153 286 c 2,84,-1
 153 315 l 2,0,1
EndSplineSet
Validated: 33
EndChar

StartChar: mu
Encoding: 181 181 177
Width: 546
Flags: W
LayerCount: 2
Fore
SplineSet
333 687 m 0,0,1
 356 708 356 708 384 708 c 0,2,3
 416 708 416 708 437 687 c 0,4,5
 456.705039917 666.309708087 456.705039917 666.309708087 457 644 c 2,6,-1
 462.5 228 l 2,7,8
 463.824454293 127.823093474 463.824454293 127.823093474 399.5 63 c 0,9,10
 336 0 336 0 240 0 c 0,11,12
 186 0 186 0 144 13.166015625 c 1,13,-1
 144 -87 l 2,14,15
 144 -120 144 -120 122 -144 c 0,16,17
 103 -165 103 -165 71 -165 c 0,18,19
 46 -165 46 -165 19 -144 c 0,20,21
 0 -130 0 -130 0 -91 c 0,22,23
 0 644 l 0,24,25
 1 671 1 671 17 687 c 0,26,27
 40 708 40 708 69 708 c 0,28,29
 102 708 102 708 121 687 c 0,30,31
 140.727503561 664.313370905 140.727503561 664.313370905 141 644 c 2,32,-1
 146.5 234 l 2,33,34
 147 194 147 194 155.5 181 c 0,35,36
 164 167 164 167 171.5 156 c 0,37,38
 188 132 188 132 231.5 132 c 0,39,40
 278 132 278 132 295.5 159 c 0,41,42
 306 175 306 175 313.5 196 c 0,43,44
 317.866570454 206.673838887 317.866570454 206.673838887 317.5 234 c 2,45,-1
 312 644 l 2,46,47
 312 667 312 667 333 687 c 0,0,1
EndSplineSet
Validated: 524321
EndChar

StartChar: product
Encoding: 274 8719 178
Width: 758
Flags: W
LayerCount: 2
Fore
SplineSet
264 8 m 0,0,1
 243 -13 243 -13 213.5 -13 c 128,-1,2
 184 -13 184 -13 161 8 c 0,3,4
 140 31 140 31 140 60 c 2,5,-1
 140 479 l 2,6,7
 140 532.331054688 140 532.331054688 157.22265625 575 c 1,8,-1
 90 575 l 2,9,10
 60 575 60 575 38 597 c 0,11,12
 17 618 17 618 17.5 648.5 c 128,-1,13
 18 679 18 679 38 699 c 0,14,15
 60 721 60 721 90 721 c 2,16,-1
 650 721 l 2,17,18
 680 721 680 721 702 699 c 0,19,20
 723 678 723 678 723.5 647.5 c 128,-1,21
 724 617 724 617 702 597 c 0,22,23
 680 575 680 575 650 575 c 2,24,-1
 584.002929688 575 l 1,25,26
 584.518554688 573.502929688 584.518554688 573.502929688 585 572 c 0,27,28
 601 522 601 522 601 479 c 2,29,-1
 601 60 l 2,30,31
 601 31 601 31 580 8 c 0,32,33
 559 -13 559 -13 528.5 -13 c 128,-1,34
 498 -13 498 -13 477 8 c 0,35,36
 456 31 456 31 456 60 c 2,37,-1
 456 473 l 2,38,39
 456 512 456 512 447.5 526 c 128,-1,40
 439 540 439 540 431 551 c 0,41,42
 414 575 414 575 371 575 c 128,-1,43
 328 575 328 575 307 548 c 0,44,45
 293 526 293 526 289 511.5 c 128,-1,46
 285 497 285 497 285 473 c 2,47,-1
 285 60 l 2,48,49
 285 31 285 31 264 8 c 0,0,1
EndSplineSet
Validated: 33
EndChar

StartChar: pi
Encoding: 275 960 179
Width: 758
Flags: W
LayerCount: 2
Fore
SplineSet
264 8 m 0,0,1
 243 -13 243 -13 213.5 -13 c 128,-1,2
 184 -13 184 -13 161 8 c 0,3,4
 140 31 140 31 140 60 c 2,5,-1
 140 479 l 2,6,7
 140 532.331054688 140 532.331054688 157.22265625 575 c 1,8,-1
 90 575 l 2,9,10
 60 575 60 575 38 597 c 0,11,12
 17 618 17 618 17.5 648.5 c 128,-1,13
 18 679 18 679 38 699 c 0,14,15
 60 721 60 721 90 721 c 2,16,-1
 650 721 l 2,17,18
 680 721 680 721 702 699 c 0,19,20
 723 678 723 678 723.5 647.5 c 128,-1,21
 724 617 724 617 702 597 c 0,22,23
 680 575 680 575 650 575 c 2,24,-1
 584.002929688 575 l 1,25,26
 584.518554688 573.502929688 584.518554688 573.502929688 585 572 c 0,27,28
 601 522 601 522 601 479 c 2,29,-1
 601 60 l 2,30,31
 601 31 601 31 580 8 c 0,32,33
 559 -13 559 -13 528.5 -13 c 128,-1,34
 498 -13 498 -13 477 8 c 0,35,36
 456 31 456 31 456 60 c 2,37,-1
 456 473 l 2,38,39
 456 512 456 512 447.5 526 c 128,-1,40
 439 540 439 540 431 551 c 0,41,42
 414 575 414 575 371 575 c 128,-1,43
 328 575 328 575 307 548 c 0,44,45
 293 526 293 526 289 511.5 c 128,-1,46
 285 497 285 497 285 473 c 2,47,-1
 285 60 l 2,48,49
 285 31 285 31 264 8 c 0,0,1
EndSplineSet
Validated: 33
EndChar

StartChar: integral
Encoding: 276 8747 180
Width: 640
Flags: W
LayerCount: 2
Fore
SplineSet
44.995023203 -52.981200414 m 1,0,-1
 112.902817948 -62.4733075661 l 2,1,2
 112.979727482 -62.4733075661 112.979727482 -62.4733075661 113.154467561 -62.4731798048 c 0,3,4
 152.572101136 -62.4731798048 152.572101136 -62.4731798048 165.097506691 -40.7945932667 c 128,-1,5
 177.622912246 -19.1160067286 177.622912246 -19.1160067286 186.278783212 26.7829389116 c 2,6,-1
 274.552127942 515.575393665 l 2,7,8
 283.584125148 565.647518527 283.584125148 565.647518527 293.113739733 597.747038033 c 0,9,10
 315.452887459 672.994142917 315.452887459 672.994142917 376.410362649 696.64379956 c 0,11,12
 410.509265492 710.499509776 410.509265492 710.499509776 466 710.499509776 c 128,-1,13
 521.5383121 710.499509776 521.5383121 710.499509776 555.518910938 695.051497199 c 128,-1,14
 589.499509776 679.603484622 589.499509776 679.603484622 589.499509776 647.5 c 128,-1,15
 589.499509776 615.225851657 589.499509776 615.225851657 567.82849468 607.640996374 c 0,16,17
 556.670070439 603.735547889 556.670070439 603.735547889 541.892311465 603.735547889 c 128,-1,18
 527.114552492 603.735547889 527.114552492 603.735547889 501.167883398 608.000753768 c 128,-1,19
 475.221214304 612.265959646 475.221214304 612.265959646 473.716734549 612.265959646 c 128,-1,20
 472.212254794 612.265959646 472.212254794 612.265959646 472.148849694 612.25829152 c 0,21,22
 443.161920289 608.626386383 443.161920289 608.626386383 432.267766953 597.732233047 c 128,-1,23
 421.213644187 586.678110282 421.213644187 586.678110282 416.978587199 572.561253653 c 128,-1,24
 412.74353021 558.444397024 412.74353021 558.444397024 316.197044078 28.8145715592 c 0,25,26
 307.293859486 -20.0260677064 307.293859486 -20.0260677064 297.313956175 -51.4683562026 c 0,27,28
 262.786367503 -160.249610927 262.786367503 -160.249610927 129.339652239 -160.249610927 c 0,29,30
 128.528751922 -160.249610927 128.528751922 -160.249610927 127.7142076 -160.245579144 c 128,-1,31
 126.749790195 -160.249822789 126.749790195 -160.249822789 125.792158014 -160.249822789 c 0,32,33
 42.7256786228 -160.249822789 42.7256786228 -160.249822789 11.7054152478 -128.830325058 c 0,34,35
 2 -119 2 -119 1.75024511182 -98.9256098878 c 128,-1,36
 1.50049022365 -78.8512197756 1.50049022365 -78.8512197756 16.5066534094 -65.9162100948 c 128,-1,37
 31.5128165951 -52.981200414 31.5128165951 -52.981200414 44.995023203 -52.981200414 c 1,0,-1
EndSplineSet
Validated: 33
EndChar

StartChar: ordmasculine
Encoding: 186 186 181
Width: 431
VWidth: 838
Flags: W
LayerCount: 2
Fore
SplineSet
284.25390625 656.75390625 m 6,0,1
 284.25390625 702.0078125 284.25390625 702.0078125 248 702.0078125 c 4,2,3
 229.506835938 702.0078125 229.506835938 702.0078125 222.0234375 692.030273438 c 4,4,5
 221.426757812 691.234375 221.426757812 691.234375 220.751953125 690.499023438 c 4,6,7
 210.99609375 679.856445312 210.99609375 679.856445312 210.99609375 656.75390625 c 6,8,-1
 210.99609375 428.75390625 l 6,9,10
 210.99609375 404.793945312 210.99609375 404.793945312 220.12890625 395.662109375 c 4,11,12
 221.151367188 394.638671875 221.151367188 394.638671875 222.013671875 393.489257812 c 4,13,14
 229.505859375 383.5 229.505859375 383.5 246.90625 383.5 c 132,-1,15
 264.307617188 383.5 264.307617188 383.5 272.52734375 391.720703125 c 4,16,17
 278.091796875 397.28515625 278.091796875 397.28515625 281.172851562 407.716796875 c 132,-1,18
 284.25390625 418.1484375 284.25390625 418.1484375 284.25390625 428.75390625 c 6,19,-1
 284.25390625 656.75390625 l 6,0,1
429.99609375 661.25390625 m 6,20,-1
 429.99609375 424.25390625 l 6,21,22
 429.99609375 344.950195312 429.99609375 344.950195312 380.833984375 297.788085938 c 4,23,24
 359.643554688 274.58984375 359.643554688 274.58984375 324.4375 261.048828125 c 132,-1,25
 289.231445312 247.5078125 289.231445312 247.5078125 248 247.5078125 c 4,26,27
 192.952148438 247.5078125 192.952148438 247.5078125 152.3828125 270.073242188 c 4,28,29
 112.577148438 290.13671875 112.577148438 290.13671875 87.4677734375 333.1796875 c 4,30,31
 65.25390625 371.260742188 65.25390625 371.260742188 65.25390625 424.25390625 c 6,32,-1
 65.25390625 661.25390625 l 6,33,34
 65.25390625 715.536132812 65.25390625 715.536132812 87.595703125 751.796875 c 4,35,36
 102.176757812 776.745117188 102.176757812 776.745117188 115.381835938 788.629882812 c 4,37,38
 145.383789062 815.6328125 145.383789062 815.6328125 165.3828125 822.298828125 c 132,-1,39
 185.380859375 828.96484375 185.380859375 828.96484375 196.625 831.775390625 c 4,40,41
 221.522460938 838 221.522460938 838 248 838 c 4,42,43
 301.798828125 838 301.798828125 838 349.064453125 811.978515625 c 4,44,45
 398.45703125 784.787109375 398.45703125 784.787109375 417.9375 730.673828125 c 4,46,47
 429.99609375 697.178710938 429.99609375 697.178710938 429.99609375 661.25390625 c 6,20,-1
EndSplineSet
Validated: 1
EndChar

StartChar: ae
Encoding: 230 230 182
Width: 757
Flags: W
LayerCount: 2
Fore
SplineSet
452 432 m 2,0,-1
 451 575 l 1,1,-1
 619 576 l 2,2,3
 646.161676647 576.161676647 646.161676647 576.161676647 665.080838317 595.080838323 c 128,-1,4
 684 614 684 614 684 641 c 256,5,6
 684 666 684 666 665 687 c 0,7,8
 648 706 648 706 619 706 c 2,9,-1
 259 706 l 2,10,11
 248 706 248 706 238.5 702.5 c 0,12,13
 209 692 209 692 197 662 c 1,14,-1
 4 91 l 2,15,16
 -7 58 -7 58 13 29 c 0,17,18
 32 0 32 0 69 0 c 0,19,20
 91 0 91 0 109.5 13.5 c 0,21,22
 127.128474043 27.0991085475 127.128474043 27.0991085475 134 48 c 2,23,-1
 158 121 l 2,24,-1
 306 121 l 2,25,-1
 306 65 l 2,26,27
 306 38 306 38 325 19 c 256,28,29
 344 0 344 0 371 0 c 2,30,-1
 622 0 l 2,31,32
 649 0 649 0 668 19 c 256,33,34
 687 38 687 38 687 65 c 256,35,36
 687 94 687 94 668 111 c 0,37,38
 647 130 647 130 622 130 c 2,39,-1
 452 130 l 1,40,-1
 451 302 l 2,41,-1
 578 302 l 2,42,43
 605 302.5 605 302.5 624 322 c 256,44,45
 643 341 643 341 643 368.5 c 0,46,47
 643 394 643 394 623.893700787 413.106299213 c 0,48,49
 605 432 605 432 578 432 c 2,50,-1
 452 432 l 2,0,-1
201 250 m 6,51,-1
 306 570 l 1,52,-1
 305 250 l 2,53,-1
 201 250 l 6,51,-1
EndSplineSet
Validated: 41
EndChar

StartChar: florin
Encoding: 279 402 186
Width: 640
Flags: W
LayerCount: 2
Fore
SplineSet
212.126848013 262.627746674 m 0,0,1
 163.521864181 262.627746674 163.521864181 262.627746674 146.285119482 279.864491373 c 0,2,3
 135.465551301 290.684059554 135.465551301 290.684059554 135.352083707 309.086711685 c 0,4,5
 135.508203367 340.561256853 135.508203367 340.561256853 158.934405019 352.074284358 c 0,6,7
 181.073406325 363.334043593 181.073406325 363.334043593 222.548129267 363.334043593 c 0,8,9
 223.166447128 363.334043593 223.166447128 363.334043593 223.7890625 363.331541026 c 2,10,-1
 247.090420346 363.331541026 l 1,11,-1
 274.552063505 515.575036287 l 2,12,13
 283.564390406 565.579546301 283.564390406 565.579546301 293.14751558 597.858340545 c 128,-1,14
 302.730640755 630.137134789 302.730640755 630.137134789 322.099978327 656.235809346 c 0,15,16
 361.146724183 710.499509776 361.146724183 710.499509776 465 710.499509776 c 0,17,18
 521.5383121 710.499509776 521.5383121 710.499509776 555.156209094 695.379090701 c 0,19,20
 589.495734988 679.605218572 589.495734988 679.605218572 589.569815773 647.935682727 c 0,21,22
 589.495495965 615.230838173 589.495495965 615.230838173 567.626995825 607.493632107 c 0,23,24
 556.379262164 603.600569771 556.379262164 603.600569771 541.463518577 603.600569771 c 128,-1,25
 526.54777499 603.600569771 526.54777499 603.600569771 509.730011732 606.173306767 c 0,26,27
 475.122799668 612.264191042 475.122799668 612.264191042 473.660311606 612.264191042 c 128,-1,28
 472.197823545 612.264191042 472.197823545 612.264191042 471.941769235 612.262681156 c 128,-1,29
 471.685714925 612.26117127 471.685714925 612.26117127 471.237306016 612.26117127 c 0,30,31
 446.79486661 612.26117127 446.79486661 612.26117127 434.005096273 599.470900827 c 128,-1,32
 421.215325935 586.680630384 421.215325935 586.680630384 413.827922734 562.057087869 c 128,-1,33
 406.440519533 537.433545354 406.440519533 537.433545354 395.636945505 472.099283152 c 128,-1,34
 384.833371477 406.76502095 384.833371477 406.76502095 377.160318569 363.331538224 c 1,35,36
 391.04482889 363.331538224 391.04482889 363.331538224 398.303964671 363.333043374 c 128,-1,37
 405.563100452 363.334548524 405.563100452 363.334548524 406.19171761 363.334548524 c 0,38,39
 453.607624994 363.334548524 453.607624994 363.334548524 469.407302951 347.534870567 c 0,40,41
 480.541057463 336.401116055 480.541057463 336.401116055 480.539761518 314.556205263 c 0,42,43
 480.538040167 285.54050964 480.538040167 285.54050964 459.70859969 274.084953057 c 128,-1,44
 438.879159214 262.629396474 438.879159214 262.629396474 398.10546875 262.629396474 c 2,45,-1
 359.172103965 262.629396474 l 1,46,-1
 316.196384647 28.8109689991 l 2,47,48
 306.315949456 -24.9456139258 306.315949456 -24.9456139258 297.814839698 -49.1144103617 c 0,49,50
 285.202546192 -89.7884072868 285.202546192 -89.7884072868 258.722918242 -116.26767357 c 0,51,52
 240.283539568 -134.707052244 240.283539568 -134.707052244 210.190696631 -147.478600127 c 128,-1,53
 180.097853695 -160.250148009 180.097853695 -160.250148009 129.554393023 -160.250148009 c 0,54,55
 128.637259048 -160.250148009 128.637259048 -160.250148009 127.7142076 -160.245579144 c 128,-1,56
 126.772685514 -160.249722045 126.772685514 -160.249722045 125.837607812 -160.249722045 c 0,57,58
 68.9086819984 -160.249722045 68.9086819984 -160.249722045 35.8662247796 -144.893826616 c 0,59,60
 1.51974649424 -129.634165321 1.51974649424 -129.634165321 1.18051260029 -99.5995547097 c 0,61,62
 1.518296591 -78.8876290359 1.518296591 -78.8876290359 15.4129500042 -66.0641554769 c 0,63,64
 15.4719696212 -66.0096825954 15.4719696212 -66.0096825954 15.5335768088 -65.9596966311 c 0,65,66
 31.2959360092 -53.1630707397 31.2959360092 -53.1630707397 51.8862915572 -53.1630707397 c 0,67,68
 57.7012295626 -53.1630707397 57.7012295626 -53.1630707397 78.9286245342 -57.8181862538 c 128,-1,69
 100.156019506 -62.4733017678 100.156019506 -62.4733017678 112.908360587 -62.4733017678 c 0,70,71
 112.982495774 -62.4733017678 112.982495774 -62.4733017678 113.0563695 -62.4731470353 c 128,-1,72
 113.108423507 -62.4731817975 113.108423507 -62.4731817975 113.160428533 -62.4731817975 c 0,73,74
 152.556897161 -62.4731817975 152.556897161 -62.4731817975 163.87137303 -42.4758878929 c 0,75,76
 178.614773107 -17.1275522532 178.614773107 -17.1275522532 186.279194252 26.7852089756 c 2,77,-1
 229.095422041 262.629399007 l 1,78,79
 221.075651972 262.629399007 221.075651972 262.629399007 216.832843294 262.628572841 c 128,-1,80
 212.590034615 262.627746674 212.590034615 262.627746674 212.126848013 262.627746674 c 0,0,1
EndSplineSet
Validated: 33
EndChar

StartChar: approxequal
Encoding: 280 8776 187
Width: 529
Flags: W
LayerCount: 2
Fore
SplineSet
15 353 m 1,0,-1
 14 353 l 1,1,-1
 14 354 l 1,2,3
 -2 371 -2 371 0 394 c 0,4,5
 1 405 1 405 5.5 414.5 c 128,-1,6
 10 424 10 424 19 432 c 0,7,8
 33 445 33 445 46 453.5 c 128,-1,9
 59 462 59 462 73 468 c 0,10,11
 99 479 99 479 132 481 c 0,12,13
 147 483 147 483 160 481 c 128,-1,14
 173 479 173 479 185 476 c 0,15,16
 197 472 197 472 207.5 468 c 128,-1,17
 218 464 218 464 228 459 c 256,18,19
 238 454 238 454 246.5 450.5 c 128,-1,20
 255 447 255 447 265 444 c 0,21,22
 285 439 285 439 305 439 c 0,23,24
 313 440 313 440 319.5 441 c 128,-1,25
 326 442 326 442 333 444 c 0,26,27
 339 446 339 446 345.5 449.5 c 128,-1,28
 352 453 352 453 359 458 c 0,29,30
 376 470 376 470 398 468 c 0,31,32
 419 465 419 465 433 449 c 0,33,34
 441 441 441 441 444 431 c 128,-1,35
 447 421 447 421 447 410 c 0,36,37
 445 387 445 387 429 372 c 0,38,39
 419 362 419 362 410 356 c 0,40,41
 401 348 401 348 392 344 c 0,42,43
 376 334 376 334 359 330 c 0,44,45
 343 325 343 325 319 323 c 0,46,47
 305 322 305 322 292.5 324 c 128,-1,48
 280 326 280 326 269 329 c 256,49,50
 258 332 258 332 248 336 c 128,-1,51
 238 340 238 340 228 345 c 0,52,53
 218 349 218 349 209 353 c 128,-1,54
 200 357 200 357 189 360 c 0,55,56
 168 366 168 366 144 365 c 0,57,58
 127 363 127 363 114 359 c 0,59,60
 107 357 107 357 101 353.5 c 128,-1,61
 95 350 95 350 88 345 c 0,62,63
 70 332 70 332 50 335 c 0,64,65
 28 337 28 337 15 353 c 1,0,-1
445 254 m 0,66,67
 461 235 461 235 459 214 c 0,68,69
 459 191 459 191 442 176 c 0,70,71
 437 171 437 171 432.5 167.5 c 128,-1,72
 428 164 428 164 423 160 c 0,73,74
 414 152 414 152 405 148 c 0,75,76
 397 143 397 143 389 139.5 c 128,-1,77
 381 136 381 136 372 134 c 0,78,79
 354 129 354 129 331 128 c 0,80,81
 305 127 305 127 283 133 c 0,82,83
 272 136 272 136 262.5 140 c 128,-1,84
 253 144 253 144 243 149 c 0,85,86
 223 158 223 158 203 164 c 0,87,88
 193 167 193 167 181.5 169 c 128,-1,89
 170 171 170 171 157 169 c 0,90,91
 140 169 140 169 127 163 c 0,92,93
 114 159 114 159 101 149 c 0,94,95
 84 137 84 137 62 139 c 0,96,97
 52 140 52 140 40 149 c 0,98,99
 34 153 34 153 27 158 c 0,100,101
 11 175 11 175 13 198 c 0,102,103
 15 223 15 223 32 237 c 0,104,105
 58 260 58 260 86 272 c 0,106,107
 100 278 100 278 114 281 c 128,-1,108
 128 284 128 284 144 286 c 0,109,110
 174 287 174 287 198 280 c 0,111,112
 210 277 210 277 220.5 272.5 c 128,-1,113
 231 268 231 268 242 263 c 0,114,115
 251 259 251 259 260 255 c 128,-1,116
 269 251 269 251 278 249 c 0,117,118
 297 243 297 243 318 244 c 0,119,120
 326 245 326 245 332.5 245.5 c 128,-1,121
 339 246 339 246 345 248 c 0,122,123
 358 252 358 252 372 262 c 0,124,125
 388 274 388 274 410 272 c 0,126,127
 432 269 432 269 445 254 c 0,66,67
EndSplineSet
Validated: 33
EndChar

StartChar: guillemotleft
Encoding: 171 171 188
Width: 523
Flags: W
LayerCount: 2
Fore
SplineSet
139 554 m 0,0,1
 152 562 152 562 168.5 562 c 0,2,3
 201.714285714 562 201.714285714 562 220 530 c 256,4,5
 228 516 228 516 228 500 c 128,-1,6
 228 484 228 484 218 469 c 2,7,-1
 135 342 l 2,8,9
 132 337 132 337 132 331.5 c 128,-1,10
 132 326 132 326 135 320 c 2,11,-1
 218 194 l 2,12,13
 228 179 228 179 228 162.5 c 0,14,15
 228 128.074074074 228 128.074074074 198.5 109.5 c 0,16,17
 185 101 185 101 167.5 101 c 0,18,19
 132.076923077 101 132.076923077 101 117 129 c 1,20,-1
 10 296 l 2,21,22
 0 312 0 312 0 326 c 0,23,24
 0 350 0 350 10 366 c 2,25,-1
 117 534 l 2,26,27
 125 548 125 548 139 554 c 0,0,1
342 534 m 2,28,29
 360.666666667 562 360.666666667 562 394.5 562 c 0,30,31
 427.714285714 562 427.714285714 562 446 530 c 0,32,33
 453 516 453 516 453 500 c 128,-1,34
 453 484 453 484 443 469 c 2,35,-1
 361 342 l 2,36,37
 358 337 358 337 358 331.5 c 128,-1,38
 358 326 358 326 361 320 c 2,39,-1
 443 194 l 2,40,41
 453 179 453 179 453 162.5 c 128,-1,42
 453 146 453 146 445.5 132 c 0,43,44
 428.892857143 101 428.892857143 101 393 101 c 0,45,46
 360 101 360 101 342 129 c 2,47,-1
 236 296 l 2,48,49
 225 313 225 313 225 331.5 c 128,-1,50
 225 350 225 350 236 366 c 2,51,-1
 342 534 l 2,28,29
EndSplineSet
Validated: 1
EndChar

StartChar: ellipsis
Encoding: 282 8230 190
Width: 705
Flags: W
LayerCount: 2
Fore
SplineSet
150 138 m 0,0,1
 161 127 161 127 168 110 c 0,2,3
 175 96 175 96 175 77 c 0,4,5
 175 57 175 57 168 43 c 0,6,7
 161 26 161 26 150 15 c 0,8,9
 137 4 137 4 122 -4 c 0,10,11
 105 -10 105 -10 87 -10 c 0,12,13
 68 -10 68 -10 53 -4 c 0,14,15
 45 0 45 0 38 4.5 c 128,-1,16
 31 9 31 9 25 15 c 0,17,18
 12 28 12 28 6 43 c 256,19,20
 0 58 0 58 0 77 c 0,21,22
 0 95 0 95 6 110 c 256,23,24
 12 125 12 125 25 138 c 0,25,26
 31 144 31 144 38 148.5 c 128,-1,27
 45 153 45 153 53 157 c 0,28,29
 68 163 68 163 87 163 c 0,30,31
 105 163 105 163 122 157 c 0,32,33
 137 149 137 149 150 138 c 0,0,1
150 138 m 0,34,35
 161 127 161 127 168 110 c 0,36,37
 175 96 175 96 175 77 c 0,38,39
 175 57 175 57 168 43 c 0,40,41
 161 26 161 26 150 15 c 0,42,43
 137 4 137 4 122 -4 c 0,44,45
 105 -10 105 -10 87 -10 c 0,46,47
 68 -10 68 -10 53 -4 c 0,48,49
 45 0 45 0 38 4.5 c 128,-1,50
 31 9 31 9 25 15 c 0,51,52
 12 28 12 28 6 43 c 256,53,54
 0 58 0 58 0 77 c 0,55,56
 0 95 0 95 6 110 c 256,57,58
 12 125 12 125 25 138 c 0,59,60
 31 144 31 144 38 148.5 c 128,-1,61
 45 153 45 153 53 157 c 0,62,63
 68 163 68 163 87 163 c 0,64,65
 105 163 105 163 122 157 c 0,66,67
 137 149 137 149 150 138 c 0,34,35
380 138 m 0,68,69
 391 127 391 127 398 110 c 0,70,71
 405 96 405 96 405 77 c 0,72,73
 405 57 405 57 398 43 c 0,74,75
 391 26 391 26 380 15 c 0,76,77
 367 4 367 4 352 -4 c 0,78,79
 335 -10 335 -10 317 -10 c 0,80,81
 298 -10 298 -10 283 -4 c 0,82,83
 275 0 275 0 268 4.5 c 128,-1,84
 261 9 261 9 255 15 c 0,85,86
 242 28 242 28 236 43 c 256,87,88
 230 58 230 58 230 77 c 0,89,90
 230 95 230 95 236 110 c 256,91,92
 242 125 242 125 255 138 c 0,93,94
 261 144 261 144 268 148.5 c 128,-1,95
 275 153 275 153 283 157 c 0,96,97
 298 163 298 163 317 163 c 0,98,99
 335 163 335 163 352 157 c 0,100,101
 367 149 367 149 380 138 c 0,68,69
610 138 m 0,102,103
 621 127 621 127 628 110 c 0,104,105
 635 96 635 96 635 77 c 0,106,107
 635 57 635 57 628 43 c 0,108,109
 621 26 621 26 610 15 c 0,110,111
 597 4 597 4 582 -4 c 0,112,113
 565 -10 565 -10 547 -10 c 0,114,115
 528 -10 528 -10 513 -4 c 0,116,117
 505 0 505 0 498 4.5 c 128,-1,118
 491 9 491 9 485 15 c 0,119,120
 472 28 472 28 466 43 c 256,121,122
 460 58 460 58 460 77 c 0,123,124
 460 95 460 95 466 110 c 256,125,126
 472 125 472 125 485 138 c 0,127,128
 491 144 491 144 498 148.5 c 128,-1,129
 505 153 505 153 513 157 c 0,130,131
 528 163 528 163 547 163 c 0,132,133
 565 163 565 163 582 157 c 0,134,135
 597 149 597 149 610 138 c 0,102,103
EndSplineSet
Validated: 5
EndChar

StartChar: OE
Encoding: 283 338 195
Width: 723
Flags: W
LayerCount: 2
Fore
SplineSet
418 576 m 5,0,-1
 418 432 l 1,1,-1
 544 432 l 2,2,3
 571 432 571 432 589.499122065 413.608863888 c 0,4,5
 608 395 608 395 608 368.5 c 0,6,7
 608 340 608 340 590 322 c 0,8,9
 571 303 571 303 544 303 c 2,10,-1
 418 303 l 1,11,-1
 418 129 l 1,12,-1
 588 130 l 2,13,14
 614.842105263 130.157894737 614.842105263 130.157894737 634 111 c 0,15,16
 645 100 645 100 653 65 c 1,17,18
 653 38 653 38 634 19 c 128,-1,19
 615 0 615 0 588 0 c 2,20,-1
 225 0 l 2,21,22
 123 0 123 0 60 66 c 0,23,24
 0 129 0 129 0 231 c 2,25,-1
 0 474 l 6,26,27
 0 525 0 525 10 552 c 4,28,29
 31 610 31 610 55.2348242812 635.484025559 c 4,30,31
 121 706 121 706 225 706 c 6,32,-1
 585 706 l 6,33,34
 612 706 612 706 631 687 c 260,35,36
 650 668 650 668 650 641 c 260,37,38
 650 614 650 614 631 595 c 260,39,40
 612 576 612 576 585 576 c 6,41,-1
 418 576 l 5,0,-1
271 575 m 5,42,-1
 233 575 l 6,43,44
 168 575 168 575 151 513 c 4,45,46
 145 493 145 493 145 470 c 6,47,-1
 145 235 l 2,48,49
 145 188 145 188 168 158 c 0,50,51
 189 130 189 130 233 130 c 2,52,-1
 271 130 l 1,53,-1
 271 575 l 5,42,-1
EndSplineSet
Validated: 33
EndChar

StartChar: oe
Encoding: 284 339 196
Width: 723
Flags: W
LayerCount: 2
Fore
SplineSet
418 576 m 5,0,-1
 418 432 l 1,1,-1
 544 432 l 2,2,3
 571 432 571 432 589.499122065 413.608863888 c 0,4,5
 608 395 608 395 608 368.5 c 0,6,7
 608 340 608 340 590 322 c 0,8,9
 571 303 571 303 544 303 c 2,10,-1
 418 303 l 1,11,-1
 418 129 l 1,12,-1
 588 130 l 2,13,14
 614.842105263 130.157894737 614.842105263 130.157894737 634 111 c 0,15,16
 645 100 645 100 653 65 c 1,17,18
 653 38 653 38 634 19 c 128,-1,19
 615 0 615 0 588 0 c 2,20,-1
 225 0 l 2,21,22
 123 0 123 0 60 66 c 0,23,24
 0 129 0 129 0 231 c 2,25,-1
 0 474 l 6,26,27
 0 525 0 525 10 552 c 4,28,29
 31 610 31 610 55.2348242812 635.484025559 c 4,30,31
 121 706 121 706 225 706 c 6,32,-1
 585 706 l 6,33,34
 612 706 612 706 631 687 c 260,35,36
 650 668 650 668 650 641 c 260,37,38
 650 614 650 614 631 595 c 260,39,40
 612 576 612 576 585 576 c 6,41,-1
 418 576 l 5,0,-1
271 575 m 5,42,-1
 233 575 l 6,43,44
 168 575 168 575 151 513 c 4,45,46
 145 493 145 493 145 470 c 6,47,-1
 145 235 l 2,48,49
 145 188 145 188 168 158 c 0,50,51
 189 130 189 130 233 130 c 2,52,-1
 271 130 l 1,53,-1
 271 575 l 5,42,-1
EndSplineSet
Validated: 33
EndChar

StartChar: endash
Encoding: 285 8211 197
Width: 533
Flags: W
LayerCount: 2
Fore
SplineSet
0 364 m 256,0,1
 0 390 0 390 18 408 c 0,2,3
 37 427 37 427 62 427 c 2,4,-1
 314 427 l 1,5,-1
 416 427 l 2,6,7
 442 427 442 427 461 408 c 0,8,9
 479 390 479 390 479 364 c 256,10,11
 479 338 479 338 461 320 c 0,12,13
 441 302 441 302 416 302 c 2,14,-1
 314 302 l 1,15,-1
 62 302 l 2,16,17
 38 302 38 302 18 320 c 0,18,19
 0 338 0 338 0 364 c 256,0,1
EndSplineSet
Validated: 1
EndChar

StartChar: emdash
Encoding: 286 8212 198
Width: 624
Flags: W
LayerCount: 2
Fore
SplineSet
0 364 m 256,0,1
 0 390 0 390 18 408 c 0,2,3
 37 427 37 427 62 427 c 2,4,-1
 384 427 l 1,5,-1
 516 427 l 2,6,7
 542 427 542 427 561 408 c 0,8,9
 579 390 579 390 579 364 c 256,10,11
 579 338 579 338 561 320 c 0,12,13
 541 302 541 302 516 302 c 2,14,-1
 384 302 l 1,15,-1
 62 302 l 2,16,17
 38 302 38 302 18 320 c 0,18,19
 0 338 0 338 0 364 c 256,0,1
EndSplineSet
Validated: 1
EndChar

StartChar: quotedblleft
Encoding: 287 8220 199
Width: 461
Flags: W
LayerCount: 2
Fore
SplineSet
25 446 m 0,0,1
 14 457 14 457 6 475 c 0,2,3
 0 491 0 491 0 509 c 0,4,5
 0 516 0 516 0.5 522 c 128,-1,6
 1 528 1 528 2 533 c 0,7,8
 4 539 4 539 5.5 545 c 128,-1,9
 7 551 7 551 9 557 c 0,10,11
 11 562 11 562 13.5 568 c 128,-1,12
 16 574 16 574 19 580 c 256,13,14
 22 586 22 586 25 592.5 c 128,-1,15
 28 599 28 599 32 606 c 2,16,-1
 53 645 l 1,17,-1
 75 684 l 2,18,19
 79 694 79 694 90 700 c 0,20,21
 100 705 100 705 111 705 c 0,22,23
 134 705 134 705 145 687 c 0,24,25
 157 667 157 667 147 647 c 2,26,-1
 135 622 l 1,27,-1
 124 597 l 2,28,29
 121 594 121 594 123 589 c 0,30,31
 125 586 125 586 128 584 c 0,32,33
 133 582 133 582 137 579.5 c 128,-1,34
 141 577 141 577 145 574 c 0,35,36
 153 568 153 568 159 560 c 0,37,38
 169 546 169 546 173 535 c 0,39,40
 178 520 178 520 178 506 c 0,41,42
 178 489 178 489 171 472 c 256,43,44
 164 455 164 455 152 444 c 0,45,46
 146 438 146 438 139 433.5 c 128,-1,47
 132 429 132 429 124 425 c 0,48,49
 109 419 109 419 90 419 c 0,50,51
 69 419 69 419 54 426 c 0,52,53
 39 432 39 432 25 446 c 0,0,1
239 446 m 0,54,55
 227 457 227 457 220 475 c 0,56,57
 217 483 217 483 215 491.5 c 128,-1,58
 213 500 213 500 213 509 c 0,59,60
 213 522 213 522 216 533 c 0,61,62
 217 545 217 545 222 557 c 0,63,64
 224 562 224 562 226.5 568 c 128,-1,65
 229 574 229 574 232 580 c 256,66,67
 235 586 235 586 238.5 592.5 c 128,-1,68
 242 599 242 599 245 606 c 2,69,-1
 267 645 l 1,70,-1
 288 684 l 2,71,72
 294 694 294 694 303 700 c 0,73,74
 313 705 313 705 324 705 c 0,75,76
 347 705 347 705 358 687 c 0,77,78
 370 667 370 667 361 647 c 2,79,-1
 349 622 l 1,80,-1
 337 597 l 2,81,82
 335 594 335 594 337 589 c 0,83,84
 339 585 339 585 342 584 c 0,85,86
 350 580 350 580 359 574 c 0,87,88
 367 568 367 568 373 560 c 0,89,90
 381 549 381 549 386 535 c 0,91,92
 389 528 389 528 390 521 c 128,-1,93
 391 514 391 514 391 506 c 0,94,95
 391 487 391 487 385 472 c 0,96,97
 381 464 381 464 376.5 457 c 128,-1,98
 372 450 372 450 366 444 c 0,99,100
 353 432 353 432 337 425 c 0,101,102
 322 419 322 419 304 419 c 0,103,104
 283 419 283 419 268 426 c 0,105,106
 251 432 251 432 239 446 c 0,54,55
EndSplineSet
Validated: 33
EndChar

StartChar: quotedblright
Encoding: 288 8221 200
Width: 461
Flags: W
LayerCount: 2
Fore
SplineSet
366 692 m 0,0,1
 376 680 376 680 385 663 c 0,2,3
 391 646 391 646 391 628 c 0,4,5
 391 622 391 622 390.5 616 c 128,-1,6
 390 610 390 610 389 604 c 0,7,8
 387 598 387 598 385.5 592 c 128,-1,9
 384 586 384 586 382 581 c 0,10,11
 380 575 380 575 377.5 569 c 128,-1,12
 375 563 375 563 372 557 c 256,13,14
 369 551 369 551 366 545 c 128,-1,15
 363 539 363 539 359 532 c 2,16,-1
 338 493 l 1,17,-1
 316 454 l 2,18,19
 312 444 312 444 301 438 c 0,20,21
 292 432 292 432 281 432 c 256,22,23
 270 432 270 432 260.5 437.5 c 128,-1,24
 251 443 251 443 246 451 c 256,25,26
 241 459 241 459 240 469.5 c 128,-1,27
 239 480 239 480 244 490 c 2,28,-1
 256 515 l 1,29,-1
 268 540 l 2,30,31
 270 545 270 545 268 548 c 0,32,33
 267 552 267 552 263 554 c 0,34,35
 255 557 255 557 246 564 c 0,36,37
 238 570 238 570 232 578 c 0,38,39
 222 592 222 592 218 603 c 0,40,41
 213 618 213 618 213 632 c 0,42,43
 213 641 213 641 215 649.5 c 128,-1,44
 217 658 217 658 220 666 c 256,45,46
 223 674 223 674 228 680.5 c 128,-1,47
 233 687 233 687 239 693 c 0,48,49
 250 705 250 705 267 712 c 0,50,51
 283 718 283 718 301 718 c 0,52,53
 320 718 320 718 337 712 c 0,54,55
 353 704 353 704 366 692 c 0,0,1
152 692 m 0,56,57
 164 680 164 680 171 663 c 0,58,59
 174 655 174 655 176 646.5 c 128,-1,60
 178 638 178 638 178 628 c 0,61,62
 178 616 178 616 175 604 c 0,63,64
 173 591 173 591 169 581 c 0,65,66
 167 575 167 575 164.5 569 c 128,-1,67
 162 563 162 563 159 557 c 256,68,69
 156 551 156 551 152.5 545 c 128,-1,70
 149 539 149 539 146 532 c 2,71,-1
 124 493 l 1,72,-1
 103 454 l 2,73,74
 97 444 97 444 88 438 c 256,75,76
 79 432 79 432 67 432 c 0,77,78
 56 432 56 432 47 437.5 c 128,-1,79
 38 443 38 443 33 451 c 256,80,81
 28 459 28 459 26.5 469.5 c 128,-1,82
 25 480 25 480 30 490 c 2,83,-1
 42 515 l 1,84,-1
 54 540 l 2,85,86
 56 545 56 545 54 548 c 0,87,88
 54 552 54 552 49 554 c 256,89,90
 44 556 44 556 40.5 558.5 c 128,-1,91
 37 561 37 561 32 564 c 0,92,93
 28 567 28 567 25 570.5 c 128,-1,94
 22 574 22 574 18 578 c 0,95,96
 10 589 10 589 5 603 c 0,97,98
 0 618 0 618 0 632 c 0,99,100
 0 649 0 649 6 666 c 0,101,102
 14 683 14 683 26 693 c 0,103,104
 38 706 38 706 54 712 c 0,105,106
 69 718 69 718 87 718 c 0,107,108
 106 718 106 718 123 712 c 0,109,110
 131 708 131 708 138.5 703.5 c 128,-1,111
 146 699 146 699 152 692 c 0,56,57
EndSplineSet
Validated: 1
EndChar

StartChar: quoteleft
Encoding: 289 8216 201
Width: 248
Flags: W
LayerCount: 2
Fore
SplineSet
25 446 m 0,0,1
 14 457 14 457 6 475 c 0,2,3
 0 491 0 491 0 509 c 0,4,5
 0 516 0 516 0.5 522 c 128,-1,6
 1 528 1 528 2 533 c 0,7,8
 4 539 4 539 5.5 545 c 128,-1,9
 7 551 7 551 9 557 c 0,10,11
 11 562 11 562 13.5 568 c 128,-1,12
 16 574 16 574 19 580 c 256,13,14
 22 586 22 586 25 592.5 c 128,-1,15
 28 599 28 599 32 606 c 2,16,-1
 53 645 l 1,17,-1
 75 684 l 2,18,19
 79 694 79 694 90 700 c 0,20,21
 100 705 100 705 111 705 c 0,22,23
 134 705 134 705 145 687 c 0,24,25
 157 667 157 667 147 647 c 2,26,-1
 135 622 l 1,27,-1
 124 597 l 2,28,29
 121 594 121 594 123 589 c 0,30,31
 125 586 125 586 128 584 c 0,32,33
 133 582 133 582 137 579.5 c 128,-1,34
 141 577 141 577 145 574 c 0,35,36
 153 568 153 568 159 560 c 0,37,38
 169 546 169 546 173 535 c 0,39,40
 178 520 178 520 178 506 c 0,41,42
 178 489 178 489 171 472 c 256,43,44
 164 455 164 455 152 444 c 0,45,46
 146 438 146 438 139 433.5 c 128,-1,47
 132 429 132 429 124 425 c 0,48,49
 109 419 109 419 90 419 c 0,50,51
 69 419 69 419 54 426 c 0,52,53
 39 432 39 432 25 446 c 0,0,1
EndSplineSet
Validated: 33
EndChar

StartChar: quoteright
Encoding: 290 8217 202
Width: 248
Flags: W
LayerCount: 2
Fore
SplineSet
152 692 m 0,0,1
 164 680 164 680 171 663 c 0,2,3
 174 655 174 655 176 646.5 c 128,-1,4
 178 638 178 638 178 628 c 0,5,6
 178 616 178 616 175 604 c 0,7,8
 173 591 173 591 169 581 c 0,9,10
 167 575 167 575 164.5 569 c 128,-1,11
 162 563 162 563 159 557 c 256,12,13
 156 551 156 551 152.5 545 c 128,-1,14
 149 539 149 539 146 532 c 2,15,-1
 124 493 l 1,16,-1
 103 454 l 2,17,18
 97 444 97 444 88 438 c 256,19,20
 79 432 79 432 67 432 c 0,21,22
 56 432 56 432 47 437.5 c 128,-1,23
 38 443 38 443 33 451 c 256,24,25
 28 459 28 459 26.5 469.5 c 128,-1,26
 25 480 25 480 30 490 c 2,27,-1
 42 515 l 1,28,-1
 54 540 l 2,29,30
 56 545 56 545 54 548 c 0,31,32
 54 552 54 552 49 554 c 256,33,34
 44 556 44 556 40.5 558.5 c 128,-1,35
 37 561 37 561 32 564 c 0,36,37
 28 567 28 567 25 570.5 c 128,-1,38
 22 574 22 574 18 578 c 0,39,40
 10 589 10 589 5 603 c 0,41,42
 0 618 0 618 0 632 c 0,43,44
 0 649 0 649 6 666 c 0,45,46
 14 683 14 683 26 693 c 0,47,48
 38 706 38 706 54 712 c 0,49,50
 69 718 69 718 87 718 c 0,51,52
 106 718 106 718 123 712 c 0,53,54
 131 708 131 708 138.5 703.5 c 128,-1,55
 146 699 146 699 152 692 c 0,0,1
EndSplineSet
Validated: 1
EndChar

StartChar: divide
Encoding: 247 247 203
Width: 566
Flags: W
LayerCount: 2
Fore
SplineSet
166 139 m 0,0,1
 192 191 192 191 247.5 191 c 0,2,3
 276.4 191 276.4 191 289.7 181.5 c 0,4,5
 319.594827586 160.146551724 319.594827586 160.146551724 327.297413793 140.462164751 c 128,-1,6
 335 120.777777778 335 120.777777778 335 105 c 256,7,8
 335 89.6666666667 335 89.6666666667 328 71.8333333333 c 0,9,10
 307.261682243 19 307.261682243 19 249.630841121 19 c 128,-1,11
 192 19 192 19 166 71 c 0,12,13
 160 87 160 87 160 104.5 c 128,-1,14
 160 122 160 122 166 139 c 0,0,1
243 426 m 256,15,16
 227.666666667 426 227.666666667 426 209.833333333 433 c 128,-1,17
 192 440 192 440 183.5 448.5 c 0,18,19
 156 476 156 476 156 513 c 0,20,21
 156 566.5 156 566.5 209 593 c 0,22,23
 225 599 225 599 243.5 599 c 0,24,25
 281 599 281 599 306 574 c 128,-1,26
 331 549 331 549 331 512.5 c 128,-1,27
 331 476 331 476 306 451 c 128,-1,28
 281 426 281 426 243 426 c 256,15,16
60 249 m 2,29,30
 35 249 35 249 17.5 266.5 c 128,-1,31
 0 284 0 284 0 308.5 c 128,-1,32
 0 333 0 333 18 351 c 0,33,34
 34 369 34 369 60 369 c 2,35,-1
 437 369 l 2,36,37
 461 369 461 369 478.5 351.5 c 128,-1,38
 496 334 496 334 496 308.5 c 128,-1,39
 496 283 496 283 479 266 c 128,-1,40
 462 249 462 249 437 249 c 2,41,-1
 60 249 l 2,29,30
EndSplineSet
Validated: 1
EndChar

StartChar: Euro
Encoding: 294 8364 207
Width: 601
Flags: W
LayerCount: 2
Fore
SplineSet
215 467 m 2,0,-1
 215 508 l 2,1,2
 215 525 215 525 223 539.5 c 0,3,4
 250 589 250 589 302.833333333 589 c 0,5,6
 340 589 340 589 373 549 c 0,7,8
 393 525 393 525 434.5 520.5 c 0,9,10
 458 518 458 518 480.5 535.5 c 128,-1,11
 503 553 503 553 505 581 c 256,12,13
 507 609 507 609 488 634 c 1,14,-1
 466.769230769 658.263736264 l 2,15,16
 451 676 451 676 423 690 c 0,17,18
 363 720 363 720 301 720 c 0,19,20
 212 720 212 720 153 674.5 c 0,21,22
 70 610 70 610 70 492 c 2,23,-1
 70 467 l 2,24,-1
 41 467 l 2,25,26
 24 467 24 467 12 455 c 128,-1,27
 0 443 0 443 0 425.5 c 128,-1,28
 0 408 0 408 12 396 c 0,29,30
 23.3928571429 384.607142857 23.3928571429 384.607142857 41 384 c 6,31,-1
 70 384 l 6,32,-1
 70 345 l 2,33,34
 70 341 70 341 67 338 c 256,35,36
 64 335 64 335 60 335 c 2,37,-1
 41 335 l 2,38,39
 24 335 24 335 12 323 c 256,40,41
 -6 305 -6 305 3 282 c 256,42,43
 5 277 5 277 7 272 c 128,-1,44
 9 267 9 267 12 265 c 0,45,46
 30 253 30 253 41 253 c 2,47,-1
 60 253 l 2,48,49
 64 253 64 253 67 250 c 256,50,51
 70 247 70 247 70 243 c 2,52,-1
 70 214 l 2,53,54
 70 105 70 105 131 50 c 0,55,56
 142 40 142 40 153 31.5 c 0,57,58
 212 -14 212 -14 318.5 -14 c 0,59,60
 354 -14 354 -14 396 2.5 c 0,61,62
 466 30 466 30 500.5 90.5 c 0,63,64
 511 109 511 109 521 140.111111111 c 0,65,66
 531 171 531 171 531 214 c 2,67,-1
 531 220 l 2,68,69
 531 249 531 249 509 271 c 0,70,71
 486 294 486 294 458 292 c 0,72,73
 426 290 426 290 407 271 c 0,74,75
 386 250 386 250 386 220 c 2,76,-1
 386 219 l 2,77,78
 386 196 386 196 381.911764706 181.558823529 c 0,79,80
 377 163 377 163 364 145 c 0,81,82
 345 118 345 118 301 118 c 128,-1,83
 257 118 257 118 240 142 c 0,84,85
 232 153 232 153 223.5 167.166666667 c 0,86,87
 215 181 215 181 215 220 c 2,88,-1
 215 243 l 2,89,90
 215 247 215 247 218 250 c 256,91,92
 221 253 221 253 225 253 c 2,93,-1
 289 253 l 2,94,95
 307 253 307 253 318 265 c 0,96,97
 330 278 330 278 330 293.5 c 0,98,99
 330 312 330 312 318.5 323.5 c 128,-1,100
 307 335 307 335 289 335 c 2,101,-1
 225 335 l 2,102,103
 221 335 221 335 218 338 c 256,104,105
 215 341 215 341 215 345 c 2,106,-1
 215 384 l 6,107,-1
 289 384 l 6,108,109
 306 384 306 384 318 396 c 256,110,111
 330 408 330 408 330 425.5 c 128,-1,112
 330 443 330 443 318 455 c 256,113,114
 306 467 306 467 289 467 c 2,115,-1
 215 467 l 2,0,-1
EndSplineSet
Validated: 41
EndChar

StartChar: guilsinglleft
Encoding: 295 8249 208
Width: 298
Flags: W
LayerCount: 2
Fore
SplineSet
167 562 m 0,0,1
 185 562 185 562 198.5 553 c 128,-1,2
 212 544 212 544 220 530 c 256,3,4
 228 516 228 516 228 500 c 128,-1,5
 228 484 228 484 218 469 c 2,6,-1
 177 406 l 1,7,-1
 135 342 l 2,8,9
 132 337 132 337 132 331 c 0,10,11
 132 326 132 326 135 320 c 2,12,-1
 177 257 l 1,13,-1
 218 194 l 2,14,15
 228 179 228 179 228 162.5 c 128,-1,16
 228 146 228 146 220 132 c 0,17,18
 216 125 216 125 207.5 119.5 c 128,-1,19
 199 114 199 114 190 110 c 0,20,21
 179 105 179 105 167 101 c 1,22,23
 150 101 150 101 139 108 c 0,24,25
 124 116 124 116 117 129 c 2,26,-1
 63 213 l 1,27,-1
 10 296 l 2,28,29
 0 312 0 312 0 331 c 0,30,31
 0 340 0 340 2.5 349 c 128,-1,32
 5 358 5 358 10 366 c 2,33,-1
 63 450 l 1,34,-1
 117 534 l 2,35,36
 125 548 125 548 139 554 c 0,37,38
 152 562 152 562 167 562 c 0,0,1
EndSplineSet
Validated: 1
EndChar

StartChar: daggerdbl
Encoding: 299 8225 210
Width: 580
Flags: W
LayerCount: 2
Fore
SplineSet
510 448 m 256,0,1
 510 421 510 421 491 404 c 0,2,3
 474 385 474 385 447 385 c 2,4,-1
 391 385 l 1,5,-1
 336 385 l 2,6,7
 331 385 331 385 328 382 c 0,8,9
 326 378 326 378 326 375 c 2,10,-1
 326 300 l 1,11,-1
 326 225 l 2,12,13
 326 222 326 222 328 218 c 0,14,15
 331 215 331 215 336 215 c 2,16,-1
 391 215 l 1,17,-1
 447 215 l 2,18,19
 474 215 474 215 491 196 c 0,20,21
 510 179 510 179 510 152 c 256,22,23
 510 125 510 125 491 108 c 0,24,25
 474 89 474 89 447 89 c 2,26,-1
 391 89 l 1,27,-1
 336 89 l 2,28,29
 331 89 331 89 328 86 c 0,30,31
 326 82 326 82 326 79 c 2,32,-1
 326 -8 l 1,33,-1
 326 -94 l 2,34,35
 326 -125 326 -125 305 -144 c 0,36,37
 284 -165 284 -165 255 -165 c 256,38,39
 226 -165 226 -165 205 -144 c 0,40,41
 184 -125 184 -125 184 -94 c 2,42,-1
 184 -8 l 1,43,-1
 184 79 l 2,44,45
 184 83 184 83 181 86 c 0,46,47
 179 89 179 89 174 89 c 2,48,-1
 119 89 l 1,49,-1
 63 89 l 2,50,51
 37 89 37 89 18 108 c 0,52,53
 0 126 0 126 0 152 c 256,54,55
 0 178 0 178 18 196 c 0,56,57
 37 215 37 215 63 215 c 2,58,-1
 119 215 l 1,59,-1
 174 215 l 2,60,61
 179 215 179 215 181 218 c 0,62,63
 184 221 184 221 184 225 c 2,64,-1
 184 300 l 1,65,-1
 184 375 l 2,66,67
 184 379 184 379 181 382 c 0,68,69
 179 385 179 385 174 385 c 2,70,-1
 119 385 l 1,71,-1
 63 385 l 2,72,73
 37 385 37 385 18 404 c 0,74,75
 0 422 0 422 0 448 c 256,76,77
 0 474 0 474 18 492 c 0,78,79
 37 511 37 511 63 511 c 2,80,-1
 119 511 l 1,81,-1
 174 511 l 2,82,83
 179 511 179 511 181 514 c 0,84,85
 184 517 184 517 184 521 c 2,86,-1
 184 578 l 1,87,-1
 184 635 l 2,88,89
 184 664 184 664 205 685 c 256,90,91
 226 706 226 706 255 706 c 256,92,93
 284 706 284 706 305 685 c 256,94,95
 326 664 326 664 326 635 c 2,96,-1
 326 578 l 1,97,-1
 326 521 l 2,98,99
 326 518 326 518 328 514 c 0,100,101
 331 511 331 511 336 511 c 2,102,-1
 391 511 l 1,103,-1
 447 511 l 2,104,105
 474 511 474 511 491 492 c 0,106,107
 510 475 510 475 510 448 c 256,0,1
EndSplineSet
Validated: 1
EndChar

StartChar: periodcentered
Encoding: 183 183 211
Width: 245
Flags: W
LayerCount: 2
Fore
SplineSet
150 295 m 0,0,1
 137 284 137 284 122 276 c 0,2,3
 105 270 105 270 86.5 270 c 128,-1,4
 68 270 68 270 56.5 275 c 0,5,6
 0 299.565217391 0 299.565217391 0 357 c 0,7,8
 0 410.5 0 410.5 53 437 c 0,9,10
 68 443 68 443 86.5 443 c 128,-1,11
 105 443 105 443 122 437 c 0,12,13
 175 408.733333333 175 408.733333333 175 364.366666667 c 128,-1,14
 175 320 175 320 150 295 c 0,0,1
EndSplineSet
Validated: 1
EndChar

StartChar: quotedblbase
Encoding: 301 8222 213
Width: 452
Flags: W
LayerCount: 2
Fore
SplineSet
357 136 m 0,0,1
 368 125 368 125 376 107 c 0,2,3
 382 92 382 92 382 73 c 0,4,5
 382 67 382 67 381.5 61 c 128,-1,6
 381 55 381 55 380 49 c 0,7,8
 378 43 378 43 376.5 37 c 128,-1,9
 375 31 375 31 373 25 c 0,10,11
 371 20 371 20 368.5 14 c 128,-1,12
 366 8 366 8 363 2 c 256,13,14
 360 -4 360 -4 357 -10.5 c 128,-1,15
 354 -17 354 -17 350 -24 c 2,16,-1
 329 -63 l 1,17,-1
 307 -102 l 2,18,19
 302 -111 302 -111 292 -118 c 0,20,21
 282 -123 282 -123 271 -123 c 0,22,23
 248 -123 248 -123 237 -104 c 0,24,25
 232 -96 232 -96 231 -86 c 128,-1,26
 230 -76 230 -76 235 -65 c 2,27,-1
 246 -40 l 1,28,-1
 258 -15 l 2,29,30
 261 -12 261 -12 259 -7 c 0,31,32
 257 -3 257 -3 253 -2 c 0,33,34
 249 0 249 0 245 2.5 c 128,-1,35
 241 5 241 5 237 8 c 0,36,37
 229 14 229 14 223 22 c 0,38,39
 213 36 213 36 209 47 c 0,40,41
 204 62 204 62 204 77 c 0,42,43
 204 96 204 96 211 110 c 0,44,45
 218 127 218 127 230 138 c 0,46,47
 236 144 236 144 243 148.5 c 128,-1,48
 250 153 250 153 258 157 c 0,49,50
 273 163 273 163 292 163 c 0,51,52
 313 163 313 163 328 156 c 0,53,54
 343 150 343 150 357 136 c 0,0,1
152 136 m 0,55,56
 164 125 164 125 171 107 c 0,57,58
 174 99 174 99 176 90.5 c 128,-1,59
 178 82 178 82 178 73 c 0,60,61
 178 61 178 61 175 49 c 0,62,63
 173 37 173 37 169 25 c 0,64,65
 167 20 167 20 164.5 14 c 128,-1,66
 162 8 162 8 159 2 c 256,67,68
 156 -4 156 -4 152.5 -10.5 c 128,-1,69
 149 -17 149 -17 146 -24 c 2,70,-1
 124 -63 l 1,71,-1
 103 -102 l 2,72,73
 96 -113 96 -113 88 -118 c 0,74,75
 78 -123 78 -123 67 -123 c 0,76,77
 44 -123 44 -123 33 -104 c 0,78,79
 28 -96 28 -96 26.5 -86 c 128,-1,80
 25 -76 25 -76 30 -65 c 2,81,-1
 42 -40 l 1,82,-1
 54 -15 l 2,83,84
 56 -12 56 -12 54 -7 c 0,85,86
 54 -4 54 -4 49 -2 c 0,87,88
 41 2 41 2 32 8 c 0,89,90
 28 11 28 11 25 14.5 c 128,-1,91
 22 18 22 18 18 22 c 0,92,93
 10 33 10 33 5 47 c 0,94,95
 0 62 0 62 0 77 c 0,96,97
 0 95 0 95 6 110 c 0,98,99
 10 118 10 118 14.5 125 c 128,-1,100
 19 132 19 132 26 138 c 0,101,102
 37 149 37 149 54 157 c 0,103,104
 69 163 69 163 87 163 c 0,105,106
 108 163 108 163 123 156 c 0,107,108
 140 150 140 150 152 136 c 0,55,56
EndSplineSet
Validated: 1
EndChar

StartChar: perthousand
Encoding: 302 8240 214
Width: 1084
Flags: W
LayerCount: 2
Fore
SplineSet
987 274 m 0,0,1
 1032 222.571289062 1032 222.571289062 1032 160 c 256,2,3
 1032 90 1032 90 987 45 c 128,-1,4
 942 0 942 0 874 0 c 256,5,6
 779.77734375 0 779.77734375 0 737 77 c 0,7,8
 716 110.599609375 716 110.599609375 716 166.5859375 c 128,-1,9
 716 222.571289062 716 222.571289062 761 274 c 1,10,11
 812.428710938 319 812.428710938 319 874 319 c 0,12,13
 917.727539062 319 917.727539062 319 944.86328125 303 c 128,-1,14
 972 287 972 287 987 274 c 0,0,1
874 226 m 256,15,16
 833 226 833 226 820 187 c 0,17,18
 816 176 816 176 816 160 c 256,19,20
 816 113.454101562 816 113.454101562 850 98 c 0,21,22
 862 93 862 93 874 93 c 256,23,24
 900.25 93 900.25 93 916 111 c 0,25,26
 932 127 932 127 932 160 c 256,27,28
 932 205.545898438 932 205.545898438 898 221 c 0,29,30
 886 226 886 226 874 226 c 256,15,16
456 677 m 1,31,32
 469 703 469 703 500 703 c 128,-1,33
 531 703 531 703 544 678 c 0,34,35
 559.416666667 653.773809524 559.416666667 653.773809524 545 627 c 2,36,-1
 207 24 l 1,37,38
 190.285714286 -2 190.285714286 -2 162 -2 c 256,39,40
 133.909090909 -2 133.909090909 -2 118 23 c 256,41,42
 102.583333333 47.2261904762 102.583333333 47.2261904762 117 74 c 2,43,-1
 456 677 l 1,31,32
158 697 m 256,44,45
 219.571428571 697 219.571428571 697 271 652 c 1,46,47
 316 607 316 607 316 538 c 256,48,49
 316 498.777777778 316 498.777777778 308 481.888888889 c 0,50,51
 288.3 440.3 288.3 440.3 272.15 424.15 c 0,52,53
 227 379 227 379 158 379 c 256,54,55
 78.6 379 78.6 379 31 438.5 c 0,56,57
 15.6666666667 457.666666667 15.6666666667 457.666666667 7.83333333333 487.333333333 c 128,-1,58
 0 517 0 517 0 538 c 256,59,60
 0 580 0 580 20 620 c 0,61,62
 50.9775280899 671.629213483 50.9775280899 671.629213483 115 692 c 0,63,64
 138 697 138 697 158 697 c 256,44,45
158 604 m 256,65,66
 117 604 117 604 104 565 c 0,67,68
 100 554 100 554 100 538 c 256,69,70
 100 491.454545455 100 491.454545455 134 476 c 0,71,72
 143 472 143 472 158 472 c 256,73,74
 185.125 472 185.125 472 200 489 c 0,75,76
 216 505 216 505 216 538 c 256,77,78
 216 570 216 570 200 586 c 0,79,80
 185.6 604 185.6 604 158 604 c 256,65,66
611 274 m 0,81,82
 656 222.571428571 656 222.571428571 656 160 c 256,83,84
 656 90 656 90 611 45 c 128,-1,85
 566 -2.42861286637e-17 566 -2.42861286637e-17 498 0 c 256,86,87
 403.777777778 0 403.777777778 0 361 77 c 0,88,89
 340 110.6 340 110.6 340 166.585714286 c 128,-1,90
 340 222.571428571 340 222.571428571 385 274 c 1,91,92
 436.428571429 319 436.428571429 319 498 319 c 0,93,94
 541.727272727 319 541.727272727 319 568.863636364 303 c 128,-1,95
 596 287 596 287 611 274 c 0,81,82
498 226 m 256,96,97
 457 226 457 226 444 187 c 0,98,99
 440 176 440 176 440 160 c 256,100,101
 440 113.454545455 440 113.454545455 474 98 c 0,102,103
 486 93 486 93 498 93 c 256,104,105
 524.25 93 524.25 93 540 111 c 0,106,107
 556 127 556 127 556 160 c 256,108,109
 556 205.545454545 556 205.545454545 522 221 c 0,110,111
 510 226 510 226 498 226 c 256,96,97
EndSplineSet
Validated: 2081
EndChar

StartChar: circumflex
Encoding: 305 710 231
Width: 361
Flags: W
LayerCount: 2
Fore
SplineSet
177 893 m 2,0,1
 229.7 893 229.7 893 257 851 c 1,2,-1
 270 834 l 1,3,-1
 282 816 l 2,4,5
 300.090452261 789.869346734 300.090452261 789.869346734 285 764 c 0,6,7
 270.272727273 737 270.272727273 737 241 737 c 0,8,9
 218.285714286 737 218.285714286 737 202 756 c 1,10,-1
 171 796 l 1,11,12
 160 808 160 808 145.5 808 c 128,-1,13
 131 808 131 808 121 796 c 2,14,-1
 89 756 l 1,15,16
 72.1111111111 737 72.1111111111 737 53.5555555556 737 c 0,17,18
 20.7272727273 737 20.7272727273 737 6 764 c 0,19,20
 -7 790 -7 790 9 816 c 1,21,-1
 21 834 l 1,22,-1
 34 851 l 1,23,24
 61.3 893 61.3 893 114 893 c 2,25,-1
 177 893 l 2,0,1
EndSplineSet
Validated: 33
EndChar

StartChar: tilde
Encoding: 306 732 232
Width: 421
Flags: W
LayerCount: 2
Fore
SplineSet
313 884 m 256,0,1
 329 884 329 884 341 871 c 128,-1,2
 353 858 353 858 351 840 c 2,3,-1
 350 826 l 2,4,5
 349 822 349 822 346.5 811 c 128,-1,6
 344 800 344 800 338.5 790 c 0,7,8
 304.176348548 727.593360996 304.176348548 727.593360996 242 733 c 0,9,10
 229 733 229 733 219 735 c 2,11,-1
 198 741 l 2,12,13
 196.333333333 742.333333333 196.333333333 742.333333333 187.666666667 746.666666667 c 2,14,-1
 154 764 l 1,15,-1
 143 769 l 2,16,17
 140 771 140 771 137 772 c 128,-1,18
 134 773 134 773 131.5 774.5 c 0,19,20
 103.375 791.375 103.375 791.375 87 775 c 0,21,22
 81 770 81 770 80 755 c 128,-1,23
 79 740 79 740 66.5 730.5 c 128,-1,24
 54 721 54 721 37.5 722 c 128,-1,25
 21 723 21 723 10 735.5 c 128,-1,26
 -1 748 -1 748 0 765 c 1,27,-1
 2 779 l 1,28,29
 2 795.5 2 795.5 12 814.75 c 0,30,31
 43.2258420762 874.859745997 43.2258420762 874.859745997 109 872 c 0,32,33
 122 872 122 872 130 870 c 128,-1,34
 138 868 138 868 143 867 c 128,-1,35
 148 866 148 866 151.5 864 c 128,-1,36
 155 862 155 862 158 861.5 c 128,-1,37
 161 861 161 861 164 859 c 256,38,39
 167 857 167 857 169.5 856 c 0,40,41
 173.666666667 854.333333333 173.666666667 854.333333333 183 849 c 2,42,-1
 192 844 l 1,43,-1
 208 836 l 2,44,45
 216 832 216 832 219 830.5 c 128,-1,46
 222 829 222 829 225 828 c 128,-1,47
 228 827 228 827 232 825.5 c 0,48,49
 238.666666667 823 238.666666667 823 248.333333333 823 c 128,-1,50
 258 823 258 823 264 830 c 0,51,52
 272 836 272 836 272 847.5 c 0,53,54
 272 862 272 862 285 875 c 0,55,56
 297 884 297 884 313 884 c 256,0,1
EndSplineSet
Validated: 33
EndChar

StartChar: uni00AD
Encoding: 173 173 236
Width: 399
Flags: W
LayerCount: 2
Fore
SplineSet
0 364 m 256,0,1
 0 390 0 390 18.5 408.5 c 128,-1,2
 37 427 37 427 62 427 c 2,3,-1
 266 427 l 2,4,5
 292 427 292 427 310.5 408.5 c 128,-1,6
 329 390 329 390 329 364 c 256,7,8
 329 338 329 338 311 320 c 0,9,10
 291 302 291 302 266 302 c 2,11,-1
 62 302 l 2,12,13
 38 302 38 302 18 320 c 0,14,15
 0 338 0 338 0 364 c 256,0,1
EndSplineSet
Validated: 1
EndChar

StartChar: currency
Encoding: 164 164 237
Width: 740
Flags: W
LayerCount: 2
Fore
SplineSet
332 69 m 0,0,1
 247 69 247 69 170 111 c 1,2,-1
 135 43 l 2,3,4
 126 24 126 24 109 15 c 0,5,6
 91 4 91 4 72 4 c 0,7,8
 35 4 35 4 13 37 c 0,9,10
 2 54 2 54 2 71.5 c 128,-1,11
 2 89 2 89 11 106 c 2,12,-1
 63 209 l 1,13,14
 45 236 45 236 32 267 c 0,15,16
 8 326 8 326 8 394 c 0,17,18
 8 504 8 504 67 585 c 1,19,-1
 19 679 l 2,20,21
 11 695 11 695 11 712.5 c 128,-1,22
 11 730 11 730 22 748 c 0,23,24
 44 782 44 782 81 782 c 0,25,26
 111 782 111 782 130 763 c 0,27,28
 138 755 138 755 144 743 c 2,29,-1
 175 680 l 1,30,31
 217 703 217 703 267 712 c 0,32,33
 298 718 298 718 332 718.5 c 128,-1,34
 366 719 366 719 397 712 c 0,35,36
 443 703 443 703 482 684 c 1,37,-1
 511 741 l 2,38,39
 517 753 517 753 525 761 c 0,40,41
 544 780 544 780 573 780 c 0,42,43
 611 780 611 780 633 746 c 0,44,45
 644 728 644 728 644 711 c 128,-1,46
 644 694 644 694 636 678 c 0,47,48
 614 635 614 635 593 591 c 1,49,50
 657 507 657 507 657 394 c 0,51,52
 657 290 657 290 603 211 c 1,53,-1
 656 107 l 2,54,55
 664 91 664 91 664 74 c 128,-1,56
 664 57 664 57 653 39 c 0,57,58
 631 6 631 6 593 6 c 0,59,60
 574 6 574 6 556.5 16.5 c 128,-1,61
 539 27 539 27 531 44 c 2,62,-1
 497 111 l 1,63,64
 452 85 452 85 397 75 c 0,65,66
 366 69 366 69 332 69 c 0,0,1
319 192 m 0,67,68
 374 192 374 192 410 207 c 128,-1,69
 446 222 446 222 473.5 249 c 128,-1,70
 501 276 501 276 514 314 c 0,71,72
 514 315 514 315 515 315 c 0,73,74
 529 351 529 351 529 393 c 0,75,76
 529 483 529 483 474 538 c 0,77,78
 417 595 417 595 332 595 c 0,79,80
 292 595 292 595 255.5 580.5 c 128,-1,81
 219 566 219 566 193 540 c 128,-1,82
 167 514 167 514 150 473 c 0,83,84
 136 436 136 436 135.5 393.5 c 128,-1,85
 135 351 135 351 150.5 312.5 c 128,-1,86
 166 274 166 274 192 247.5 c 128,-1,87
 218 221 218 221 253.5 206.5 c 128,-1,88
 289 192 289 192 319 192 c 0,67,68
EndSplineSet
Validated: 33
EndChar
